<svg width="320" height="186" viewBox="0 0 320 186" fill="none" xmlns="http://www.w3.org/2000/svg">
<circle cx="50" cy="136" r="49.5" fill="white" stroke="black"/>
<line x1="76.7333" y1="178.177" x2="306.733" y2="33.177" stroke="black"/>
<line x1="35.8479" y1="88.5237" x2="295.848" y2="5.52368" stroke="black"/>
<mask id="path-4-inside-1_283_166" fill="white">
<path d="M306.807 33.7441C310.481 32.0867 313.339 29.0117 314.753 25.1958C316.167 21.3799 316.02 17.1355 314.345 13.3964C312.671 9.65734 309.605 6.72983 305.823 5.25791C302.04 3.78599 297.851 3.89023 294.177 5.5477L294.62 6.53709C298.037 4.99594 301.932 4.89901 305.449 6.26764C308.965 7.63626 311.816 10.3583 313.373 13.835C314.93 17.3117 315.067 21.2582 313.752 24.8063C312.438 28.3545 309.78 31.2136 306.364 32.7548L306.807 33.7441Z"/>
</mask>
<path d="M306.807 33.7441C310.481 32.0867 313.339 29.0117 314.753 25.1958C316.167 21.3799 316.02 17.1355 314.345 13.3964C312.671 9.65734 309.605 6.72983 305.823 5.25791C302.04 3.78599 297.851 3.89023 294.177 5.5477L294.62 6.53709C298.037 4.99594 301.932 4.89901 305.449 6.26764C308.965 7.63626 311.816 10.3583 313.373 13.835C314.93 17.3117 315.067 21.2582 313.752 24.8063C312.438 28.3545 309.78 31.2136 306.364 32.7548L306.807 33.7441Z" fill="white" stroke="black" stroke-width="2" mask="url(#path-4-inside-1_283_166)"/>
<path d="M1 134L6 136.887L6 131.113L1 134ZM99 134L94 131.113L94 136.887L99 134ZM5.5 134L5.5 134.5L94.5 134.5L94.5 134L94.5 133.5L5.5 133.5L5.5 134Z" fill="black"/>
<path d="M50.057 132.119C49.699 132.114 49.3411 132.045 48.9831 131.915C48.6252 131.784 48.2985 131.564 48.003 131.254C47.7076 130.942 47.4703 130.52 47.2914 129.989C47.1124 129.455 47.0229 128.784 47.0229 127.977C47.0229 127.205 47.0953 126.52 47.2402 125.923C47.3851 125.324 47.5953 124.82 47.8709 124.411C48.1465 123.999 48.4789 123.686 48.8681 123.473C49.2601 123.26 49.7019 123.153 50.1934 123.153C50.682 123.153 51.1167 123.251 51.4973 123.447C51.8809 123.641 52.1934 123.911 52.4348 124.257C52.6763 124.604 52.8326 125.003 52.9036 125.455H51.8638C51.7672 125.062 51.5797 124.737 51.3013 124.479C51.0229 124.22 50.6536 124.091 50.1934 124.091C49.5172 124.091 48.9846 124.385 48.5953 124.973C48.209 125.561 48.0144 126.386 48.0115 127.449H48.0797C48.2388 127.207 48.4277 127.001 48.6465 126.831C48.8681 126.658 49.1124 126.524 49.3794 126.43C49.6465 126.337 49.9292 126.29 50.2275 126.29C50.7275 126.29 51.1848 126.415 51.5996 126.665C52.0144 126.912 52.3468 127.254 52.5968 127.692C52.8468 128.126 52.9718 128.625 52.9718 129.188C52.9718 129.727 52.851 130.222 52.6096 130.67C52.3681 131.116 52.0286 131.472 51.5911 131.736C51.1564 131.997 50.6451 132.125 50.057 132.119ZM50.057 131.182C50.415 131.182 50.736 131.092 51.0201 130.913C51.307 130.734 51.5328 130.494 51.6976 130.193C51.8652 129.892 51.949 129.557 51.949 129.188C51.949 128.827 51.8681 128.499 51.7061 128.203C51.5471 127.905 51.3269 127.668 51.0456 127.491C50.7672 127.315 50.449 127.227 50.0911 127.227C49.8212 127.227 49.5698 127.281 49.3368 127.389C49.1039 127.494 48.8993 127.639 48.7232 127.824C48.5499 128.009 48.4135 128.22 48.3141 128.459C48.2147 128.695 48.165 128.943 48.165 129.205C48.165 129.551 48.2459 129.875 48.4078 130.176C48.5726 130.477 48.7971 130.72 49.0811 130.905C49.3681 131.089 49.6934 131.182 50.057 131.182Z" fill="black"/>
</svg>
