<svg width="320" height="186" viewBox="0 0 320 186" fill="none" xmlns="http://www.w3.org/2000/svg">
<circle cx="50" cy="136" r="49.5" fill="white" stroke="black"/>
<line x1="76.7333" y1="178.177" x2="306.733" y2="33.177" stroke="black"/>
<line x1="35.8479" y1="88.5237" x2="295.848" y2="5.52368" stroke="black"/>
<mask id="path-4-inside-1_283_166" fill="white">
<path d="M306.807 33.7441C310.481 32.0867 313.339 29.0117 314.753 25.1958C316.167 21.3799 316.02 17.1355 314.345 13.3964C312.671 9.65734 309.605 6.72983 305.823 5.25791C302.04 3.78599 297.851 3.89023 294.177 5.5477L294.62 6.53709C298.037 4.99594 301.932 4.89901 305.449 6.26764C308.965 7.63626 311.816 10.3583 313.373 13.835C314.93 17.3117 315.067 21.2582 313.752 24.8063C312.438 28.3545 309.78 31.2136 306.364 32.7548L306.807 33.7441Z"/>
</mask>
<path d="M306.807 33.7441C310.481 32.0867 313.339 29.0117 314.753 25.1958C316.167 21.3799 316.02 17.1355 314.345 13.3964C312.671 9.65734 309.605 6.72983 305.823 5.25791C302.04 3.78599 297.851 3.89023 294.177 5.5477L294.62 6.53709C298.037 4.99594 301.932 4.89901 305.449 6.26764C308.965 7.63626 311.816 10.3583 313.373 13.835C314.93 17.3117 315.067 21.2582 313.752 24.8063C312.438 28.3545 309.78 31.2136 306.364 32.7548L306.807 33.7441Z" fill="white" stroke="black" stroke-width="2" mask="url(#path-4-inside-1_283_166)"/>
<path d="M1 134L6 136.887L6 131.113L1 134ZM99 134L94 131.113L94 136.887L99 134ZM5.5 134L5.5 134.5L94.5 134.5L94.5 134L94.5 133.5L5.5 133.5L5.5 134Z" fill="black"/>
<path d="M47.4325 123.273V132H46.3757V124.381H46.3246L44.1939 125.795V124.722L46.3757 123.273H47.4325ZM52.7891 132.119C52.147 132.119 51.6001 131.945 51.1484 131.595C50.6967 131.243 50.3516 130.733 50.1129 130.065C49.8743 129.395 49.755 128.585 49.755 127.636C49.755 126.693 49.8743 125.888 50.1129 125.22C50.3544 124.55 50.701 124.038 51.1527 123.686C51.6072 123.331 52.1527 123.153 52.7891 123.153C53.4254 123.153 53.9695 123.331 54.4212 123.686C54.8757 124.038 55.2223 124.55 55.4609 125.22C55.7024 125.888 55.8232 126.693 55.8232 127.636C55.8232 128.585 55.7038 129.395 55.4652 130.065C55.2266 130.733 54.8814 131.243 54.4297 131.595C53.978 131.945 53.4311 132.119 52.7891 132.119ZM52.7891 131.182C53.4254 131.182 53.9197 130.875 54.272 130.261C54.6243 129.648 54.8004 128.773 54.8004 127.636C54.8004 126.881 54.7195 126.237 54.5575 125.706C54.3984 125.175 54.1683 124.77 53.8672 124.491C53.5689 124.213 53.2095 124.074 52.7891 124.074C52.1584 124.074 51.6655 124.385 51.3104 125.007C50.9553 125.626 50.7777 126.503 50.7777 127.636C50.7777 128.392 50.8572 129.034 51.0163 129.562C51.1754 130.091 51.4041 130.493 51.7024 130.768C52.0036 131.044 52.3658 131.182 52.7891 131.182Z" fill="black"/>
</svg>
