<svg width="320" height="186" viewBox="0 0 320 186" fill="none" xmlns="http://www.w3.org/2000/svg">
<circle cx="50" cy="136" r="49.5" fill="white" stroke="black"/>
<line x1="76.7333" y1="178.177" x2="306.733" y2="33.177" stroke="black"/>
<line x1="35.8479" y1="88.5237" x2="295.848" y2="5.52368" stroke="black"/>
<mask id="path-4-inside-1_283_166" fill="white">
<path d="M306.807 33.7441C310.481 32.0867 313.339 29.0117 314.753 25.1958C316.167 21.3799 316.02 17.1355 314.345 13.3964C312.671 9.65734 309.605 6.72983 305.823 5.25791C302.04 3.78599 297.851 3.89023 294.177 5.5477L294.62 6.53709C298.037 4.99594 301.932 4.89901 305.449 6.26764C308.965 7.63626 311.816 10.3583 313.373 13.835C314.93 17.3117 315.067 21.2582 313.752 24.8063C312.438 28.3545 309.78 31.2136 306.364 32.7548L306.807 33.7441Z"/>
</mask>
<path d="M306.807 33.7441C310.481 32.0867 313.339 29.0117 314.753 25.1958C316.167 21.3799 316.02 17.1355 314.345 13.3964C312.671 9.65734 309.605 6.72983 305.823 5.25791C302.04 3.78599 297.851 3.89023 294.177 5.5477L294.62 6.53709C298.037 4.99594 301.932 4.89901 305.449 6.26764C308.965 7.63626 311.816 10.3583 313.373 13.835C314.93 17.3117 315.067 21.2582 313.752 24.8063C312.438 28.3545 309.78 31.2136 306.364 32.7548L306.807 33.7441Z" fill="white" stroke="black" stroke-width="2" mask="url(#path-4-inside-1_283_166)"/>
<path d="M1 134L6 136.887L6 131.113L1 134ZM99 134L94 131.113L94 136.887L99 134ZM5.5 134L5.5 134.5L94.5 134.5L94.5 134L94.5 133.5L5.5 133.5L5.5 134Z" fill="black"/>
<path d="M47.4384 123.273V132H46.3816V124.381H46.3304L44.1998 125.795V124.722L46.3816 123.273H47.4384ZM52.8461 132.119C52.4881 132.114 52.1301 132.045 51.7722 131.915C51.4142 131.784 51.0875 131.564 50.7921 131.254C50.4966 130.942 50.2594 130.52 50.0804 129.989C49.9015 129.455 49.812 128.784 49.812 127.977C49.812 127.205 49.8844 126.52 50.0293 125.923C50.1742 125.324 50.3844 124.82 50.66 124.411C50.9355 123.999 51.2679 123.686 51.6571 123.473C52.0492 123.26 52.4909 123.153 52.9824 123.153C53.4711 123.153 53.9057 123.251 54.2864 123.447C54.6699 123.641 54.9824 123.911 55.2239 124.257C55.4654 124.604 55.6216 125.003 55.6926 125.455H54.6529C54.5563 125.062 54.3688 124.737 54.0904 124.479C53.812 124.22 53.4426 124.091 52.9824 124.091C52.3063 124.091 51.7736 124.385 51.3844 124.973C50.998 125.561 50.8034 126.386 50.8006 127.449H50.8688C51.0279 127.207 51.2168 127.001 51.4355 126.831C51.6571 126.658 51.9015 126.524 52.1685 126.43C52.4355 126.337 52.7182 126.29 53.0165 126.29C53.5165 126.29 53.9739 126.415 54.3887 126.665C54.8034 126.912 55.1358 127.254 55.3858 127.692C55.6358 128.126 55.7608 128.625 55.7608 129.188C55.7608 129.727 55.6401 130.222 55.3986 130.67C55.1571 131.116 54.8176 131.472 54.3801 131.736C53.9455 131.997 53.4341 132.125 52.8461 132.119ZM52.8461 131.182C53.204 131.182 53.525 131.092 53.8091 130.913C54.0961 130.734 54.3219 130.494 54.4867 130.193C54.6543 129.892 54.7381 129.557 54.7381 129.188C54.7381 128.827 54.6571 128.499 54.4952 128.203C54.3361 127.905 54.1159 127.668 53.8347 127.491C53.5563 127.315 53.2381 127.227 52.8801 127.227C52.6103 127.227 52.3588 127.281 52.1259 127.389C51.8929 127.494 51.6884 127.639 51.5123 127.824C51.339 128.009 51.2026 128.22 51.1032 128.459C51.0037 128.695 50.954 128.943 50.954 129.205C50.954 129.551 51.035 129.875 51.1969 130.176C51.3617 130.477 51.5861 130.72 51.8702 130.905C52.1571 131.089 52.4824 131.182 52.8461 131.182Z" fill="black"/>
</svg>
