<svg width="320" height="186" viewBox="0 0 320 186" fill="none" xmlns="http://www.w3.org/2000/svg">
<circle cx="50" cy="136" r="49.5" fill="white" stroke="black"/>
<line x1="76.7333" y1="178.177" x2="306.733" y2="33.177" stroke="black"/>
<line x1="35.8479" y1="88.5237" x2="295.848" y2="5.52368" stroke="black"/>
<mask id="path-4-inside-1_283_166" fill="white">
<path d="M306.807 33.7441C310.481 32.0867 313.339 29.0117 314.753 25.1958C316.167 21.3799 316.02 17.1355 314.345 13.3964C312.671 9.65734 309.605 6.72983 305.823 5.25791C302.04 3.78599 297.851 3.89023 294.177 5.5477L294.62 6.53709C298.037 4.99594 301.932 4.89901 305.449 6.26764C308.965 7.63626 311.816 10.3583 313.373 13.835C314.93 17.3117 315.067 21.2582 313.752 24.8063C312.438 28.3545 309.78 31.2136 306.364 32.7548L306.807 33.7441Z"/>
</mask>
<path d="M306.807 33.7441C310.481 32.0867 313.339 29.0117 314.753 25.1958C316.167 21.3799 316.02 17.1355 314.345 13.3964C312.671 9.65734 309.605 6.72983 305.823 5.25791C302.04 3.78599 297.851 3.89023 294.177 5.5477L294.62 6.53709C298.037 4.99594 301.932 4.89901 305.449 6.26764C308.965 7.63626 311.816 10.3583 313.373 13.835C314.93 17.3117 315.067 21.2582 313.752 24.8063C312.438 28.3545 309.78 31.2136 306.364 32.7548L306.807 33.7441Z" fill="white" stroke="black" stroke-width="2" mask="url(#path-4-inside-1_283_166)"/>
<path d="M1 134L6 136.887L6 131.113L1 134ZM99 134L94 131.113L94 136.887L99 134ZM5.5 134L5.5 134.5L94.5 134.5L94.5 134L94.5 133.5L5.5 133.5L5.5 134Z" fill="black"/>
<path d="M47.5497 123.273V132H46.4929V124.381H46.4418L44.3111 125.795V124.722L46.4929 123.273H47.5497ZM50.0597 132V131.233L52.9403 128.08C53.2784 127.71 53.5568 127.389 53.7756 127.116C53.9943 126.841 54.1563 126.582 54.2614 126.341C54.3693 126.097 54.4233 125.841 54.4233 125.574C54.4233 125.267 54.3494 125.001 54.2017 124.777C54.0568 124.553 53.858 124.379 53.6051 124.257C53.3523 124.135 53.0682 124.074 52.7528 124.074C52.4176 124.074 52.125 124.143 51.875 124.283C51.6278 124.419 51.4361 124.611 51.2997 124.858C51.1662 125.105 51.0994 125.395 51.0994 125.727H50.0938C50.0938 125.216 50.2116 124.767 50.4474 124.381C50.6832 123.994 51.0043 123.693 51.4105 123.477C51.8196 123.261 52.2784 123.153 52.7869 123.153C53.2983 123.153 53.7514 123.261 54.1463 123.477C54.5412 123.693 54.8509 123.984 55.0753 124.351C55.2997 124.717 55.4119 125.125 55.4119 125.574C55.4119 125.895 55.3537 126.209 55.2372 126.516C55.1236 126.82 54.9247 127.159 54.6406 127.534C54.3594 127.906 53.9688 128.361 53.4688 128.898L51.5085 130.994V131.062H55.5653V132H50.0597Z" fill="black"/>
</svg>
