<svg width="320" height="186" viewBox="0 0 320 186" fill="none" xmlns="http://www.w3.org/2000/svg">
<circle cx="50" cy="136" r="49.5" fill="white" stroke="black"/>
<line x1="76.7333" y1="178.177" x2="306.733" y2="33.177" stroke="black"/>
<line x1="35.8479" y1="88.5237" x2="295.848" y2="5.52368" stroke="black"/>
<mask id="path-4-inside-1_283_166" fill="white">
<path d="M306.807 33.7441C310.481 32.0867 313.339 29.0117 314.753 25.1958C316.167 21.3799 316.02 17.1355 314.345 13.3964C312.671 9.65734 309.605 6.72983 305.823 5.25791C302.04 3.78599 297.851 3.89023 294.177 5.5477L294.62 6.53709C298.037 4.99594 301.932 4.89901 305.449 6.26764C308.965 7.63626 311.816 10.3583 313.373 13.835C314.93 17.3117 315.067 21.2582 313.752 24.8063C312.438 28.3545 309.78 31.2136 306.364 32.7548L306.807 33.7441Z"/>
</mask>
<path d="M306.807 33.7441C310.481 32.0867 313.339 29.0117 314.753 25.1958C316.167 21.3799 316.02 17.1355 314.345 13.3964C312.671 9.65734 309.605 6.72983 305.823 5.25791C302.04 3.78599 297.851 3.89023 294.177 5.5477L294.62 6.53709C298.037 4.99594 301.932 4.89901 305.449 6.26764C308.965 7.63626 311.816 10.3583 313.373 13.835C314.93 17.3117 315.067 21.2582 313.752 24.8063C312.438 28.3545 309.78 31.2136 306.364 32.7548L306.807 33.7441Z" fill="white" stroke="black" stroke-width="2" mask="url(#path-4-inside-1_283_166)"/>
<path d="M1 134L6 136.887L6 131.113L1 134ZM99 134L94 131.113L94 136.887L99 134ZM5.5 134L5.5 134.5L94.5 134.5L94.5 134L94.5 133.5L5.5 133.5L5.5 134Z" fill="black"/>
<path d="M50.0016 132.119C49.4164 132.119 48.8993 132.016 48.4505 131.808C48.0044 131.598 47.6564 131.31 47.4064 130.943C47.1564 130.574 47.0328 130.153 47.0357 129.682C47.0328 129.312 47.1053 128.972 47.253 128.659C47.4007 128.344 47.6025 128.081 47.8581 127.871C48.1167 127.658 48.405 127.523 48.7232 127.466V127.415C48.3056 127.307 47.9732 127.072 47.726 126.712C47.4789 126.348 47.3567 125.935 47.3596 125.472C47.3567 125.028 47.4689 124.632 47.6962 124.283C47.9235 123.933 48.236 123.658 48.6337 123.456C49.0343 123.254 49.4902 123.153 50.0016 123.153C50.5073 123.153 50.959 123.254 51.3567 123.456C51.7544 123.658 52.0669 123.933 52.2942 124.283C52.5243 124.632 52.6408 125.028 52.6436 125.472C52.6408 125.935 52.5144 126.348 52.2644 126.712C52.0172 127.072 51.6891 127.307 51.28 127.415V127.466C51.5953 127.523 51.8794 127.658 52.1323 127.871C52.3851 128.081 52.5868 128.344 52.7374 128.659C52.888 128.972 52.9647 129.312 52.9675 129.682C52.9647 130.153 52.8368 130.574 52.584 130.943C52.334 131.31 51.986 131.598 51.54 131.808C51.0968 132.016 50.584 132.119 50.0016 132.119ZM50.0016 131.182C50.3965 131.182 50.7374 131.118 51.0243 130.99C51.3113 130.862 51.5328 130.682 51.6891 130.449C51.8453 130.216 51.9249 129.943 51.9277 129.631C51.9249 129.301 51.8397 129.01 51.6721 128.757C51.5044 128.504 51.2757 128.305 50.986 128.161C50.699 128.016 50.3709 127.943 50.0016 127.943C49.6294 127.943 49.2971 128.016 49.0044 128.161C48.7147 128.305 48.486 128.504 48.3184 128.757C48.1536 129.01 48.0726 129.301 48.0755 129.631C48.0726 129.943 48.1479 130.216 48.3013 130.449C48.4576 130.682 48.6806 130.862 48.9703 130.99C49.2601 131.118 49.6039 131.182 50.0016 131.182ZM50.0016 127.04C50.3141 127.04 50.5911 126.977 50.8326 126.852C51.0769 126.727 51.2686 126.553 51.4078 126.328C51.5471 126.104 51.6181 125.841 51.6209 125.54C51.6181 125.244 51.5485 124.987 51.4121 124.768C51.2757 124.547 51.0868 124.376 50.8453 124.257C50.6039 124.135 50.3226 124.074 50.0016 124.074C49.6749 124.074 49.3894 124.135 49.1451 124.257C48.9007 124.376 48.7118 124.547 48.5783 124.768C48.4448 124.987 48.3794 125.244 48.3823 125.54C48.3794 125.841 48.4462 126.104 48.5826 126.328C48.7218 126.553 48.9135 126.727 49.1578 126.852C49.4022 126.977 49.6834 127.04 50.0016 127.04Z" fill="black"/>
</svg>
