<svg width="320" height="186" viewBox="0 0 320 186" fill="none" xmlns="http://www.w3.org/2000/svg">
<circle cx="50" cy="136" r="49.5" fill="white" stroke="black"/>
<line x1="76.7333" y1="178.177" x2="306.733" y2="33.177" stroke="black"/>
<line x1="35.8479" y1="88.5237" x2="295.848" y2="5.52368" stroke="black"/>
<mask id="path-4-inside-1_283_166" fill="white">
<path d="M306.807 33.7441C310.481 32.0867 313.339 29.0117 314.753 25.1958C316.167 21.3799 316.02 17.1355 314.345 13.3964C312.671 9.65734 309.605 6.72983 305.823 5.25791C302.04 3.78599 297.851 3.89023 294.177 5.5477L294.62 6.53709C298.037 4.99594 301.932 4.89901 305.449 6.26764C308.965 7.63626 311.816 10.3583 313.373 13.835C314.93 17.3117 315.067 21.2582 313.752 24.8063C312.438 28.3545 309.78 31.2136 306.364 32.7548L306.807 33.7441Z"/>
</mask>
<path d="M306.807 33.7441C310.481 32.0867 313.339 29.0117 314.753 25.1958C316.167 21.3799 316.02 17.1355 314.345 13.3964C312.671 9.65734 309.605 6.72983 305.823 5.25791C302.04 3.78599 297.851 3.89023 294.177 5.5477L294.62 6.53709C298.037 4.99594 301.932 4.89901 305.449 6.26764C308.965 7.63626 311.816 10.3583 313.373 13.835C314.93 17.3117 315.067 21.2582 313.752 24.8063C312.438 28.3545 309.78 31.2136 306.364 32.7548L306.807 33.7441Z" fill="white" stroke="black" stroke-width="2" mask="url(#path-4-inside-1_283_166)"/>
<path d="M1 134L6 136.887L6 131.113L1 134ZM99 134L94 131.113L94 136.887L99 134ZM5.5 134L5.5 134.5L94.5 134.5L94.5 134L94.5 133.5L5.5 133.5L5.5 134Z" fill="black"/>
<path d="M43.5206 132V131.233L46.4013 128.08C46.7393 127.71 47.0178 127.389 47.2365 127.116C47.4553 126.841 47.6172 126.582 47.7223 126.341C47.8303 126.097 47.8842 125.841 47.8842 125.574C47.8842 125.267 47.8104 125.001 47.6626 124.777C47.5178 124.553 47.3189 124.379 47.0661 124.257C46.8132 124.135 46.5291 124.074 46.2138 124.074C45.8786 124.074 45.5859 124.143 45.3359 124.283C45.0888 124.419 44.897 124.611 44.7607 124.858C44.6271 125.105 44.5604 125.395 44.5604 125.727H43.5547C43.5547 125.216 43.6726 124.767 43.9084 124.381C44.1442 123.994 44.4652 123.693 44.8714 123.477C45.2805 123.261 45.7393 123.153 46.2479 123.153C46.7592 123.153 47.2124 123.261 47.6072 123.477C48.0021 123.693 48.3118 123.984 48.5362 124.351C48.7607 124.717 48.8729 125.125 48.8729 125.574C48.8729 125.895 48.8146 126.209 48.6982 126.516C48.5845 126.82 48.3857 127.159 48.1016 127.534C47.8203 127.906 47.4297 128.361 46.9297 128.898L44.9695 130.994V131.062H49.0263V132H43.5206ZM53.6328 132.119C52.9908 132.119 52.4439 131.945 51.9922 131.595C51.5405 131.243 51.1953 130.733 50.9567 130.065C50.718 129.395 50.5987 128.585 50.5987 127.636C50.5987 126.693 50.718 125.888 50.9567 125.22C51.1982 124.55 51.5447 124.038 51.9964 123.686C52.451 123.331 52.9964 123.153 53.6328 123.153C54.2692 123.153 54.8132 123.331 55.2649 123.686C55.7195 124.038 56.0661 124.55 56.3047 125.22C56.5462 125.888 56.6669 126.693 56.6669 127.636C56.6669 128.585 56.5476 129.395 56.3089 130.065C56.0703 130.733 55.7251 131.243 55.2734 131.595C54.8217 131.945 54.2749 132.119 53.6328 132.119ZM53.6328 131.182C54.2692 131.182 54.7635 130.875 55.1158 130.261C55.468 129.648 55.6442 128.773 55.6442 127.636C55.6442 126.881 55.5632 126.237 55.4013 125.706C55.2422 125.175 55.0121 124.77 54.7109 124.491C54.4126 124.213 54.0533 124.074 53.6328 124.074C53.0021 124.074 52.5092 124.385 52.1541 125.007C51.799 125.626 51.6214 126.503 51.6214 127.636C51.6214 128.392 51.701 129.034 51.8601 129.562C52.0192 130.091 52.2479 130.493 52.5462 130.768C52.8473 131.044 53.2095 131.182 53.6328 131.182Z" fill="black"/>
</svg>
