<svg width="348" height="208" viewBox="0 0 348 208" fill="none" xmlns="http://www.w3.org/2000/svg">
<rect x="32.2294" y="82.3824" width="9.34081" height="50.1765" stroke="black"/>
<line x1="32.2294" y1="133.059" x2="32.2294" y2="181.165" stroke="black"/>
<line x1="31.7294" y1="181.688" x2="132.035" y2="181.688" stroke="black"/>
<line x1="131.501" y1="172.976" x2="131.501" y2="181.165" stroke="black"/>
<line x1="132.035" y1="173.476" x2="41.0361" y2="173.476" stroke="black"/>
<line x1="41.5361" y1="133.059" x2="41.5361" y2="172.976" stroke="black"/>
<line x1="326.506" y1="20.9941" x2="348" y2="20.9941" stroke="black"/>
<line x1="327.029" y1="20.4706" x2="327.029" stroke="black"/>
<line x1="41.7292" y1="173.559" x2="327.294" y2="21.0531" stroke="black"/>
<line x1="131.746" y1="173.592" x2="346.687" y2="21.0863" stroke="black"/>
<line x1="131.737" y1="181.787" x2="347.702" y2="21.093" stroke="black"/>
<line x1="31.5891" y1="82.0514" x2="326.664" y2="0.497159" stroke="black"/>
<line x1="40.8038" y1="82.4251" x2="327.392" y2="0.54277" stroke="black"/>
<line x1="32.2294" y1="182.188" x2="32.2294" y2="207.776" stroke="black"/>
<line x1="31.7294" y1="181.665" x2="5.11765" y2="181.665" stroke="black"/>
<line x1="31.7294" y1="82.3824" x2="5.11765" y2="82.3824" stroke="black"/>
<line x1="131.512" y1="182.188" x2="131.512" y2="207.776" stroke="black"/>
<path d="M32.7529 132.547L27.7529 129.66V135.434L32.7529 132.547ZM22.5176 133.047H28.2529V132.047H22.5176V133.047Z" fill="black"/>
<path d="M40.9412 132.547L45.9412 135.434V129.66L40.9412 132.547ZM61.4118 132.047H45.4412V133.047H61.4118V132.047Z" fill="black"/>
<path d="M14.3294 181.165L17.2162 176.165H11.4427L14.3294 181.165ZM14.3294 82.9059L11.4427 87.9059H17.2162L14.3294 82.9059ZM14.8294 176.665L14.8294 87.4059H13.8294L13.8294 176.665H14.8294Z" fill="black"/>
<path d="M32.7529 198.565L37.7529 201.451V195.678L32.7529 198.565ZM131.012 198.565L126.012 195.678V201.451L131.012 198.565ZM37.2529 199.065L126.512 199.065V198.065L37.2529 198.065V199.065Z" fill="black"/>
<path d="M74.393 194.446V193.576L78.2282 187.508H78.8589V188.855H78.4328L75.535 193.44V193.508H80.6998V194.446H74.393ZM78.5009 196.235V194.181V193.776V187.508H79.5066V196.235H78.5009ZM85.1433 196.355C84.5013 196.355 83.9544 196.18 83.5027 195.83C83.051 195.478 82.7058 194.968 82.4672 194.301C82.2286 193.63 82.1092 192.821 82.1092 191.872C82.1092 190.928 82.2286 190.123 82.4672 189.455C82.7087 188.785 83.0553 188.274 83.507 187.921C83.9615 187.566 84.507 187.389 85.1433 187.389C85.7797 187.389 86.3237 187.566 86.7754 187.921C87.23 188.274 87.5766 188.785 87.8152 189.455C88.0567 190.123 88.1774 190.928 88.1774 191.872C88.1774 192.821 88.0581 193.63 87.8195 194.301C87.5808 194.968 87.2357 195.478 86.784 195.83C86.3323 196.18 85.7854 196.355 85.1433 196.355ZM85.1433 195.417C85.7797 195.417 86.274 195.11 86.6263 194.497C86.9786 193.883 87.1547 193.008 87.1547 191.872C87.1547 191.116 87.0737 190.473 86.9118 189.941C86.7527 189.41 86.5226 189.005 86.2215 188.727C85.9232 188.448 85.5638 188.309 85.1433 188.309C84.5127 188.309 84.0198 188.62 83.6646 189.242C83.3095 189.862 83.132 190.738 83.132 191.872C83.132 192.627 83.2115 193.269 83.3706 193.798C83.5297 194.326 83.7584 194.728 84.0567 195.004C84.3578 195.279 84.72 195.417 85.1433 195.417Z" fill="black"/>
<path d="M52.9817 129.825C52.4192 129.825 51.9178 129.729 51.4774 129.535C51.0399 129.342 50.6919 129.074 50.4334 128.73C50.1777 128.383 50.0385 127.981 50.0158 127.524H51.0896C51.1124 127.805 51.209 128.048 51.3794 128.253C51.5499 128.454 51.7729 128.611 52.0484 128.721C52.324 128.832 52.6294 128.888 52.9646 128.888C53.3396 128.888 53.672 128.822 53.9618 128.692C54.2516 128.561 54.4788 128.379 54.6436 128.146C54.8084 127.913 54.8908 127.643 54.8908 127.337C54.8908 127.016 54.8112 126.733 54.6521 126.489C54.4931 126.241 54.2601 126.048 53.9533 125.909C53.6465 125.77 53.2715 125.7 52.8283 125.7H52.1294V124.763H52.8283C53.1749 124.763 53.4788 124.7 53.7402 124.575C54.0044 124.45 54.2104 124.274 54.3581 124.047C54.5087 123.82 54.584 123.552 54.584 123.246C54.584 122.95 54.5186 122.693 54.3879 122.474C54.2573 122.256 54.0726 122.085 53.834 121.963C53.5982 121.841 53.3198 121.78 52.9987 121.78C52.6976 121.78 52.4135 121.835 52.1465 121.946C51.8823 122.054 51.6663 122.212 51.4987 122.419C51.3311 122.623 51.2402 122.871 51.226 123.16H50.2033C50.2203 122.703 50.3581 122.302 50.6166 121.959C50.8752 121.612 51.2132 121.342 51.6308 121.149C52.0513 120.956 52.5129 120.859 53.0158 120.859C53.5556 120.859 54.0186 120.969 54.405 121.187C54.7913 121.403 55.0882 121.689 55.2956 122.044C55.503 122.399 55.6067 122.783 55.6067 123.195C55.6067 123.686 55.4774 124.105 55.2189 124.452C54.9632 124.798 54.6152 125.038 54.1749 125.172V125.24C54.726 125.331 55.1564 125.565 55.4661 125.943C55.7757 126.318 55.9306 126.783 55.9306 127.337C55.9306 127.811 55.8013 128.237 55.5428 128.615C55.2871 128.99 54.9377 129.285 54.4945 129.501C54.0513 129.717 53.547 129.825 52.9817 129.825Z" fill="black"/>
<path d="M10.2102 138.501H9.34091L3.27273 134.666V134.035H4.61932V134.461L9.20455 137.359H9.27273V132.194H10.2102V138.501ZM12 134.393H9.94602H9.54119H3.27273V133.387H12V134.393ZM12.1193 127.751C12.1193 128.393 11.9446 128.94 11.5952 129.391C11.2429 129.843 10.733 130.188 10.0653 130.427C9.39489 130.666 8.58523 130.785 7.63636 130.785C6.69318 130.785 5.88778 130.666 5.22017 130.427C4.54972 130.185 4.03835 129.839 3.68608 129.387C3.33097 128.933 3.15341 128.387 3.15341 127.751C3.15341 127.114 3.33097 126.57 3.68608 126.119C4.03835 125.664 4.54972 125.318 5.22017 125.079C5.88778 124.837 6.69318 124.717 7.63636 124.717C8.58523 124.717 9.39489 124.836 10.0653 125.075C10.733 125.313 11.2429 125.658 11.5952 126.11C11.9446 126.562 12.1193 127.109 12.1193 127.751ZM11.1818 127.751C11.1818 127.114 10.875 126.62 10.2614 126.268C9.64773 125.916 8.77273 125.739 7.63636 125.739C6.88068 125.739 6.23722 125.82 5.70597 125.982C5.17472 126.141 4.76989 126.372 4.49148 126.673C4.21307 126.971 4.07386 127.33 4.07386 127.751C4.07386 128.381 4.38494 128.874 5.0071 129.229C5.62642 129.585 6.50284 129.762 7.63636 129.762C8.39205 129.762 9.03409 129.683 9.5625 129.524C10.0909 129.364 10.4929 129.136 10.7685 128.837C11.044 128.536 11.1818 128.174 11.1818 127.751Z" fill="black"/>
</svg>
