<svg width="348" height="208" viewBox="0 0 348 208" fill="none" xmlns="http://www.w3.org/2000/svg">
<rect x="32.2294" y="82.3824" width="9.34081" height="50.1765" stroke="black"/>
<line x1="32.2294" y1="133.059" x2="32.2294" y2="181.165" stroke="black"/>
<line x1="31.7294" y1="181.688" x2="132.035" y2="181.688" stroke="black"/>
<line x1="131.501" y1="172.976" x2="131.501" y2="181.165" stroke="black"/>
<line x1="132.035" y1="173.476" x2="41.0361" y2="173.476" stroke="black"/>
<line x1="41.5361" y1="133.059" x2="41.5361" y2="172.976" stroke="black"/>
<line x1="326.506" y1="20.9941" x2="348" y2="20.9941" stroke="black"/>
<line x1="327.029" y1="20.4706" x2="327.029" stroke="black"/>
<line x1="41.7292" y1="173.559" x2="327.294" y2="21.0531" stroke="black"/>
<line x1="131.746" y1="173.592" x2="346.687" y2="21.0863" stroke="black"/>
<line x1="131.737" y1="181.787" x2="347.702" y2="21.093" stroke="black"/>
<line x1="31.5891" y1="82.0514" x2="326.664" y2="0.497159" stroke="black"/>
<line x1="40.8038" y1="82.4251" x2="327.392" y2="0.54277" stroke="black"/>
<line x1="32.2294" y1="182.188" x2="32.2294" y2="207.776" stroke="black"/>
<line x1="31.7294" y1="181.665" x2="5.11765" y2="181.665" stroke="black"/>
<line x1="31.7294" y1="82.3824" x2="5.11765" y2="82.3824" stroke="black"/>
<line x1="131.512" y1="182.188" x2="131.512" y2="207.776" stroke="black"/>
<path d="M32.7529 132.547L27.7529 129.66V135.434L32.7529 132.547ZM22.5176 133.047H28.2529V132.047H22.5176V133.047Z" fill="black"/>
<path d="M40.9412 132.547L45.9412 135.434V129.66L40.9412 132.547ZM61.4118 132.047H45.4412V133.047H61.4118V132.047Z" fill="black"/>
<path d="M14.3294 181.165L17.2162 176.165H11.4427L14.3294 181.165ZM14.3294 82.9059L11.4427 87.9059H17.2162L14.3294 82.9059ZM14.8294 176.665L14.8294 87.4059H13.8294L13.8294 176.665H14.8294Z" fill="black"/>
<path d="M32.7529 198.565L37.7529 201.451V195.678L32.7529 198.565ZM131.012 198.565L126.012 195.678V201.451L131.012 198.565ZM37.2529 199.065L126.512 199.065V198.065L37.2529 198.065V199.065Z" fill="black"/>
<path d="M74.5975 196.235V195.468L77.4782 192.315C77.8163 191.946 78.0947 191.624 78.3134 191.352C78.5322 191.076 78.6941 190.818 78.7992 190.576C78.9072 190.332 78.9612 190.076 78.9612 189.809C78.9612 189.502 78.8873 189.237 78.7396 189.012C78.5947 188.788 78.3958 188.615 78.143 188.492C77.8901 188.37 77.606 188.309 77.2907 188.309C76.9555 188.309 76.6629 188.379 76.4129 188.518C76.1657 188.654 75.9739 188.846 75.8376 189.093C75.7041 189.34 75.6373 189.63 75.6373 189.963H74.6316C74.6316 189.451 74.7495 189.002 74.9853 188.616C75.2211 188.23 75.5421 187.928 75.9484 187.713C76.3575 187.497 76.8163 187.389 77.3248 187.389C77.8362 187.389 78.2893 187.497 78.6842 187.713C79.0791 187.928 79.3887 188.22 79.6131 188.586C79.8376 188.953 79.9498 189.36 79.9498 189.809C79.9498 190.13 79.8916 190.444 79.7751 190.751C79.6614 191.055 79.4626 191.394 79.1785 191.769C78.8972 192.142 78.5066 192.596 78.0066 193.133L76.0464 195.23V195.298H80.1032V196.235H74.5975ZM84.5904 196.355C84.0904 196.355 83.6401 196.255 83.2396 196.056C82.839 195.857 82.518 195.585 82.2765 195.238C82.035 194.892 81.9029 194.497 81.8802 194.053H82.9029C82.9427 194.448 83.1217 194.775 83.4399 195.034C83.7609 195.289 84.1444 195.417 84.5904 195.417C84.9484 195.417 85.2666 195.333 85.545 195.166C85.8262 194.998 86.0464 194.768 86.2055 194.475C86.3674 194.18 86.4484 193.846 86.4484 193.474C86.4484 193.093 86.3646 192.754 86.197 192.455C86.0322 192.154 85.8049 191.917 85.5151 191.744C85.2254 191.571 84.8944 191.482 84.5222 191.48C84.2552 191.477 83.981 191.518 83.6998 191.603C83.4185 191.686 83.187 191.792 83.0052 191.923L82.0166 191.803L82.545 187.508H87.0791V188.446H83.4313L83.1245 191.019H83.1756C83.3546 190.877 83.5791 190.759 83.8489 190.666C84.1188 190.572 84.4001 190.525 84.6927 190.525C85.2268 190.525 85.7026 190.653 86.1203 190.909C86.5407 191.161 86.8703 191.508 87.1089 191.948C87.3504 192.389 87.4711 192.892 87.4711 193.457C87.4711 194.014 87.3461 194.511 87.0961 194.948C86.8489 195.383 86.508 195.727 86.0734 195.98C85.6387 196.23 85.1444 196.355 84.5904 196.355Z" fill="black"/>
<path d="M52.9817 129.825C52.4192 129.825 51.9178 129.729 51.4774 129.535C51.0399 129.342 50.6919 129.074 50.4334 128.73C50.1777 128.383 50.0385 127.981 50.0158 127.524H51.0896C51.1124 127.805 51.209 128.048 51.3794 128.253C51.5499 128.454 51.7729 128.611 52.0484 128.721C52.324 128.832 52.6294 128.888 52.9646 128.888C53.3396 128.888 53.672 128.822 53.9618 128.692C54.2516 128.561 54.4788 128.379 54.6436 128.146C54.8084 127.913 54.8908 127.643 54.8908 127.337C54.8908 127.016 54.8112 126.733 54.6521 126.489C54.4931 126.241 54.2601 126.048 53.9533 125.909C53.6465 125.77 53.2715 125.7 52.8283 125.7H52.1294V124.763H52.8283C53.1749 124.763 53.4788 124.7 53.7402 124.575C54.0044 124.45 54.2104 124.274 54.3581 124.047C54.5087 123.82 54.584 123.552 54.584 123.246C54.584 122.95 54.5186 122.693 54.3879 122.474C54.2573 122.256 54.0726 122.085 53.834 121.963C53.5982 121.841 53.3198 121.78 52.9987 121.78C52.6976 121.78 52.4135 121.835 52.1465 121.946C51.8823 122.054 51.6663 122.212 51.4987 122.419C51.3311 122.623 51.2402 122.871 51.226 123.16H50.2033C50.2203 122.703 50.3581 122.302 50.6166 121.959C50.8752 121.612 51.2132 121.342 51.6308 121.149C52.0513 120.956 52.5129 120.859 53.0158 120.859C53.5556 120.859 54.0186 120.969 54.405 121.187C54.7913 121.403 55.0882 121.689 55.2956 122.044C55.503 122.399 55.6067 122.783 55.6067 123.195C55.6067 123.686 55.4774 124.105 55.2189 124.452C54.9632 124.798 54.6152 125.038 54.1749 125.172V125.24C54.726 125.331 55.1564 125.565 55.4661 125.943C55.7757 126.318 55.9306 126.783 55.9306 127.337C55.9306 127.811 55.8013 128.237 55.5428 128.615C55.2871 128.99 54.9377 129.285 54.4945 129.501C54.0513 129.717 53.547 129.825 52.9817 129.825Z" fill="black"/>
<path d="M12 138.297H11.233L8.07955 135.416C7.71023 135.078 7.3892 134.799 7.11648 134.581C6.84091 134.362 6.58239 134.2 6.34091 134.095C6.09659 133.987 5.84091 133.933 5.57386 133.933C5.26705 133.933 5.00142 134.007 4.77699 134.155C4.55256 134.299 4.37926 134.498 4.2571 134.751C4.13494 135.004 4.07386 135.288 4.07386 135.603C4.07386 135.939 4.14347 136.231 4.28267 136.481C4.41903 136.728 4.6108 136.92 4.85795 137.057C5.10511 137.19 5.39489 137.257 5.72727 137.257V138.262C5.21591 138.262 4.76705 138.145 4.38068 137.909C3.99432 137.673 3.69318 137.352 3.47727 136.946C3.26136 136.537 3.15341 136.078 3.15341 135.569C3.15341 135.058 3.26136 134.605 3.47727 134.21C3.69318 133.815 3.98437 133.505 4.35085 133.281C4.71733 133.057 5.125 132.944 5.57386 132.944C5.89489 132.944 6.20881 133.003 6.51562 133.119C6.8196 133.233 7.15909 133.432 7.53409 133.716C7.90625 133.997 8.3608 134.387 8.89773 134.887L10.9943 136.848H11.0625V132.791H12V138.297ZM12.1193 128.304C12.1193 128.804 12.0199 129.254 11.821 129.655C11.6222 130.055 11.3494 130.376 11.0028 130.618C10.6562 130.859 10.2614 130.991 9.81818 131.014V129.991C10.2131 129.951 10.5398 129.772 10.7983 129.454C11.054 129.133 11.1818 128.75 11.1818 128.304C11.1818 127.946 11.098 127.628 10.9304 127.349C10.7628 127.068 10.5327 126.848 10.2401 126.689C9.9446 126.527 9.6108 126.446 9.23864 126.446C8.85795 126.446 8.51847 126.53 8.22017 126.697C7.91903 126.862 7.68182 127.089 7.50852 127.379C7.33523 127.669 7.24716 128 7.24432 128.372C7.24148 128.639 7.28267 128.913 7.3679 129.194C7.45028 129.476 7.55682 129.707 7.6875 129.889L7.56818 130.878L3.27273 130.349L3.27273 125.815H4.21023V129.463L6.78409 129.77V129.718C6.64205 129.539 6.52415 129.315 6.4304 129.045C6.33665 128.775 6.28977 128.494 6.28977 128.201C6.28977 127.667 6.41761 127.191 6.6733 126.774C6.92614 126.353 7.27273 126.024 7.71307 125.785C8.15341 125.544 8.65625 125.423 9.22159 125.423C9.77841 125.423 10.2756 125.548 10.7131 125.798C11.1477 126.045 11.4915 126.386 11.7443 126.821C11.9943 127.255 12.1193 127.75 12.1193 128.304Z" fill="black"/>
</svg>
