<svg width="348" height="208" viewBox="0 0 348 208" fill="none" xmlns="http://www.w3.org/2000/svg">
<rect x="32.2294" y="82.3824" width="9.34081" height="50.1765" stroke="black"/>
<line x1="32.2294" y1="133.059" x2="32.2294" y2="181.165" stroke="black"/>
<line x1="31.7294" y1="181.688" x2="132.035" y2="181.688" stroke="black"/>
<line x1="131.501" y1="172.976" x2="131.501" y2="181.165" stroke="black"/>
<line x1="132.035" y1="173.476" x2="41.0361" y2="173.476" stroke="black"/>
<line x1="41.5361" y1="133.059" x2="41.5361" y2="172.976" stroke="black"/>
<line x1="326.506" y1="20.9941" x2="348" y2="20.9941" stroke="black"/>
<line x1="327.029" y1="20.4706" x2="327.029" stroke="black"/>
<line x1="41.7292" y1="173.559" x2="327.294" y2="21.0531" stroke="black"/>
<line x1="131.746" y1="173.592" x2="346.687" y2="21.0863" stroke="black"/>
<line x1="131.737" y1="181.787" x2="347.702" y2="21.093" stroke="black"/>
<line x1="31.5891" y1="82.0514" x2="326.664" y2="0.497159" stroke="black"/>
<line x1="40.8038" y1="82.4251" x2="327.392" y2="0.54277" stroke="black"/>
<line x1="32.2294" y1="182.188" x2="32.2294" y2="207.776" stroke="black"/>
<line x1="31.7294" y1="181.665" x2="5.11765" y2="181.665" stroke="black"/>
<line x1="31.7294" y1="82.3824" x2="5.11765" y2="82.3824" stroke="black"/>
<line x1="131.512" y1="182.188" x2="131.512" y2="207.776" stroke="black"/>
<path d="M32.7529 132.547L27.7529 129.66V135.434L32.7529 132.547ZM22.5176 133.047H28.2529V132.047H22.5176V133.047Z" fill="black"/>
<path d="M40.9412 132.547L45.9412 135.434V129.66L40.9412 132.547ZM61.4118 132.047H45.4412V133.047H61.4118V132.047Z" fill="black"/>
<path d="M14.3294 181.165L17.2162 176.165H11.4427L14.3294 181.165ZM14.3294 82.9059L11.4427 87.9059H17.2162L14.3294 82.9059ZM14.8294 176.665L14.8294 87.4059H13.8294L13.8294 176.665H14.8294Z" fill="black"/>
<path d="M32.7529 198.565L37.7529 201.451V195.678L32.7529 198.565ZM131.012 198.565L126.012 195.678V201.451L131.012 198.565ZM37.2529 199.065L126.512 199.065V198.065L37.2529 198.065V199.065Z" fill="black"/>
<path d="M77.5464 196.355C76.9839 196.355 76.4825 196.258 76.0421 196.065C75.6046 195.872 75.2566 195.603 74.9981 195.259C74.7424 194.913 74.6032 194.511 74.5805 194.053H75.6543C75.6771 194.335 75.7737 194.578 75.9441 194.782C76.1146 194.984 76.3376 195.14 76.6131 195.251C76.8887 195.362 77.1941 195.417 77.5293 195.417C77.9043 195.417 78.2367 195.352 78.5265 195.221C78.8163 195.09 79.0435 194.909 79.2083 194.676C79.3731 194.443 79.4555 194.173 79.4555 193.866C79.4555 193.545 79.3759 193.262 79.2168 193.018C79.0578 192.771 78.8248 192.578 78.518 192.438C78.2112 192.299 77.8362 192.23 77.393 192.23H76.6941V191.292H77.393C77.7396 191.292 78.0435 191.23 78.3049 191.105C78.5691 190.98 78.7751 190.803 78.9228 190.576C79.0734 190.349 79.1487 190.082 79.1487 189.775C79.1487 189.48 79.0833 189.223 78.9526 189.004C78.822 188.785 78.6373 188.615 78.3987 188.492C78.1629 188.37 77.8845 188.309 77.5634 188.309C77.2623 188.309 76.9782 188.365 76.7112 188.475C76.447 188.583 76.231 188.741 76.0634 188.948C75.8958 189.153 75.8049 189.4 75.7907 189.69H74.768C74.785 189.232 74.9228 188.832 75.1813 188.488C75.4399 188.142 75.7779 187.872 76.1955 187.678C76.616 187.485 77.0776 187.389 77.5805 187.389C78.1203 187.389 78.5833 187.498 78.9697 187.717C79.356 187.933 79.6529 188.218 79.8603 188.573C80.0677 188.928 80.1714 189.312 80.1714 189.724C80.1714 190.215 80.0421 190.634 79.7836 190.981C79.5279 191.328 79.1799 191.568 78.7396 191.701V191.769C79.2907 191.86 79.7211 192.095 80.0308 192.473C80.3404 192.848 80.4953 193.312 80.4953 193.866C80.4953 194.34 80.366 194.767 80.1075 195.144C79.8518 195.519 79.5024 195.815 79.0592 196.031C78.616 196.247 78.1117 196.355 77.5464 196.355ZM84.9654 196.355C84.4654 196.355 84.0151 196.255 83.6146 196.056C83.214 195.857 82.893 195.585 82.6515 195.238C82.41 194.892 82.2779 194.497 82.2552 194.053H83.2779C83.3177 194.448 83.4967 194.775 83.8149 195.034C84.1359 195.289 84.5194 195.417 84.9654 195.417C85.3234 195.417 85.6416 195.333 85.92 195.166C86.2012 194.998 86.4214 194.768 86.5805 194.475C86.7424 194.18 86.8234 193.846 86.8234 193.474C86.8234 193.093 86.7396 192.754 86.572 192.455C86.4072 192.154 86.1799 191.917 85.8901 191.744C85.6004 191.571 85.2694 191.482 84.8972 191.48C84.6302 191.477 84.356 191.518 84.0748 191.603C83.7935 191.686 83.562 191.792 83.3802 191.923L82.3916 191.803L82.92 187.508H87.4541V188.446H83.8063L83.4995 191.019H83.5506C83.7296 190.877 83.9541 190.759 84.2239 190.666C84.4938 190.572 84.7751 190.525 85.0677 190.525C85.6018 190.525 86.0776 190.653 86.4953 190.909C86.9157 191.161 87.2453 191.508 87.4839 191.948C87.7254 192.389 87.8461 192.892 87.8461 193.457C87.8461 194.014 87.7211 194.511 87.4711 194.948C87.2239 195.383 86.883 195.727 86.4484 195.98C86.0137 196.23 85.5194 196.355 84.9654 196.355Z" fill="black"/>
<path d="M52.9817 129.825C52.4192 129.825 51.9178 129.729 51.4774 129.535C51.0399 129.342 50.6919 129.074 50.4334 128.73C50.1777 128.383 50.0385 127.981 50.0158 127.524H51.0896C51.1124 127.805 51.209 128.048 51.3794 128.253C51.5499 128.454 51.7729 128.611 52.0484 128.721C52.324 128.832 52.6294 128.888 52.9646 128.888C53.3396 128.888 53.672 128.822 53.9618 128.692C54.2516 128.561 54.4788 128.379 54.6436 128.146C54.8084 127.913 54.8908 127.643 54.8908 127.337C54.8908 127.016 54.8112 126.733 54.6521 126.489C54.4931 126.241 54.2601 126.048 53.9533 125.909C53.6465 125.77 53.2715 125.7 52.8283 125.7H52.1294V124.763H52.8283C53.1749 124.763 53.4788 124.7 53.7402 124.575C54.0044 124.45 54.2104 124.274 54.3581 124.047C54.5087 123.82 54.584 123.552 54.584 123.246C54.584 122.95 54.5186 122.693 54.3879 122.474C54.2573 122.256 54.0726 122.085 53.834 121.963C53.5982 121.841 53.3198 121.78 52.9987 121.78C52.6976 121.78 52.4135 121.835 52.1465 121.946C51.8823 122.054 51.6663 122.212 51.4987 122.419C51.3311 122.623 51.2402 122.871 51.226 123.16H50.2033C50.2203 122.703 50.3581 122.302 50.6166 121.959C50.8752 121.612 51.2132 121.342 51.6308 121.149C52.0513 120.956 52.5129 120.859 53.0158 120.859C53.5556 120.859 54.0186 120.969 54.405 121.187C54.7913 121.403 55.0882 121.689 55.2956 122.044C55.503 122.399 55.6067 122.783 55.6067 123.195C55.6067 123.686 55.4774 124.105 55.2189 124.452C54.9632 124.798 54.6152 125.038 54.1749 125.172V125.24C54.726 125.331 55.1564 125.565 55.4661 125.943C55.7757 126.318 55.9306 126.783 55.9306 127.337C55.9306 127.811 55.8013 128.237 55.5428 128.615C55.2871 128.99 54.9377 129.285 54.4945 129.501C54.0513 129.717 53.547 129.825 52.9817 129.825Z" fill="black"/>
<path d="M12.1193 135.348C12.1193 135.91 12.0227 136.412 11.8295 136.852C11.6364 137.289 11.3679 137.637 11.0241 137.896C10.6776 138.152 10.2756 138.291 9.81818 138.314V137.24C10.0994 137.217 10.3423 137.12 10.5469 136.95C10.7486 136.78 10.9048 136.557 11.0156 136.281C11.1264 136.005 11.1818 135.7 11.1818 135.365C11.1818 134.99 11.1165 134.657 10.9858 134.368C10.8551 134.078 10.6733 133.851 10.4403 133.686C10.2074 133.521 9.9375 133.439 9.63068 133.439C9.30966 133.439 9.02699 133.518 8.78267 133.677C8.53551 133.836 8.34233 134.069 8.20312 134.376C8.06392 134.683 7.99432 135.058 7.99432 135.501V136.2H7.05682V135.501C7.05682 135.155 6.99432 134.851 6.86932 134.589C6.74432 134.325 6.56818 134.119 6.34091 133.971C6.11364 133.821 5.84659 133.745 5.53977 133.745C5.24432 133.745 4.98722 133.811 4.76847 133.941C4.54972 134.072 4.37926 134.257 4.2571 134.495C4.13494 134.731 4.07386 135.01 4.07386 135.331C4.07386 135.632 4.12926 135.916 4.24006 136.183C4.34801 136.447 4.50568 136.663 4.71307 136.831C4.91761 136.998 5.16477 137.089 5.45455 137.103V138.126C4.99716 138.109 4.59659 137.971 4.25284 137.713C3.90625 137.454 3.63636 137.116 3.44318 136.699C3.25 136.278 3.15341 135.816 3.15341 135.314C3.15341 134.774 3.26278 134.311 3.48153 133.924C3.69744 133.538 3.98295 133.241 4.33807 133.034C4.69318 132.826 5.0767 132.723 5.48864 132.723C5.98011 132.723 6.39915 132.852 6.74574 133.111C7.09233 133.366 7.33239 133.714 7.46591 134.155H7.53409C7.625 133.603 7.85937 133.173 8.23722 132.863C8.61222 132.554 9.0767 132.399 9.63068 132.399C10.1051 132.399 10.5312 132.528 10.9091 132.787C11.2841 133.042 11.5795 133.392 11.7955 133.835C12.0114 134.278 12.1193 134.782 12.1193 135.348ZM12.1193 127.929C12.1193 128.429 12.0199 128.879 11.821 129.28C11.6222 129.68 11.3494 130.001 11.0028 130.243C10.6562 130.484 10.2614 130.616 9.81818 130.639V129.616C10.2131 129.576 10.5398 129.397 10.7983 129.079C11.054 128.758 11.1818 128.375 11.1818 127.929C11.1818 127.571 11.098 127.253 10.9304 126.974C10.7628 126.693 10.5327 126.473 10.2401 126.314C9.9446 126.152 9.6108 126.071 9.23864 126.071C8.85795 126.071 8.51847 126.155 8.22017 126.322C7.91903 126.487 7.68182 126.714 7.50852 127.004C7.33523 127.294 7.24716 127.625 7.24432 127.997C7.24148 128.264 7.28267 128.538 7.3679 128.819C7.45028 129.101 7.55682 129.332 7.6875 129.514L7.56818 130.503L3.27273 129.974L3.27273 125.44H4.21023V129.088L6.78409 129.395V129.343C6.64205 129.164 6.52415 128.94 6.4304 128.67C6.33665 128.4 6.28977 128.119 6.28977 127.826C6.28977 127.292 6.41761 126.816 6.6733 126.399C6.92614 125.978 7.27273 125.649 7.71307 125.41C8.15341 125.169 8.65625 125.048 9.22159 125.048C9.77841 125.048 10.2756 125.173 10.7131 125.423C11.1477 125.67 11.4915 126.011 11.7443 126.446C11.9943 126.88 12.1193 127.375 12.1193 127.929Z" fill="black"/>
</svg>
