<svg width="348" height="208" viewBox="0 0 348 208" fill="none" xmlns="http://www.w3.org/2000/svg">
<rect x="32.2294" y="82.3824" width="9.34081" height="50.1765" stroke="black"/>
<line x1="32.2294" y1="133.059" x2="32.2294" y2="181.165" stroke="black"/>
<line x1="31.7294" y1="181.688" x2="132.035" y2="181.688" stroke="black"/>
<line x1="131.501" y1="172.976" x2="131.501" y2="181.165" stroke="black"/>
<line x1="132.035" y1="173.476" x2="41.0361" y2="173.476" stroke="black"/>
<line x1="41.5361" y1="133.059" x2="41.5361" y2="172.976" stroke="black"/>
<line x1="326.506" y1="20.9941" x2="348" y2="20.9941" stroke="black"/>
<line x1="327.029" y1="20.4706" x2="327.029" stroke="black"/>
<line x1="41.7292" y1="173.559" x2="327.294" y2="21.0531" stroke="black"/>
<line x1="131.746" y1="173.592" x2="346.687" y2="21.0863" stroke="black"/>
<line x1="131.737" y1="181.787" x2="347.702" y2="21.093" stroke="black"/>
<line x1="31.5891" y1="82.0514" x2="326.664" y2="0.497159" stroke="black"/>
<line x1="40.8038" y1="82.4251" x2="327.392" y2="0.54277" stroke="black"/>
<line x1="32.2294" y1="182.188" x2="32.2294" y2="207.776" stroke="black"/>
<line x1="31.7294" y1="181.665" x2="5.11765" y2="181.665" stroke="black"/>
<line x1="31.7294" y1="82.3824" x2="5.11765" y2="82.3824" stroke="black"/>
<line x1="131.512" y1="182.188" x2="131.512" y2="207.776" stroke="black"/>
<path d="M32.7529 132.547L27.7529 129.66V135.434L32.7529 132.547ZM22.5176 133.047H28.2529V132.047H22.5176V133.047Z" fill="black"/>
<path d="M40.9412 132.547L45.9412 135.434V129.66L40.9412 132.547ZM61.4118 132.047H45.4412V133.047H61.4118V132.047Z" fill="black"/>
<path d="M14.3294 181.165L17.2162 176.165H11.4427L14.3294 181.165ZM14.3294 82.9059L11.4427 87.9059H17.2162L14.3294 82.9059ZM14.8294 176.665L14.8294 87.4059H13.8294L13.8294 176.665H14.8294Z" fill="black"/>
<path d="M32.7529 198.565L37.7529 201.451V195.678L32.7529 198.565ZM131.012 198.565L126.012 195.678V201.451L131.012 198.565ZM37.2529 199.065L126.512 199.065V198.065L37.2529 198.065V199.065Z" fill="black"/>
<path d="M74.393 194.446V193.576L78.2282 187.508H78.8589V188.855H78.4328L75.535 193.44V193.508H80.6998V194.446H74.393ZM78.5009 196.235V194.181V193.776V187.508H79.5066V196.235H78.5009ZM85.024 196.355C84.524 196.355 84.0737 196.255 83.6732 196.056C83.2726 195.857 82.9516 195.585 82.7101 195.238C82.4686 194.892 82.3365 194.497 82.3138 194.053H83.3365C83.3763 194.448 83.5553 194.775 83.8734 195.034C84.1945 195.289 84.578 195.417 85.024 195.417C85.382 195.417 85.7002 195.333 85.9786 195.166C86.2598 194.998 86.48 194.768 86.6391 194.475C86.801 194.18 86.882 193.846 86.882 193.474C86.882 193.093 86.7982 192.754 86.6305 192.455C86.4658 192.154 86.2385 191.917 85.9487 191.744C85.659 191.571 85.328 191.482 84.9558 191.48C84.6888 191.477 84.4146 191.518 84.1334 191.603C83.8521 191.686 83.6206 191.792 83.4388 191.923L82.4502 191.803L82.9786 187.508H87.5127V188.446H83.8649L83.5581 191.019H83.6092C83.7882 190.877 84.0127 190.759 84.2825 190.666C84.5524 190.572 84.8337 190.525 85.1263 190.525C85.6604 190.525 86.1362 190.653 86.5538 190.909C86.9743 191.161 87.3038 191.508 87.5425 191.948C87.784 192.389 87.9047 192.892 87.9047 193.457C87.9047 194.014 87.7797 194.511 87.5297 194.948C87.2825 195.383 86.9416 195.727 86.507 195.98C86.0723 196.23 85.578 196.355 85.024 196.355Z" fill="black"/>
<path d="M52.9817 129.825C52.4192 129.825 51.9178 129.729 51.4774 129.535C51.0399 129.342 50.6919 129.074 50.4334 128.73C50.1777 128.383 50.0385 127.981 50.0158 127.524H51.0896C51.1124 127.805 51.209 128.048 51.3794 128.253C51.5499 128.454 51.7729 128.611 52.0484 128.721C52.324 128.832 52.6294 128.888 52.9646 128.888C53.3396 128.888 53.672 128.822 53.9618 128.692C54.2516 128.561 54.4788 128.379 54.6436 128.146C54.8084 127.913 54.8908 127.643 54.8908 127.337C54.8908 127.016 54.8112 126.733 54.6521 126.489C54.4931 126.241 54.2601 126.048 53.9533 125.909C53.6465 125.77 53.2715 125.7 52.8283 125.7H52.1294V124.763H52.8283C53.1749 124.763 53.4788 124.7 53.7402 124.575C54.0044 124.45 54.2104 124.274 54.3581 124.047C54.5087 123.82 54.584 123.552 54.584 123.246C54.584 122.95 54.5186 122.693 54.3879 122.474C54.2573 122.256 54.0726 122.085 53.834 121.963C53.5982 121.841 53.3198 121.78 52.9987 121.78C52.6976 121.78 52.4135 121.835 52.1465 121.946C51.8823 122.054 51.6663 122.212 51.4987 122.419C51.3311 122.623 51.2402 122.871 51.226 123.16H50.2033C50.2203 122.703 50.3581 122.302 50.6166 121.959C50.8752 121.612 51.2132 121.342 51.6308 121.149C52.0513 120.956 52.5129 120.859 53.0158 120.859C53.5556 120.859 54.0186 120.969 54.405 121.187C54.7913 121.403 55.0882 121.689 55.2956 122.044C55.503 122.399 55.6067 122.783 55.6067 123.195C55.6067 123.686 55.4774 124.105 55.2189 124.452C54.9632 124.798 54.6152 125.038 54.1749 125.172V125.24C54.726 125.331 55.1564 125.565 55.4661 125.943C55.7757 126.318 55.9306 126.783 55.9306 127.337C55.9306 127.811 55.8013 128.237 55.5428 128.615C55.2871 128.99 54.9377 129.285 54.4945 129.501C54.0513 129.717 53.547 129.825 52.9817 129.825Z" fill="black"/>
<path d="M10.2102 138.501H9.34091L3.27273 134.666V134.035H4.61932V134.461L9.20455 137.359H9.27273V132.194H10.2102V138.501ZM12 134.393H9.94602H9.54119H3.27273V133.387H12V134.393ZM12.1193 127.87C12.1193 128.37 12.0199 128.82 11.821 129.221C11.6222 129.622 11.3494 129.943 11.0028 130.184C10.6562 130.425 10.2614 130.558 9.81818 130.58V129.558C10.2131 129.518 10.5398 129.339 10.7983 129.021C11.054 128.7 11.1818 128.316 11.1818 127.87C11.1818 127.512 11.098 127.194 10.9304 126.916C10.7628 126.634 10.5327 126.414 10.2401 126.255C9.9446 126.093 9.6108 126.012 9.23864 126.012C8.85795 126.012 8.51847 126.096 8.22017 126.264C7.91903 126.428 7.68182 126.656 7.50852 126.945C7.33523 127.235 7.24716 127.566 7.24432 127.938C7.24148 128.205 7.28267 128.479 7.3679 128.761C7.45028 129.042 7.55682 129.274 7.6875 129.455L7.56818 130.444L3.27273 129.916L3.27273 125.381H4.21023V129.029L6.78409 129.336V129.285C6.64205 129.106 6.52415 128.881 6.4304 128.612C6.33665 128.342 6.28977 128.06 6.28977 127.768C6.28977 127.234 6.41761 126.758 6.6733 126.34C6.92614 125.92 7.27273 125.59 7.71307 125.352C8.15341 125.11 8.65625 124.989 9.22159 124.989C9.77841 124.989 10.2756 125.114 10.7131 125.364C11.1477 125.612 11.4915 125.952 11.7443 126.387C11.9943 126.822 12.1193 127.316 12.1193 127.87Z" fill="black"/>
</svg>
