<svg width="320" height="186" viewBox="0 0 320 186" fill="none" xmlns="http://www.w3.org/2000/svg">
<circle cx="50" cy="136" r="49.5" fill="white" stroke="black"/>
<line x1="76.7333" y1="178.177" x2="306.733" y2="33.177" stroke="black"/>
<line x1="35.8479" y1="88.5237" x2="295.848" y2="5.52368" stroke="black"/>
<circle cx="50" cy="136" r="39.5" fill="white" stroke="black"/>
<mask id="path-5-inside-1_280_94" fill="white">
<path d="M306.807 33.7441C310.481 32.0867 313.339 29.0117 314.753 25.1958C316.167 21.3799 316.02 17.1355 314.345 13.3964C312.671 9.65734 309.605 6.72983 305.823 5.25791C302.04 3.78599 297.851 3.89023 294.177 5.5477L294.62 6.53709C298.037 4.99594 301.932 4.89901 305.449 6.26764C308.965 7.63626 311.816 10.3583 313.373 13.835C314.93 17.3117 315.067 21.2582 313.752 24.8063C312.438 28.3545 309.78 31.2136 306.364 32.7548L306.807 33.7441Z"/>
</mask>
<path d="M306.807 33.7441C310.481 32.0867 313.339 29.0117 314.753 25.1958C316.167 21.3799 316.02 17.1355 314.345 13.3964C312.671 9.65734 309.605 6.72983 305.823 5.25791C302.04 3.78599 297.851 3.89023 294.177 5.5477L294.62 6.53709C298.037 4.99594 301.932 4.89901 305.449 6.26764C308.965 7.63626 311.816 10.3583 313.373 13.835C314.93 17.3117 315.067 21.2582 313.752 24.8063C312.438 28.3545 309.78 31.2136 306.364 32.7548L306.807 33.7441Z" fill="white" stroke="black" stroke-width="2" mask="url(#path-5-inside-1_280_94)"/>
<path d="M11 138L16 140.887L16 135.113L11 138ZM89 138L84 135.113L84 140.887L89 138ZM15.5 138L15.5 138.5L84.5 138.5L84.5 138L84.5 137.5L15.5 137.5L15.5 138Z" fill="black"/>
<path d="M43.788 127.273V136H42.7312V128.381H42.68L40.5494 129.795V128.722L42.7312 127.273H43.788ZM49.0252 136.119C48.5252 136.119 48.0749 136.02 47.6744 135.821C47.2738 135.622 46.9528 135.349 46.7113 135.003C46.4698 134.656 46.3377 134.261 46.315 133.818H47.3377C47.3775 134.213 47.5565 134.54 47.8746 134.798C48.1957 135.054 48.5792 135.182 49.0252 135.182C49.3832 135.182 49.7013 135.098 49.9798 134.93C50.261 134.763 50.4812 134.533 50.6403 134.24C50.8022 133.945 50.8832 133.611 50.8832 133.239C50.8832 132.858 50.7994 132.518 50.6317 132.22C50.467 131.919 50.2397 131.682 49.9499 131.509C49.6602 131.335 49.3292 131.247 48.957 131.244C48.69 131.241 48.4158 131.283 48.1346 131.368C47.8533 131.45 47.6218 131.557 47.44 131.688L46.4513 131.568L46.9798 127.273H51.5138V128.21H47.8661L47.5593 130.784H47.6104C47.7894 130.642 48.0138 130.524 48.2837 130.43C48.5536 130.337 48.8349 130.29 49.1275 130.29C49.6616 130.29 50.1374 130.418 50.555 130.673C50.9755 130.926 51.305 131.273 51.5437 131.713C51.7852 132.153 51.9059 132.656 51.9059 133.222C51.9059 133.778 51.7809 134.276 51.5309 134.713C51.2837 135.148 50.9428 135.491 50.5082 135.744C50.0735 135.994 49.5792 136.119 49.0252 136.119ZM56.3771 127.153C56.7351 127.156 57.093 127.224 57.451 127.358C57.8089 127.491 58.1357 127.713 58.4311 128.023C58.7266 128.33 58.9638 128.749 59.1428 129.28C59.3217 129.811 59.4112 130.477 59.4112 131.278C59.4112 132.054 59.3374 132.743 59.1896 133.345C59.0447 133.945 58.8345 134.45 58.5589 134.862C58.2862 135.274 57.9538 135.587 57.5618 135.8C57.1726 136.013 56.7322 136.119 56.2408 136.119C55.7521 136.119 55.3161 136.023 54.9325 135.83C54.5518 135.634 54.2393 135.362 53.995 135.016C53.7536 134.666 53.5987 134.261 53.5305 133.801H54.5703C54.6641 134.202 54.8501 134.533 55.1286 134.794C55.4098 135.053 55.7805 135.182 56.2408 135.182C56.9141 135.182 57.4453 134.888 57.8345 134.3C58.2266 133.712 58.4226 132.881 58.4226 131.807H58.3544C58.1953 132.045 58.0064 132.251 57.7876 132.425C57.5689 132.598 57.326 132.732 57.0589 132.825C56.7919 132.919 56.5078 132.966 56.2067 132.966C55.7067 132.966 55.2479 132.842 54.8303 132.595C54.4155 132.345 54.0831 132.003 53.8331 131.568C53.5859 131.131 53.4624 130.631 53.4624 130.068C53.4624 129.534 53.5817 129.045 53.8203 128.602C54.0618 128.156 54.3999 127.801 54.8345 127.537C55.272 127.273 55.7862 127.145 56.3771 127.153ZM56.3771 128.091C56.0192 128.091 55.6967 128.18 55.4098 128.359C55.1257 128.536 54.8999 128.774 54.7322 129.075C54.5675 129.374 54.4851 129.705 54.4851 130.068C54.4851 130.432 54.5646 130.763 54.7237 131.061C54.8857 131.357 55.1058 131.592 55.3842 131.768C55.6655 131.942 55.9851 132.028 56.343 132.028C56.6129 132.028 56.8643 131.976 57.0973 131.871C57.3303 131.763 57.5334 131.616 57.7067 131.432C57.8828 131.244 58.0206 131.033 58.12 130.797C58.2195 130.558 58.2692 130.31 58.2692 130.051C58.2692 129.71 58.1868 129.391 58.022 129.092C57.8601 128.794 57.6357 128.553 57.3487 128.368C57.0646 128.183 56.7408 128.091 56.3771 128.091Z" fill="black"/>
</svg>
