<svg width="320" height="186" viewBox="0 0 320 186" fill="none" xmlns="http://www.w3.org/2000/svg">
<circle cx="50" cy="136" r="49.5" fill="white" stroke="black"/>
<line x1="76.7333" y1="178.177" x2="306.733" y2="33.177" stroke="black"/>
<line x1="35.8479" y1="88.5237" x2="295.848" y2="5.52368" stroke="black"/>
<circle cx="50" cy="136" r="39.5" fill="white" stroke="black"/>
<mask id="path-5-inside-1_280_94" fill="white">
<path d="M306.807 33.7441C310.481 32.0867 313.339 29.0117 314.753 25.1958C316.167 21.3799 316.02 17.1355 314.345 13.3964C312.671 9.65734 309.605 6.72983 305.823 5.25791C302.04 3.78599 297.851 3.89023 294.177 5.5477L294.62 6.53709C298.037 4.99594 301.932 4.89901 305.449 6.26764C308.965 7.63626 311.816 10.3583 313.373 13.835C314.93 17.3117 315.067 21.2582 313.752 24.8063C312.438 28.3545 309.78 31.2136 306.364 32.7548L306.807 33.7441Z"/>
</mask>
<path d="M306.807 33.7441C310.481 32.0867 313.339 29.0117 314.753 25.1958C316.167 21.3799 316.02 17.1355 314.345 13.3964C312.671 9.65734 309.605 6.72983 305.823 5.25791C302.04 3.78599 297.851 3.89023 294.177 5.5477L294.62 6.53709C298.037 4.99594 301.932 4.89901 305.449 6.26764C308.965 7.63626 311.816 10.3583 313.373 13.835C314.93 17.3117 315.067 21.2582 313.752 24.8063C312.438 28.3545 309.78 31.2136 306.364 32.7548L306.807 33.7441Z" fill="white" stroke="black" stroke-width="2" mask="url(#path-5-inside-1_280_94)"/>
<path d="M11 138L16 140.887L16 135.113L11 138ZM89 138L84 135.113L84 140.887L89 138ZM15.5 138L15.5 138.5L84.5 138.5L84.5 138L84.5 137.5L15.5 137.5L15.5 138Z" fill="black"/>
<path d="M47.5321 127.273V136H46.4753V128.381H46.4242L44.2935 129.795V128.722L46.4753 127.273H47.5321ZM52.7694 136.119C52.2694 136.119 51.8191 136.02 51.4185 135.821C51.0179 135.622 50.6969 135.349 50.4554 135.003C50.214 134.656 50.0819 134.261 50.0591 133.818H51.0819C51.1216 134.213 51.3006 134.54 51.6188 134.798C51.9398 135.054 52.3233 135.182 52.7694 135.182C53.1273 135.182 53.4455 135.098 53.7239 134.93C54.0051 134.763 54.2253 134.533 54.3844 134.24C54.5463 133.945 54.6273 133.611 54.6273 133.239C54.6273 132.858 54.5435 132.518 54.3759 132.22C54.2111 131.919 53.9838 131.682 53.6941 131.509C53.4043 131.335 53.0733 131.247 52.7012 131.244C52.4341 131.241 52.16 131.283 51.8787 131.368C51.5975 131.45 51.3659 131.557 51.1841 131.688L50.1955 131.568L50.7239 127.273H55.258V128.21H51.6103L51.3034 130.784H51.3546C51.5336 130.642 51.758 130.524 52.0279 130.43C52.2978 130.337 52.579 130.29 52.8716 130.29C53.4057 130.29 53.8816 130.418 54.2992 130.673C54.7196 130.926 55.0492 131.273 55.2878 131.713C55.5293 132.153 55.65 132.656 55.65 133.222C55.65 133.778 55.525 134.276 55.275 134.713C55.0279 135.148 54.687 135.491 54.2523 135.744C53.8176 135.994 53.3233 136.119 52.7694 136.119Z" fill="black"/>
</svg>
