<svg width="320" height="186" viewBox="0 0 320 186" fill="none" xmlns="http://www.w3.org/2000/svg">
<circle cx="50" cy="136" r="49.5" fill="white" stroke="black"/>
<line x1="76.7333" y1="178.177" x2="306.733" y2="33.177" stroke="black"/>
<line x1="35.8479" y1="88.5237" x2="295.848" y2="5.52368" stroke="black"/>
<circle cx="50" cy="136" r="39.5" fill="white" stroke="black"/>
<mask id="path-5-inside-1_280_94" fill="white">
<path d="M306.807 33.7441C310.481 32.0867 313.339 29.0117 314.753 25.1958C316.167 21.3799 316.02 17.1355 314.345 13.3964C312.671 9.65734 309.605 6.72983 305.823 5.25791C302.04 3.78599 297.851 3.89023 294.177 5.5477L294.62 6.53709C298.037 4.99594 301.932 4.89901 305.449 6.26764C308.965 7.63626 311.816 10.3583 313.373 13.835C314.93 17.3117 315.067 21.2582 313.752 24.8063C312.438 28.3545 309.78 31.2136 306.364 32.7548L306.807 33.7441Z"/>
</mask>
<path d="M306.807 33.7441C310.481 32.0867 313.339 29.0117 314.753 25.1958C316.167 21.3799 316.02 17.1355 314.345 13.3964C312.671 9.65734 309.605 6.72983 305.823 5.25791C302.04 3.78599 297.851 3.89023 294.177 5.5477L294.62 6.53709C298.037 4.99594 301.932 4.89901 305.449 6.26764C308.965 7.63626 311.816 10.3583 313.373 13.835C314.93 17.3117 315.067 21.2582 313.752 24.8063C312.438 28.3545 309.78 31.2136 306.364 32.7548L306.807 33.7441Z" fill="white" stroke="black" stroke-width="2" mask="url(#path-5-inside-1_280_94)"/>
<path d="M11 138L16 140.887L16 135.113L11 138ZM89 138L84 135.113L84 140.887L89 138ZM15.5 138L15.5 138.5L84.5 138.5L84.5 138L84.5 137.5L15.5 137.5L15.5 138Z" fill="black"/>
<path d="M43.0993 134.21V133.341L46.9345 127.273H47.5652V128.619H47.139L44.2413 133.205V133.273H49.4061V134.21H43.0993ZM47.2072 136V133.946V133.541V127.273H48.2129V136H47.2072ZM53.8496 136.119C53.2076 136.119 52.6607 135.945 52.209 135.595C51.7573 135.243 51.4121 134.733 51.1735 134.065C50.9348 133.395 50.8155 132.585 50.8155 131.636C50.8155 130.693 50.9348 129.888 51.1735 129.22C51.415 128.55 51.7615 128.038 52.2132 127.686C52.6678 127.331 53.2132 127.153 53.8496 127.153C54.486 127.153 55.03 127.331 55.4817 127.686C55.9363 128.038 56.2828 128.55 56.5215 129.22C56.763 129.888 56.8837 130.693 56.8837 131.636C56.8837 132.585 56.7644 133.395 56.5257 134.065C56.2871 134.733 55.9419 135.243 55.4902 135.595C55.0385 135.945 54.4917 136.119 53.8496 136.119ZM53.8496 135.182C54.486 135.182 54.9803 134.875 55.3326 134.261C55.6848 133.648 55.861 132.773 55.861 131.636C55.861 130.881 55.78 130.237 55.6181 129.706C55.459 129.175 55.2289 128.77 54.9277 128.491C54.6294 128.213 54.2701 128.074 53.8496 128.074C53.2189 128.074 52.726 128.385 52.3709 129.007C52.0158 129.626 51.8382 130.503 51.8382 131.636C51.8382 132.392 51.9178 133.034 52.0769 133.562C52.236 134.091 52.4647 134.493 52.763 134.768C53.0641 135.044 53.4263 135.182 53.8496 135.182Z" fill="black"/>
</svg>
