<svg width="320" height="186" viewBox="0 0 320 186" fill="none" xmlns="http://www.w3.org/2000/svg">
<circle cx="50" cy="136" r="49.5" fill="white" stroke="black"/>
<line x1="76.7333" y1="178.177" x2="306.733" y2="33.177" stroke="black"/>
<line x1="35.8479" y1="88.5237" x2="295.848" y2="5.52368" stroke="black"/>
<circle cx="50" cy="136" r="39.5" fill="white" stroke="black"/>
<mask id="path-5-inside-1_280_94" fill="white">
<path d="M306.807 33.7441C310.481 32.0867 313.339 29.0117 314.753 25.1958C316.167 21.3799 316.02 17.1355 314.345 13.3964C312.671 9.65734 309.605 6.72983 305.823 5.25791C302.04 3.78599 297.851 3.89023 294.177 5.5477L294.62 6.53709C298.037 4.99594 301.932 4.89901 305.449 6.26764C308.965 7.63626 311.816 10.3583 313.373 13.835C314.93 17.3117 315.067 21.2582 313.752 24.8063C312.438 28.3545 309.78 31.2136 306.364 32.7548L306.807 33.7441Z"/>
</mask>
<path d="M306.807 33.7441C310.481 32.0867 313.339 29.0117 314.753 25.1958C316.167 21.3799 316.02 17.1355 314.345 13.3964C312.671 9.65734 309.605 6.72983 305.823 5.25791C302.04 3.78599 297.851 3.89023 294.177 5.5477L294.62 6.53709C298.037 4.99594 301.932 4.89901 305.449 6.26764C308.965 7.63626 311.816 10.3583 313.373 13.835C314.93 17.3117 315.067 21.2582 313.752 24.8063C312.438 28.3545 309.78 31.2136 306.364 32.7548L306.807 33.7441Z" fill="white" stroke="black" stroke-width="2" mask="url(#path-5-inside-1_280_94)"/>
<path d="M11 138L16 140.887L16 135.113L11 138ZM89 138L84 135.113L84 140.887L89 138ZM15.5 138L15.5 138.5L84.5 138.5L84.5 138L84.5 137.5L15.5 137.5L15.5 138Z" fill="black"/>
<path d="M44.098 136L48.0014 128.278V128.21H43.5014V127.273H49.0923V128.261L45.206 136H44.098ZM53.391 136.119C53.033 136.114 52.6751 136.045 52.3171 135.915C51.9592 135.784 51.6325 135.564 51.337 135.254C51.0415 134.942 50.8043 134.52 50.6254 133.989C50.4464 133.455 50.3569 132.784 50.3569 131.977C50.3569 131.205 50.4293 130.52 50.5742 129.923C50.7191 129.324 50.9293 128.82 51.2049 128.411C51.4805 127.999 51.8129 127.686 52.2021 127.473C52.5941 127.26 53.0359 127.153 53.5273 127.153C54.016 127.153 54.4506 127.251 54.8313 127.447C55.2148 127.641 55.5273 127.911 55.7688 128.257C56.0103 128.604 56.1665 129.003 56.2376 129.455H55.1978C55.1012 129.062 54.9137 128.737 54.6353 128.479C54.3569 128.22 53.9876 128.091 53.5273 128.091C52.8512 128.091 52.3185 128.385 51.9293 128.973C51.543 129.561 51.3484 130.386 51.3455 131.449H51.4137C51.5728 131.207 51.7617 131.001 51.9805 130.831C52.2021 130.658 52.4464 130.524 52.7134 130.43C52.9805 130.337 53.2631 130.29 53.5614 130.29C54.0614 130.29 54.5188 130.415 54.9336 130.665C55.3484 130.912 55.6808 131.254 55.9308 131.692C56.1808 132.126 56.3058 132.625 56.3058 133.188C56.3058 133.727 56.185 134.222 55.9435 134.67C55.7021 135.116 55.3626 135.472 54.9251 135.736C54.4904 135.997 53.979 136.125 53.391 136.119ZM53.391 135.182C53.7489 135.182 54.07 135.092 54.354 134.913C54.641 134.734 54.8668 134.494 55.0316 134.193C55.1992 133.892 55.283 133.557 55.283 133.188C55.283 132.827 55.2021 132.499 55.0401 132.203C54.881 131.905 54.6609 131.668 54.3796 131.491C54.1012 131.315 53.783 131.227 53.4251 131.227C53.1552 131.227 52.9038 131.281 52.6708 131.389C52.4379 131.494 52.2333 131.639 52.0572 131.824C51.8839 132.009 51.7475 132.22 51.6481 132.459C51.5487 132.695 51.4989 132.943 51.4989 133.205C51.4989 133.551 51.5799 133.875 51.7418 134.176C51.9066 134.477 52.131 134.72 52.4151 134.905C52.7021 135.089 53.0273 135.182 53.391 135.182Z" fill="black"/>
</svg>
