<svg width="320" height="186" viewBox="0 0 320 186" fill="none" xmlns="http://www.w3.org/2000/svg">
<circle cx="50" cy="136" r="49.5" fill="white" stroke="black"/>
<line x1="76.7333" y1="178.177" x2="306.733" y2="33.177" stroke="black"/>
<line x1="35.8479" y1="88.5237" x2="295.848" y2="5.52368" stroke="black"/>
<circle cx="50" cy="136" r="39.5" fill="white" stroke="black"/>
<mask id="path-5-inside-1_280_94" fill="white">
<path d="M306.807 33.7441C310.481 32.0867 313.339 29.0117 314.753 25.1958C316.167 21.3799 316.02 17.1355 314.345 13.3964C312.671 9.65734 309.605 6.72983 305.823 5.25791C302.04 3.78599 297.851 3.89023 294.177 5.5477L294.62 6.53709C298.037 4.99594 301.932 4.89901 305.449 6.26764C308.965 7.63626 311.816 10.3583 313.373 13.835C314.93 17.3117 315.067 21.2582 313.752 24.8063C312.438 28.3545 309.78 31.2136 306.364 32.7548L306.807 33.7441Z"/>
</mask>
<path d="M306.807 33.7441C310.481 32.0867 313.339 29.0117 314.753 25.1958C316.167 21.3799 316.02 17.1355 314.345 13.3964C312.671 9.65734 309.605 6.72983 305.823 5.25791C302.04 3.78599 297.851 3.89023 294.177 5.5477L294.62 6.53709C298.037 4.99594 301.932 4.89901 305.449 6.26764C308.965 7.63626 311.816 10.3583 313.373 13.835C314.93 17.3117 315.067 21.2582 313.752 24.8063C312.438 28.3545 309.78 31.2136 306.364 32.7548L306.807 33.7441Z" fill="white" stroke="black" stroke-width="2" mask="url(#path-5-inside-1_280_94)"/>
<path d="M11 138L16 140.887L16 135.113L11 138ZM89 138L84 135.113L84 140.887L89 138ZM15.5 138L15.5 138.5L84.5 138.5L84.5 138L84.5 137.5L15.5 137.5L15.5 138Z" fill="black"/>
<path d="M46.2575 136.119C45.6722 136.119 45.1552 136.016 44.7063 135.808C44.2603 135.598 43.9123 135.31 43.6623 134.943C43.4123 134.574 43.2887 134.153 43.2915 133.682C43.2887 133.312 43.3612 132.972 43.5089 132.659C43.6566 132.344 43.8583 132.081 44.114 131.871C44.3725 131.658 44.6609 131.523 44.979 131.466V131.415C44.5614 131.307 44.229 131.072 43.9819 130.712C43.7347 130.348 43.6126 129.935 43.6154 129.472C43.6126 129.028 43.7248 128.632 43.9521 128.283C44.1793 127.933 44.4918 127.658 44.8896 127.456C45.2901 127.254 45.7461 127.153 46.2575 127.153C46.7631 127.153 47.2148 127.254 47.6126 127.456C48.0103 127.658 48.3228 127.933 48.5501 128.283C48.7802 128.632 48.8967 129.028 48.8995 129.472C48.8967 129.935 48.7702 130.348 48.5202 130.712C48.2731 131.072 47.945 131.307 47.5359 131.415V131.466C47.8512 131.523 48.1353 131.658 48.3881 131.871C48.641 132.081 48.8427 132.344 48.9933 132.659C49.1438 132.972 49.2205 133.312 49.2234 133.682C49.2205 134.153 49.0927 134.574 48.8398 134.943C48.5898 135.31 48.2418 135.598 47.7958 135.808C47.3526 136.016 46.8398 136.119 46.2575 136.119ZM46.2575 135.182C46.6523 135.182 46.9933 135.118 47.2802 134.99C47.5671 134.862 47.7887 134.682 47.945 134.449C48.1012 134.216 48.1808 133.943 48.1836 133.631C48.1808 133.301 48.0955 133.01 47.9279 132.757C47.7603 132.504 47.5316 132.305 47.2418 132.161C46.9549 132.016 46.6268 131.943 46.2575 131.943C45.8853 131.943 45.5529 132.016 45.2603 132.161C44.9705 132.305 44.7418 132.504 44.5742 132.757C44.4094 133.01 44.3285 133.301 44.3313 133.631C44.3285 133.943 44.4038 134.216 44.5572 134.449C44.7134 134.682 44.9364 134.862 45.2262 134.99C45.516 135.118 45.8597 135.182 46.2575 135.182ZM46.2575 131.04C46.57 131.04 46.8469 130.977 47.0884 130.852C47.3327 130.727 47.5245 130.553 47.6637 130.328C47.8029 130.104 47.8739 129.841 47.8768 129.54C47.8739 129.244 47.8043 128.987 47.668 128.768C47.5316 128.547 47.3427 128.376 47.1012 128.257C46.8597 128.135 46.5785 128.074 46.2575 128.074C45.9308 128.074 45.6452 128.135 45.4009 128.257C45.1566 128.376 44.9677 128.547 44.8342 128.768C44.7006 128.987 44.6353 129.244 44.6381 129.54C44.6353 129.841 44.7021 130.104 44.8384 130.328C44.9776 130.553 45.1694 130.727 45.4137 130.852C45.658 130.977 45.9393 131.04 46.2575 131.04ZM53.6349 127.153C53.9929 127.156 54.3509 127.224 54.7088 127.358C55.0668 127.491 55.3935 127.713 55.6889 128.023C55.9844 128.33 56.2216 128.749 56.4006 129.28C56.5795 129.811 56.669 130.477 56.669 131.278C56.669 132.054 56.5952 132.743 56.4474 133.345C56.3026 133.945 56.0923 134.45 55.8168 134.862C55.544 135.274 55.2116 135.587 54.8196 135.8C54.4304 136.013 53.9901 136.119 53.4986 136.119C53.0099 136.119 52.5739 136.023 52.1903 135.83C51.8097 135.634 51.4972 135.362 51.2528 135.016C51.0114 134.666 50.8565 134.261 50.7884 133.801H51.8281C51.9219 134.202 52.108 134.533 52.3864 134.794C52.6676 135.053 53.0384 135.182 53.4986 135.182C54.1719 135.182 54.7031 134.888 55.0923 134.3C55.4844 133.712 55.6804 132.881 55.6804 131.807H55.6122C55.4531 132.045 55.2642 132.251 55.0455 132.425C54.8267 132.598 54.5838 132.732 54.3168 132.825C54.0497 132.919 53.7656 132.966 53.4645 132.966C52.9645 132.966 52.5057 132.842 52.0881 132.595C51.6733 132.345 51.3409 132.003 51.0909 131.568C50.8438 131.131 50.7202 130.631 50.7202 130.068C50.7202 129.534 50.8395 129.045 51.0781 128.602C51.3196 128.156 51.6577 127.801 52.0923 127.537C52.5298 127.273 53.044 127.145 53.6349 127.153ZM53.6349 128.091C53.277 128.091 52.9545 128.18 52.6676 128.359C52.3835 128.536 52.1577 128.774 51.9901 129.075C51.8253 129.374 51.7429 129.705 51.7429 130.068C51.7429 130.432 51.8224 130.763 51.9815 131.061C52.1435 131.357 52.3636 131.592 52.642 131.768C52.9233 131.942 53.2429 132.028 53.6009 132.028C53.8707 132.028 54.1222 131.976 54.3551 131.871C54.5881 131.763 54.7912 131.616 54.9645 131.432C55.1406 131.244 55.2784 131.033 55.3778 130.797C55.4773 130.558 55.527 130.31 55.527 130.051C55.527 129.71 55.4446 129.391 55.2798 129.092C55.1179 128.794 54.8935 128.553 54.6065 128.368C54.3224 128.183 53.9986 128.091 53.6349 128.091Z" fill="black"/>
</svg>
