<svg width="320" height="186" viewBox="0 0 320 186" fill="none" xmlns="http://www.w3.org/2000/svg">
<circle cx="50" cy="136" r="49.5" fill="white" stroke="black"/>
<line x1="76.7333" y1="178.177" x2="306.733" y2="33.177" stroke="black"/>
<line x1="35.8479" y1="88.5237" x2="295.848" y2="5.52368" stroke="black"/>
<circle cx="50" cy="136" r="39.5" fill="white" stroke="black"/>
<mask id="path-5-inside-1_280_94" fill="white">
<path d="M306.807 33.7441C310.481 32.0867 313.339 29.0117 314.753 25.1958C316.167 21.3799 316.02 17.1355 314.345 13.3964C312.671 9.65734 309.605 6.72983 305.823 5.25791C302.04 3.78599 297.851 3.89023 294.177 5.5477L294.62 6.53709C298.037 4.99594 301.932 4.89901 305.449 6.26764C308.965 7.63626 311.816 10.3583 313.373 13.835C314.93 17.3117 315.067 21.2582 313.752 24.8063C312.438 28.3545 309.78 31.2136 306.364 32.7548L306.807 33.7441Z"/>
</mask>
<path d="M306.807 33.7441C310.481 32.0867 313.339 29.0117 314.753 25.1958C316.167 21.3799 316.02 17.1355 314.345 13.3964C312.671 9.65734 309.605 6.72983 305.823 5.25791C302.04 3.78599 297.851 3.89023 294.177 5.5477L294.62 6.53709C298.037 4.99594 301.932 4.89901 305.449 6.26764C308.965 7.63626 311.816 10.3583 313.373 13.835C314.93 17.3117 315.067 21.2582 313.752 24.8063C312.438 28.3545 309.78 31.2136 306.364 32.7548L306.807 33.7441Z" fill="white" stroke="black" stroke-width="2" mask="url(#path-5-inside-1_280_94)"/>
<path d="M11 138L16 140.887L16 135.113L11 138ZM89 138L84 135.113L84 140.887L89 138ZM15.5 138L15.5 138.5L84.5 138.5L84.5 138L84.5 137.5L15.5 137.5L15.5 138Z" fill="black"/>
<path d="M39.8878 136V135.233L42.7685 132.08C43.1065 131.71 43.3849 131.389 43.6037 131.116C43.8224 130.841 43.9844 130.582 44.0895 130.341C44.1974 130.097 44.2514 129.841 44.2514 129.574C44.2514 129.267 44.1776 129.001 44.0298 128.777C43.8849 128.553 43.6861 128.379 43.4332 128.257C43.1804 128.135 42.8963 128.074 42.581 128.074C42.2457 128.074 41.9531 128.143 41.7031 128.283C41.456 128.419 41.2642 128.611 41.1278 128.858C40.9943 129.105 40.9276 129.395 40.9276 129.727H39.9219C39.9219 129.216 40.0398 128.767 40.2756 128.381C40.5114 127.994 40.8324 127.693 41.2386 127.477C41.6477 127.261 42.1065 127.153 42.6151 127.153C43.1264 127.153 43.5795 127.261 43.9744 127.477C44.3693 127.693 44.679 127.984 44.9034 128.351C45.1278 128.717 45.2401 129.125 45.2401 129.574C45.2401 129.895 45.1818 130.209 45.0653 130.516C44.9517 130.82 44.7528 131.159 44.4688 131.534C44.1875 131.906 43.7969 132.361 43.2969 132.898L41.3366 134.994V135.062H45.3935V136H39.8878ZM47.1534 136V135.233L50.0341 132.08C50.3722 131.71 50.6506 131.389 50.8693 131.116C51.0881 130.841 51.25 130.582 51.3551 130.341C51.4631 130.097 51.517 129.841 51.517 129.574C51.517 129.267 51.4432 129.001 51.2955 128.777C51.1506 128.553 50.9517 128.379 50.6989 128.257C50.446 128.135 50.1619 128.074 49.8466 128.074C49.5114 128.074 49.2188 128.143 48.9688 128.283C48.7216 128.419 48.5298 128.611 48.3935 128.858C48.2599 129.105 48.1932 129.395 48.1932 129.727H47.1875C47.1875 129.216 47.3054 128.767 47.5412 128.381C47.777 127.994 48.098 127.693 48.5043 127.477C48.9134 127.261 49.3722 127.153 49.8807 127.153C50.392 127.153 50.8452 127.261 51.2401 127.477C51.6349 127.693 51.9446 127.984 52.169 128.351C52.3935 128.717 52.5057 129.125 52.5057 129.574C52.5057 129.895 52.4474 130.209 52.331 130.516C52.2173 130.82 52.0185 131.159 51.7344 131.534C51.4531 131.906 51.0625 132.361 50.5625 132.898L48.6023 134.994V135.062H52.6591V136H47.1534ZM57.2656 136.119C56.6236 136.119 56.0767 135.945 55.625 135.595C55.1733 135.243 54.8281 134.733 54.5895 134.065C54.3509 133.395 54.2315 132.585 54.2315 131.636C54.2315 130.693 54.3509 129.888 54.5895 129.22C54.831 128.55 55.1776 128.038 55.6293 127.686C56.0838 127.331 56.6293 127.153 57.2656 127.153C57.902 127.153 58.446 127.331 58.8977 127.686C59.3523 128.038 59.6989 128.55 59.9375 129.22C60.179 129.888 60.2997 130.693 60.2997 131.636C60.2997 132.585 60.1804 133.395 59.9418 134.065C59.7031 134.733 59.358 135.243 58.9062 135.595C58.4545 135.945 57.9077 136.119 57.2656 136.119ZM57.2656 135.182C57.902 135.182 58.3963 134.875 58.7486 134.261C59.1009 133.648 59.277 132.773 59.277 131.636C59.277 130.881 59.196 130.237 59.0341 129.706C58.875 129.175 58.6449 128.77 58.3438 128.491C58.0455 128.213 57.6861 128.074 57.2656 128.074C56.6349 128.074 56.142 128.385 55.7869 129.007C55.4318 129.626 55.2543 130.503 55.2543 131.636C55.2543 132.392 55.3338 133.034 55.4929 133.562C55.652 134.091 55.8807 134.493 56.179 134.768C56.4801 135.044 56.8423 135.182 57.2656 135.182Z" fill="black"/>
</svg>
