<svg width="320" height="186" viewBox="0 0 320 186" fill="none" xmlns="http://www.w3.org/2000/svg">
<circle cx="50" cy="136" r="49.5" fill="white" stroke="black"/>
<line x1="76.7333" y1="178.177" x2="306.733" y2="33.177" stroke="black"/>
<line x1="35.8479" y1="88.5237" x2="295.848" y2="5.52368" stroke="black"/>
<circle cx="50" cy="136" r="39.5" fill="white" stroke="black"/>
<mask id="path-5-inside-1_280_94" fill="white">
<path d="M306.807 33.7441C310.481 32.0867 313.339 29.0117 314.753 25.1958C316.167 21.3799 316.02 17.1355 314.345 13.3964C312.671 9.65734 309.605 6.72983 305.823 5.25791C302.04 3.78599 297.851 3.89023 294.177 5.5477L294.62 6.53709C298.037 4.99594 301.932 4.89901 305.449 6.26764C308.965 7.63626 311.816 10.3583 313.373 13.835C314.93 17.3117 315.067 21.2582 313.752 24.8063C312.438 28.3545 309.78 31.2136 306.364 32.7548L306.807 33.7441Z"/>
</mask>
<path d="M306.807 33.7441C310.481 32.0867 313.339 29.0117 314.753 25.1958C316.167 21.3799 316.02 17.1355 314.345 13.3964C312.671 9.65734 309.605 6.72983 305.823 5.25791C302.04 3.78599 297.851 3.89023 294.177 5.5477L294.62 6.53709C298.037 4.99594 301.932 4.89901 305.449 6.26764C308.965 7.63626 311.816 10.3583 313.373 13.835C314.93 17.3117 315.067 21.2582 313.752 24.8063C312.438 28.3545 309.78 31.2136 306.364 32.7548L306.807 33.7441Z" fill="white" stroke="black" stroke-width="2" mask="url(#path-5-inside-1_280_94)"/>
<path d="M11 138L16 140.887L16 135.113L11 138ZM89 138L84 135.113L84 140.887L89 138ZM15.5 138L15.5 138.5L84.5 138.5L84.5 138L84.5 137.5L15.5 137.5L15.5 138Z" fill="black"/>
<path d="M46.5526 136.119C46.0526 136.119 45.6023 136.02 45.2017 135.821C44.8011 135.622 44.4801 135.349 44.2386 135.003C43.9972 134.656 43.8651 134.261 43.8423 133.818H44.8651C44.9048 134.213 45.0838 134.54 45.402 134.798C45.723 135.054 46.1065 135.182 46.5526 135.182C46.9105 135.182 47.2287 135.098 47.5071 134.93C47.7884 134.763 48.0085 134.533 48.1676 134.24C48.3295 133.945 48.4105 133.611 48.4105 133.239C48.4105 132.858 48.3267 132.518 48.1591 132.22C47.9943 131.919 47.767 131.682 47.4773 131.509C47.1875 131.335 46.8565 131.247 46.4844 131.244C46.2173 131.241 45.9432 131.283 45.6619 131.368C45.3807 131.45 45.1491 131.557 44.9673 131.688L43.9787 131.568L44.5071 127.273H49.0412V128.21H45.3935L45.0866 130.784H45.1378C45.3168 130.642 45.5412 130.524 45.8111 130.43C46.081 130.337 46.3622 130.29 46.6548 130.29C47.1889 130.29 47.6648 130.418 48.0824 130.673C48.5028 130.926 48.8324 131.273 49.071 131.713C49.3125 132.153 49.4332 132.656 49.4332 133.222C49.4332 133.778 49.3082 134.276 49.0582 134.713C48.8111 135.148 48.4702 135.491 48.0355 135.744C47.6009 135.994 47.1065 136.119 46.5526 136.119ZM51.3988 136L55.3022 128.278V128.21H50.8022V127.273H56.3931V128.261L52.5067 136H51.3988Z" fill="black"/>
</svg>
