<svg width="320" height="186" viewBox="0 0 320 186" fill="none" xmlns="http://www.w3.org/2000/svg">
<circle cx="50" cy="136" r="49.5" fill="white" stroke="black"/>
<line x1="76.7333" y1="178.177" x2="306.733" y2="33.177" stroke="black"/>
<line x1="35.8479" y1="88.5237" x2="295.848" y2="5.52368" stroke="black"/>
<circle cx="50" cy="136" r="39.5" fill="white" stroke="black"/>
<mask id="path-5-inside-1_280_94" fill="white">
<path d="M306.807 33.7441C310.481 32.0867 313.339 29.0117 314.753 25.1958C316.167 21.3799 316.02 17.1355 314.345 13.3964C312.671 9.65734 309.605 6.72983 305.823 5.25791C302.04 3.78599 297.851 3.89023 294.177 5.5477L294.62 6.53709C298.037 4.99594 301.932 4.89901 305.449 6.26764C308.965 7.63626 311.816 10.3583 313.373 13.835C314.93 17.3117 315.067 21.2582 313.752 24.8063C312.438 28.3545 309.78 31.2136 306.364 32.7548L306.807 33.7441Z"/>
</mask>
<path d="M306.807 33.7441C310.481 32.0867 313.339 29.0117 314.753 25.1958C316.167 21.3799 316.02 17.1355 314.345 13.3964C312.671 9.65734 309.605 6.72983 305.823 5.25791C302.04 3.78599 297.851 3.89023 294.177 5.5477L294.62 6.53709C298.037 4.99594 301.932 4.89901 305.449 6.26764C308.965 7.63626 311.816 10.3583 313.373 13.835C314.93 17.3117 315.067 21.2582 313.752 24.8063C312.438 28.3545 309.78 31.2136 306.364 32.7548L306.807 33.7441Z" fill="white" stroke="black" stroke-width="2" mask="url(#path-5-inside-1_280_94)"/>
<path d="M11 138L16 140.887L16 135.113L11 138ZM89 138L84 135.113L84 140.887L89 138ZM15.5 138L15.5 138.5L84.5 138.5L84.5 138L84.5 137.5L15.5 137.5L15.5 138Z" fill="black"/>
<path d="M44.5439 127.273V136H43.487V128.381H43.4359L41.3052 129.795V128.722L43.487 127.273H44.5439ZM50.122 127.273V136H49.0652V128.381H49.014L46.8833 129.795V128.722L49.0652 127.273H50.122ZM52.4274 134.21V133.341L56.2626 127.273H56.8933V128.619H56.4672L53.5694 133.205V133.273H58.7342V134.21H52.4274ZM56.5353 136V133.946V133.541V127.273H57.541V136H56.5353Z" fill="black"/>
</svg>
