<svg width="320" height="186" viewBox="0 0 320 186" fill="none" xmlns="http://www.w3.org/2000/svg">
<circle cx="50" cy="136" r="49.5" fill="white" stroke="black"/>
<line x1="76.7333" y1="178.177" x2="306.733" y2="33.177" stroke="black"/>
<line x1="35.8479" y1="88.5237" x2="295.848" y2="5.52368" stroke="black"/>
<circle cx="50" cy="136" r="39.5" fill="white" stroke="black"/>
<mask id="path-5-inside-1_280_94" fill="white">
<path d="M306.807 33.7441C310.481 32.0867 313.339 29.0117 314.753 25.1958C316.167 21.3799 316.02 17.1355 314.345 13.3964C312.671 9.65734 309.605 6.72983 305.823 5.25791C302.04 3.78599 297.851 3.89023 294.177 5.5477L294.62 6.53709C298.037 4.99594 301.932 4.89901 305.449 6.26764C308.965 7.63626 311.816 10.3583 313.373 13.835C314.93 17.3117 315.067 21.2582 313.752 24.8063C312.438 28.3545 309.78 31.2136 306.364 32.7548L306.807 33.7441Z"/>
</mask>
<path d="M306.807 33.7441C310.481 32.0867 313.339 29.0117 314.753 25.1958C316.167 21.3799 316.02 17.1355 314.345 13.3964C312.671 9.65734 309.605 6.72983 305.823 5.25791C302.04 3.78599 297.851 3.89023 294.177 5.5477L294.62 6.53709C298.037 4.99594 301.932 4.89901 305.449 6.26764C308.965 7.63626 311.816 10.3583 313.373 13.835C314.93 17.3117 315.067 21.2582 313.752 24.8063C312.438 28.3545 309.78 31.2136 306.364 32.7548L306.807 33.7441Z" fill="white" stroke="black" stroke-width="2" mask="url(#path-5-inside-1_280_94)"/>
<path d="M11 138L16 140.887L16 135.113L11 138ZM89 138L84 135.113L84 140.887L89 138ZM15.5 138L15.5 138.5L84.5 138.5L84.5 138L84.5 137.5L15.5 137.5L15.5 138Z" fill="black"/>
<path d="M43.6202 136V135.233L46.5009 132.08C46.839 131.71 47.1174 131.389 47.3361 131.116C47.5549 130.841 47.7168 130.582 47.8219 130.341C47.9299 130.097 47.9838 129.841 47.9838 129.574C47.9838 129.267 47.91 129.001 47.7623 128.777C47.6174 128.553 47.4185 128.379 47.1657 128.257C46.9128 128.135 46.6287 128.074 46.3134 128.074C45.9782 128.074 45.6855 128.143 45.4355 128.283C45.1884 128.419 44.9966 128.611 44.8603 128.858C44.7267 129.105 44.66 129.395 44.66 129.727H43.6543C43.6543 129.216 43.7722 128.767 44.008 128.381C44.2438 127.994 44.5648 127.693 44.9711 127.477C45.3801 127.261 45.839 127.153 46.3475 127.153C46.8588 127.153 47.312 127.261 47.7069 127.477C48.1017 127.693 48.4114 127.984 48.6358 128.351C48.8603 128.717 48.9725 129.125 48.9725 129.574C48.9725 129.895 48.9142 130.209 48.7978 130.516C48.6841 130.82 48.4853 131.159 48.2012 131.534C47.9199 131.906 47.5293 132.361 47.0293 132.898L45.0691 134.994V135.062H49.1259V136H43.6202ZM53.6131 136.119C53.1131 136.119 52.6628 136.02 52.2623 135.821C51.8617 135.622 51.5407 135.349 51.2992 135.003C51.0577 134.656 50.9256 134.261 50.9029 133.818H51.9256C51.9654 134.213 52.1444 134.54 52.4625 134.798C52.7836 135.054 53.1671 135.182 53.6131 135.182C53.9711 135.182 54.2892 135.098 54.5676 134.93C54.8489 134.763 55.0691 134.533 55.2282 134.24C55.3901 133.945 55.4711 133.611 55.4711 133.239C55.4711 132.858 55.3873 132.518 55.2196 132.22C55.0549 131.919 54.8276 131.682 54.5378 131.509C54.248 131.335 53.9171 131.247 53.5449 131.244C53.2779 131.241 53.0037 131.283 52.7225 131.368C52.4412 131.45 52.2097 131.557 52.0279 131.688L51.0392 131.568L51.5676 127.273H56.1017V128.21H52.454L52.1472 130.784H52.1983C52.3773 130.642 52.6017 130.524 52.8716 130.43C53.1415 130.337 53.4228 130.29 53.7154 130.29C54.2495 130.29 54.7253 130.418 55.1429 130.673C55.5634 130.926 55.8929 131.273 56.1316 131.713C56.373 132.153 56.4938 132.656 56.4938 133.222C56.4938 133.778 56.3688 134.276 56.1188 134.713C55.8716 135.148 55.5307 135.491 55.0961 135.744C54.6614 135.994 54.1671 136.119 53.6131 136.119Z" fill="black"/>
</svg>
