<svg width="320" height="186" viewBox="0 0 320 186" fill="none" xmlns="http://www.w3.org/2000/svg">
<circle cx="50" cy="136" r="49.5" fill="white" stroke="black"/>
<line x1="76.7333" y1="178.177" x2="306.733" y2="33.177" stroke="black"/>
<line x1="35.8479" y1="88.5237" x2="295.848" y2="5.52368" stroke="black"/>
<circle cx="50" cy="136" r="39.5" fill="white" stroke="black"/>
<mask id="path-5-inside-1_280_94" fill="white">
<path d="M306.807 33.7441C310.481 32.0867 313.339 29.0117 314.753 25.1958C316.167 21.3799 316.02 17.1355 314.345 13.3964C312.671 9.65734 309.605 6.72983 305.823 5.25791C302.04 3.78599 297.851 3.89023 294.177 5.5477L294.62 6.53709C298.037 4.99594 301.932 4.89901 305.449 6.26764C308.965 7.63626 311.816 10.3583 313.373 13.835C314.93 17.3117 315.067 21.2582 313.752 24.8063C312.438 28.3545 309.78 31.2136 306.364 32.7548L306.807 33.7441Z"/>
</mask>
<path d="M306.807 33.7441C310.481 32.0867 313.339 29.0117 314.753 25.1958C316.167 21.3799 316.02 17.1355 314.345 13.3964C312.671 9.65734 309.605 6.72983 305.823 5.25791C302.04 3.78599 297.851 3.89023 294.177 5.5477L294.62 6.53709C298.037 4.99594 301.932 4.89901 305.449 6.26764C308.965 7.63626 311.816 10.3583 313.373 13.835C314.93 17.3117 315.067 21.2582 313.752 24.8063C312.438 28.3545 309.78 31.2136 306.364 32.7548L306.807 33.7441Z" fill="white" stroke="black" stroke-width="2" mask="url(#path-5-inside-1_280_94)"/>
<path d="M11 138L16 140.887L16 135.113L11 138ZM89 138L84 135.113L84 140.887L89 138ZM15.5 138L15.5 138.5L84.5 138.5L84.5 138L84.5 137.5L15.5 137.5L15.5 138Z" fill="black"/>
<path d="M46.3991 136.119C45.8366 136.119 45.3352 136.023 44.8949 135.83C44.4574 135.636 44.1094 135.368 43.8509 135.024C43.5952 134.678 43.456 134.276 43.4332 133.818H44.5071C44.5298 134.099 44.6264 134.342 44.7969 134.547C44.9673 134.749 45.1903 134.905 45.4659 135.016C45.7415 135.126 46.0469 135.182 46.3821 135.182C46.7571 135.182 47.0895 135.116 47.3793 134.986C47.669 134.855 47.8963 134.673 48.0611 134.44C48.2259 134.207 48.3082 133.938 48.3082 133.631C48.3082 133.31 48.2287 133.027 48.0696 132.783C47.9105 132.536 47.6776 132.342 47.3707 132.203C47.0639 132.064 46.6889 131.994 46.2457 131.994H45.5469V131.057H46.2457C46.5923 131.057 46.8963 130.994 47.1577 130.869C47.4219 130.744 47.6278 130.568 47.7756 130.341C47.9261 130.114 48.0014 129.847 48.0014 129.54C48.0014 129.244 47.9361 128.987 47.8054 128.768C47.6747 128.55 47.4901 128.379 47.2514 128.257C47.0156 128.135 46.7372 128.074 46.4162 128.074C46.1151 128.074 45.831 128.129 45.5639 128.24C45.2997 128.348 45.0838 128.506 44.9162 128.713C44.7486 128.918 44.6577 129.165 44.6435 129.455H43.6207C43.6378 128.997 43.7756 128.597 44.0341 128.253C44.2926 127.906 44.6307 127.636 45.0483 127.443C45.4688 127.25 45.9304 127.153 46.4332 127.153C46.973 127.153 47.4361 127.263 47.8224 127.482C48.2088 127.697 48.5057 127.983 48.7131 128.338C48.9205 128.693 49.0241 129.077 49.0241 129.489C49.0241 129.98 48.8949 130.399 48.6364 130.746C48.3807 131.092 48.0327 131.332 47.5923 131.466V131.534C48.1435 131.625 48.5739 131.859 48.8835 132.237C49.1932 132.612 49.348 133.077 49.348 133.631C49.348 134.105 49.2188 134.531 48.9602 134.909C48.7045 135.284 48.3551 135.58 47.9119 135.795C47.4688 136.011 46.9645 136.119 46.3991 136.119ZM51.0909 136V135.233L53.9716 132.08C54.3097 131.71 54.5881 131.389 54.8068 131.116C55.0256 130.841 55.1875 130.582 55.2926 130.341C55.4006 130.097 55.4545 129.841 55.4545 129.574C55.4545 129.267 55.3807 129.001 55.233 128.777C55.0881 128.553 54.8892 128.379 54.6364 128.257C54.3835 128.135 54.0994 128.074 53.7841 128.074C53.4489 128.074 53.1562 128.143 52.9062 128.283C52.6591 128.419 52.4673 128.611 52.331 128.858C52.1974 129.105 52.1307 129.395 52.1307 129.727H51.125C51.125 129.216 51.2429 128.767 51.4787 128.381C51.7145 127.994 52.0355 127.693 52.4418 127.477C52.8509 127.261 53.3097 127.153 53.8182 127.153C54.3295 127.153 54.7827 127.261 55.1776 127.477C55.5724 127.693 55.8821 127.984 56.1065 128.351C56.331 128.717 56.4432 129.125 56.4432 129.574C56.4432 129.895 56.3849 130.209 56.2685 130.516C56.1548 130.82 55.956 131.159 55.6719 131.534C55.3906 131.906 55 132.361 54.5 132.898L52.5398 134.994V135.062H56.5966V136H51.0909Z" fill="black"/>
</svg>
