<svg width="320" height="186" viewBox="0 0 320 186" fill="none" xmlns="http://www.w3.org/2000/svg">
<circle cx="50" cy="136" r="49.5" fill="white" stroke="black"/>
<line x1="76.7333" y1="178.177" x2="306.733" y2="33.177" stroke="black"/>
<line x1="35.8479" y1="88.5237" x2="295.848" y2="5.52368" stroke="black"/>
<circle cx="50" cy="136" r="39.5" fill="white" stroke="black"/>
<mask id="path-5-inside-1_280_94" fill="white">
<path d="M306.807 33.7441C310.481 32.0867 313.339 29.0117 314.753 25.1958C316.167 21.3799 316.02 17.1355 314.345 13.3964C312.671 9.65734 309.605 6.72983 305.823 5.25791C302.04 3.78599 297.851 3.89023 294.177 5.5477L294.62 6.53709C298.037 4.99594 301.932 4.89901 305.449 6.26764C308.965 7.63626 311.816 10.3583 313.373 13.835C314.93 17.3117 315.067 21.2582 313.752 24.8063C312.438 28.3545 309.78 31.2136 306.364 32.7548L306.807 33.7441Z"/>
</mask>
<path d="M306.807 33.7441C310.481 32.0867 313.339 29.0117 314.753 25.1958C316.167 21.3799 316.02 17.1355 314.345 13.3964C312.671 9.65734 309.605 6.72983 305.823 5.25791C302.04 3.78599 297.851 3.89023 294.177 5.5477L294.62 6.53709C298.037 4.99594 301.932 4.89901 305.449 6.26764C308.965 7.63626 311.816 10.3583 313.373 13.835C314.93 17.3117 315.067 21.2582 313.752 24.8063C312.438 28.3545 309.78 31.2136 306.364 32.7548L306.807 33.7441Z" fill="white" stroke="black" stroke-width="2" mask="url(#path-5-inside-1_280_94)"/>
<path d="M11 138L16 140.887L16 135.113L11 138ZM89 138L84 135.113L84 140.887L89 138ZM15.5 138L15.5 138.5L84.5 138.5L84.5 138L84.5 137.5L15.5 137.5L15.5 138Z" fill="black"/>
<path d="M43.5206 136V135.233L46.4013 132.08C46.7393 131.71 47.0178 131.389 47.2365 131.116C47.4553 130.841 47.6172 130.582 47.7223 130.341C47.8303 130.097 47.8842 129.841 47.8842 129.574C47.8842 129.267 47.8104 129.001 47.6626 128.777C47.5178 128.553 47.3189 128.379 47.0661 128.257C46.8132 128.135 46.5291 128.074 46.2138 128.074C45.8786 128.074 45.5859 128.143 45.3359 128.283C45.0888 128.419 44.897 128.611 44.7607 128.858C44.6271 129.105 44.5604 129.395 44.5604 129.727H43.5547C43.5547 129.216 43.6726 128.767 43.9084 128.381C44.1442 127.994 44.4652 127.693 44.8714 127.477C45.2805 127.261 45.7393 127.153 46.2479 127.153C46.7592 127.153 47.2124 127.261 47.6072 127.477C48.0021 127.693 48.3118 127.984 48.5362 128.351C48.7607 128.717 48.8729 129.125 48.8729 129.574C48.8729 129.895 48.8146 130.209 48.6982 130.516C48.5845 130.82 48.3857 131.159 48.1016 131.534C47.8203 131.906 47.4297 132.361 46.9297 132.898L44.9695 134.994V135.062H49.0263V136H43.5206ZM53.6328 136.119C52.9908 136.119 52.4439 135.945 51.9922 135.595C51.5405 135.243 51.1953 134.733 50.9567 134.065C50.718 133.395 50.5987 132.585 50.5987 131.636C50.5987 130.693 50.718 129.888 50.9567 129.22C51.1982 128.55 51.5447 128.038 51.9964 127.686C52.451 127.331 52.9964 127.153 53.6328 127.153C54.2692 127.153 54.8132 127.331 55.2649 127.686C55.7195 128.038 56.0661 128.55 56.3047 129.22C56.5462 129.888 56.6669 130.693 56.6669 131.636C56.6669 132.585 56.5476 133.395 56.3089 134.065C56.0703 134.733 55.7251 135.243 55.2734 135.595C54.8217 135.945 54.2749 136.119 53.6328 136.119ZM53.6328 135.182C54.2692 135.182 54.7635 134.875 55.1158 134.261C55.468 133.648 55.6442 132.773 55.6442 131.636C55.6442 130.881 55.5632 130.237 55.4013 129.706C55.2422 129.175 55.0121 128.77 54.7109 128.491C54.4126 128.213 54.0533 128.074 53.6328 128.074C53.0021 128.074 52.5092 128.385 52.1541 129.007C51.799 129.626 51.6214 130.503 51.6214 131.636C51.6214 132.392 51.701 133.034 51.8601 133.562C52.0192 134.091 52.2479 134.493 52.5462 134.768C52.8473 135.044 53.2095 135.182 53.6328 135.182Z" fill="black"/>
</svg>
