<svg width="350" height="208" viewBox="0 0 350 208" fill="none" xmlns="http://www.w3.org/2000/svg">
<path d="M33.2294 82L33.2294 181.165" stroke="black"/>
<line x1="32.7294" y1="181.688" x2="133.035" y2="181.688" stroke="black"/>
<path d="M132.501 81.9999V181.165" stroke="black"/>
<path d="M124 173.476H42.0361" stroke="black"/>
<path d="M123.964 90L42 90" stroke="black"/>
<path d="M42.5361 90L42.5361 172.976" stroke="black"/>
<path d="M123.5 90.4999L123.5 173.476" stroke="black"/>
<path d="M131.834 82.5285L348.5 1" stroke="black"/>
<path d="M348.5 0.999969L348.5 21.5" stroke="black"/>
<line x1="327.5" y1="0.5" x2="348.994" y2="0.5" stroke="black"/>
<path d="M42.7292 173.559L123.5 128.5" stroke="black"/>
<line x1="132.737" y1="181.787" x2="348.702" y2="21.093" stroke="black"/>
<line x1="32.5891" y1="82.0515" x2="327.664" y2="0.49719" stroke="black"/>
<line x1="33.2294" y1="182.188" x2="33.2294" y2="207.776" stroke="black"/>
<line x1="32.7294" y1="181.665" x2="6.11765" y2="181.665" stroke="black"/>
<path d="M133 82.3824L6.11764 82.3824" stroke="black"/>
<line x1="132.512" y1="182.188" x2="132.512" y2="207.776" stroke="black"/>
<path d="M33.7529 132.547L28.7529 129.66V135.434L33.7529 132.547ZM23.5176 133.047H29.2529V132.047H23.5176V133.047Z" fill="black"/>
<path d="M41.9412 132.547L46.9412 135.434V129.66L41.9412 132.547ZM62.4118 132.047H46.4412V133.047H62.4118V132.047Z" fill="black"/>
<path d="M15.3294 181.165L18.2162 176.165H12.4427L15.3294 181.165ZM15.3294 82.9058L12.4427 87.9058H18.2162L15.3294 82.9058ZM15.8294 176.665L15.8294 87.4058H14.8294L14.8294 176.665H15.8294Z" fill="black"/>
<path d="M33.7529 198.565L38.7529 201.451V195.678L33.7529 198.565ZM132.012 198.565L127.012 195.678V201.451L132.012 198.565ZM38.2529 199.065L127.512 199.065V198.065L38.2529 198.065V199.065Z" fill="black"/>
<path d="M79.2303 196.119C78.7303 196.119 78.28 196.02 77.8794 195.821C77.4789 195.622 77.1578 195.349 76.9164 195.003C76.6749 194.656 76.5428 194.261 76.5201 193.818H77.5428C77.5826 194.213 77.7615 194.54 78.0797 194.798C78.4007 195.054 78.7843 195.182 79.2303 195.182C79.5882 195.182 79.9064 195.098 80.1848 194.93C80.4661 194.763 80.6863 194.533 80.8453 194.24C81.0073 193.945 81.0882 193.611 81.0882 193.239C81.0882 192.858 81.0044 192.518 80.8368 192.22C80.6721 191.919 80.4448 191.682 80.155 191.509C79.8652 191.335 79.5343 191.247 79.1621 191.244C78.8951 191.241 78.6209 191.283 78.3397 191.368C78.0584 191.45 77.8269 191.557 77.6451 191.688L76.6564 191.568L77.1848 187.273H81.7189V188.21H78.0712L77.7644 190.784H77.8155C77.9945 190.642 78.2189 190.524 78.4888 190.43C78.7587 190.337 79.04 190.29 79.3326 190.29C79.8667 190.29 80.3425 190.418 80.7601 190.673C81.1806 190.926 81.5101 191.273 81.7488 191.713C81.9902 192.153 82.111 192.656 82.111 193.222C82.111 193.778 81.986 194.276 81.736 194.713C81.4888 195.148 81.1479 195.491 80.7132 195.744C80.2786 195.994 79.7843 196.119 79.2303 196.119ZM86.6504 196.119C86.0083 196.119 85.4615 195.945 85.0098 195.595C84.5581 195.243 84.2129 194.733 83.9743 194.065C83.7356 193.395 83.6163 192.585 83.6163 191.636C83.6163 190.693 83.7356 189.888 83.9743 189.22C84.2157 188.55 84.5623 188.038 85.014 187.686C85.4686 187.331 86.014 187.153 86.6504 187.153C87.2868 187.153 87.8308 187.331 88.2825 187.686C88.737 188.038 89.0836 188.55 89.3223 189.22C89.5637 189.888 89.6845 190.693 89.6845 191.636C89.6845 192.585 89.5652 193.395 89.3265 194.065C89.0879 194.733 88.7427 195.243 88.291 195.595C87.8393 195.945 87.2924 196.119 86.6504 196.119ZM86.6504 195.182C87.2868 195.182 87.7811 194.875 88.1333 194.261C88.4856 193.648 88.6618 192.773 88.6618 191.636C88.6618 190.881 88.5808 190.237 88.4189 189.706C88.2598 189.175 88.0297 188.77 87.7285 188.491C87.4302 188.213 87.0708 188.074 86.6504 188.074C86.0197 188.074 85.5268 188.385 85.1717 189.007C84.8166 189.626 84.639 190.503 84.639 191.636C84.639 192.392 84.7186 193.034 84.8777 193.562C85.0368 194.091 85.2654 194.493 85.5637 194.768C85.8649 195.044 86.2271 195.182 86.6504 195.182Z" fill="black"/>
<path d="M54.532 130.119C53.9695 130.119 53.468 130.023 53.0277 129.83C52.5902 129.636 52.2422 129.368 51.9837 129.024C51.728 128.678 51.5888 128.276 51.5661 127.818H52.6399C52.6626 128.099 52.7592 128.342 52.9297 128.547C53.1001 128.749 53.3232 128.905 53.5987 129.016C53.8743 129.126 54.1797 129.182 54.5149 129.182C54.8899 129.182 55.2223 129.116 55.5121 128.986C55.8018 128.855 56.0291 128.673 56.1939 128.44C56.3587 128.207 56.4411 127.938 56.4411 127.631C56.4411 127.31 56.3615 127.027 56.2024 126.783C56.0433 126.536 55.8104 126.342 55.5036 126.203C55.1967 126.064 54.8217 125.994 54.3786 125.994H53.6797V125.057H54.3786C54.7251 125.057 55.0291 124.994 55.2905 124.869C55.5547 124.744 55.7607 124.568 55.9084 124.341C56.0589 124.114 56.1342 123.847 56.1342 123.54C56.1342 123.244 56.0689 122.987 55.9382 122.768C55.8075 122.55 55.6229 122.379 55.3842 122.257C55.1484 122.135 54.87 122.074 54.549 122.074C54.2479 122.074 53.9638 122.129 53.6967 122.24C53.4325 122.348 53.2166 122.506 53.049 122.713C52.8814 122.918 52.7905 123.165 52.7763 123.455H51.7536C51.7706 122.997 51.9084 122.597 52.1669 122.253C52.4254 121.906 52.7635 121.636 53.1811 121.443C53.6016 121.25 54.0632 121.153 54.5661 121.153C55.1058 121.153 55.5689 121.263 55.9553 121.482C56.3416 121.697 56.6385 121.983 56.8459 122.338C57.0533 122.693 57.157 123.077 57.157 123.489C57.157 123.98 57.0277 124.399 56.7692 124.746C56.5135 125.092 56.1655 125.332 55.7251 125.466V125.534C56.2763 125.625 56.7067 125.859 57.0163 126.237C57.326 126.612 57.4808 127.077 57.4808 127.631C57.4808 128.105 57.3516 128.531 57.093 128.909C56.8374 129.284 56.4879 129.58 56.0447 129.795C55.6016 130.011 55.0973 130.119 54.532 130.119Z" fill="black"/>
<path d="M12.1193 135.77C12.1193 136.27 12.0199 136.72 11.821 137.121C11.6222 137.521 11.3494 137.842 11.0028 138.084C10.6562 138.325 10.2614 138.457 9.81818 138.48V137.457C10.2131 137.417 10.5398 137.238 10.7983 136.92C11.054 136.599 11.1818 136.216 11.1818 135.77C11.1818 135.412 11.098 135.094 10.9304 134.815C10.7628 134.534 10.5327 134.314 10.2401 134.155C9.9446 133.993 9.6108 133.912 9.23864 133.912C8.85795 133.912 8.51847 133.996 8.22017 134.163C7.91903 134.328 7.68182 134.555 7.50852 134.845C7.33523 135.135 7.24716 135.466 7.24432 135.838C7.24148 136.105 7.28267 136.379 7.3679 136.66C7.45028 136.942 7.55682 137.173 7.6875 137.355L7.56818 138.344L3.27273 137.815V133.281H4.21023L4.21023 136.929L6.78409 137.236V137.184C6.64205 137.006 6.52415 136.781 6.4304 136.511C6.33665 136.241 6.28977 135.96 6.28977 135.667C6.28977 135.133 6.41761 134.657 6.6733 134.24C6.92614 133.819 7.27273 133.49 7.71307 133.251C8.15341 133.01 8.65625 132.889 9.22159 132.889C9.77841 132.889 10.2756 133.014 10.7131 133.264C11.1477 133.511 11.4915 133.852 11.7443 134.287C11.9943 134.721 12.1193 135.216 12.1193 135.77ZM12.1193 128.35C12.1193 128.992 11.9446 129.539 11.5952 129.99C11.2429 130.442 10.733 130.787 10.0653 131.026C9.39489 131.264 8.58523 131.384 7.63636 131.384C6.69318 131.384 5.88778 131.264 5.22017 131.026C4.54972 130.784 4.03835 130.438 3.68608 129.986C3.33097 129.531 3.15341 128.986 3.15341 128.35C3.15341 127.713 3.33097 127.169 3.68608 126.718C4.03835 126.263 4.54972 125.916 5.22017 125.678C5.88778 125.436 6.69318 125.316 7.63636 125.316C8.58523 125.316 9.39489 125.435 10.0653 125.673C10.733 125.912 11.2429 126.257 11.5952 126.709C11.9446 127.161 12.1193 127.708 12.1193 128.35ZM11.1818 128.35C11.1818 127.713 10.875 127.219 10.2614 126.867C9.64773 126.514 8.77273 126.338 7.63636 126.338C6.88068 126.338 6.23722 126.419 5.70597 126.581C5.17472 126.74 4.76989 126.97 4.49148 127.271C4.21307 127.57 4.07386 127.929 4.07386 128.35C4.07386 128.98 4.38494 129.473 5.0071 129.828C5.62642 130.183 6.50284 130.361 7.63636 130.361C8.39205 130.361 9.03409 130.281 9.5625 130.122C10.0909 129.963 10.4929 129.735 10.7685 129.436C11.044 129.135 11.1818 128.773 11.1818 128.35Z" fill="black"/>
</svg>
