<svg width="350" height="208" viewBox="0 0 350 208" fill="none" xmlns="http://www.w3.org/2000/svg">
<path d="M33.2294 82L33.2294 181.165" stroke="black"/>
<line x1="32.7294" y1="181.688" x2="133.035" y2="181.688" stroke="black"/>
<path d="M132.501 81.9999V181.165" stroke="black"/>
<path d="M124 173.476H42.0361" stroke="black"/>
<path d="M123.964 90L42 90" stroke="black"/>
<path d="M42.5361 90L42.5361 172.976" stroke="black"/>
<path d="M123.5 90.4999L123.5 173.476" stroke="black"/>
<path d="M131.834 82.5285L348.5 1" stroke="black"/>
<path d="M348.5 0.999969L348.5 21.5" stroke="black"/>
<line x1="327.5" y1="0.5" x2="348.994" y2="0.5" stroke="black"/>
<path d="M42.7292 173.559L123.5 128.5" stroke="black"/>
<line x1="132.737" y1="181.787" x2="348.702" y2="21.093" stroke="black"/>
<line x1="32.5891" y1="82.0515" x2="327.664" y2="0.49719" stroke="black"/>
<line x1="33.2294" y1="182.188" x2="33.2294" y2="207.776" stroke="black"/>
<line x1="32.7294" y1="181.665" x2="6.11765" y2="181.665" stroke="black"/>
<path d="M133 82.3824L6.11764 82.3824" stroke="black"/>
<line x1="132.512" y1="182.188" x2="132.512" y2="207.776" stroke="black"/>
<path d="M33.7529 132.547L28.7529 129.66V135.434L33.7529 132.547ZM23.5176 133.047H29.2529V132.047H23.5176V133.047Z" fill="black"/>
<path d="M41.9412 132.547L46.9412 135.434V129.66L41.9412 132.547ZM62.4118 132.047H46.4412V133.047H62.4118V132.047Z" fill="black"/>
<path d="M15.3294 181.165L18.2162 176.165H12.4427L15.3294 181.165ZM15.3294 82.9058L12.4427 87.9058H18.2162L15.3294 82.9058ZM15.8294 176.665L15.8294 87.4058H14.8294L14.8294 176.665H15.8294Z" fill="black"/>
<path d="M33.7529 198.565L38.7529 201.451V195.678L33.7529 198.565ZM132.012 198.565L127.012 195.678V201.451L132.012 198.565ZM38.2529 199.065L127.512 199.065V198.065L38.2529 198.065V199.065Z" fill="black"/>
<path d="M75.9716 187.273V196H74.9148V188.381H74.8636L72.733 189.795V188.722L74.9148 187.273H75.9716ZM81.3281 196.119C80.6861 196.119 80.1392 195.945 79.6875 195.595C79.2358 195.243 78.8906 194.733 78.652 194.065C78.4134 193.395 78.294 192.585 78.294 191.636C78.294 190.693 78.4134 189.888 78.652 189.22C78.8935 188.55 79.2401 188.038 79.6918 187.686C80.1463 187.331 80.6918 187.153 81.3281 187.153C81.9645 187.153 82.5085 187.331 82.9602 187.686C83.4148 188.038 83.7614 188.55 84 189.22C84.2415 189.888 84.3622 190.693 84.3622 191.636C84.3622 192.585 84.2429 193.395 84.0043 194.065C83.7656 194.733 83.4205 195.243 82.9688 195.595C82.517 195.945 81.9702 196.119 81.3281 196.119ZM81.3281 195.182C81.9645 195.182 82.4588 194.875 82.8111 194.261C83.1634 193.648 83.3395 192.773 83.3395 191.636C83.3395 190.881 83.2585 190.237 83.0966 189.706C82.9375 189.175 82.7074 188.77 82.4062 188.491C82.108 188.213 81.7486 188.074 81.3281 188.074C80.6974 188.074 80.2045 188.385 79.8494 189.007C79.4943 189.626 79.3168 190.503 79.3168 191.636C79.3168 192.392 79.3963 193.034 79.5554 193.562C79.7145 194.091 79.9432 194.493 80.2415 194.768C80.5426 195.044 80.9048 195.182 81.3281 195.182ZM88.8281 196.119C88.1861 196.119 87.6392 195.945 87.1875 195.595C86.7358 195.243 86.3906 194.733 86.152 194.065C85.9134 193.395 85.794 192.585 85.794 191.636C85.794 190.693 85.9134 189.888 86.152 189.22C86.3935 188.55 86.7401 188.038 87.1918 187.686C87.6463 187.331 88.1918 187.153 88.8281 187.153C89.4645 187.153 90.0085 187.331 90.4602 187.686C90.9148 188.038 91.2614 188.55 91.5 189.22C91.7415 189.888 91.8622 190.693 91.8622 191.636C91.8622 192.585 91.7429 193.395 91.5043 194.065C91.2656 194.733 90.9205 195.243 90.4688 195.595C90.017 195.945 89.4702 196.119 88.8281 196.119ZM88.8281 195.182C89.4645 195.182 89.9588 194.875 90.3111 194.261C90.6634 193.648 90.8395 192.773 90.8395 191.636C90.8395 190.881 90.7585 190.237 90.5966 189.706C90.4375 189.175 90.2074 188.77 89.9062 188.491C89.608 188.213 89.2486 188.074 88.8281 188.074C88.1974 188.074 87.7045 188.385 87.3494 189.007C86.9943 189.626 86.8168 190.503 86.8168 191.636C86.8168 192.392 86.8963 193.034 87.0554 193.562C87.2145 194.091 87.4432 194.493 87.7415 194.768C88.0426 195.044 88.4048 195.182 88.8281 195.182Z" fill="black"/>
<path d="M53.9817 129.825C53.4192 129.825 52.9178 129.729 52.4774 129.535C52.0399 129.342 51.6919 129.074 51.4334 128.73C51.1777 128.383 51.0385 127.981 51.0158 127.524H52.0896C52.1124 127.805 52.209 128.048 52.3794 128.253C52.5499 128.454 52.7729 128.611 53.0484 128.721C53.324 128.832 53.6294 128.888 53.9646 128.888C54.3396 128.888 54.672 128.822 54.9618 128.692C55.2516 128.561 55.4788 128.379 55.6436 128.146C55.8084 127.913 55.8908 127.643 55.8908 127.337C55.8908 127.016 55.8112 126.733 55.6521 126.489C55.4931 126.241 55.2601 126.048 54.9533 125.909C54.6465 125.77 54.2715 125.7 53.8283 125.7H53.1294V124.763H53.8283C54.1749 124.763 54.4788 124.7 54.7402 124.575C55.0044 124.45 55.2104 124.274 55.3581 124.047C55.5087 123.82 55.584 123.552 55.584 123.246C55.584 122.95 55.5186 122.693 55.3879 122.474C55.2573 122.256 55.0726 122.085 54.834 121.963C54.5982 121.841 54.3198 121.78 53.9987 121.78C53.6976 121.78 53.4135 121.835 53.1465 121.946C52.8823 122.054 52.6663 122.212 52.4987 122.419C52.3311 122.623 52.2402 122.871 52.226 123.16H51.2033C51.2203 122.703 51.3581 122.302 51.6166 121.959C51.8752 121.612 52.2132 121.342 52.6308 121.149C53.0513 120.956 53.5129 120.859 54.0158 120.859C54.5556 120.859 55.0186 120.969 55.405 121.187C55.7913 121.403 56.0882 121.689 56.2956 122.044C56.503 122.399 56.6067 122.783 56.6067 123.195C56.6067 123.686 56.4774 124.105 56.2189 124.452C55.9632 124.798 55.6152 125.038 55.1749 125.172V125.24C55.726 125.331 56.1564 125.565 56.4661 125.943C56.7757 126.318 56.9306 126.783 56.9306 127.337C56.9306 127.811 56.8013 128.237 56.5428 128.615C56.2871 128.99 55.9377 129.285 55.4945 129.501C55.0513 129.717 54.547 129.825 53.9817 129.825Z" fill="black"/>
<path d="M3.27273 140.028H12V141.085H4.38068V141.136L5.79545 143.267H4.72159L3.27273 141.085L3.27273 140.028ZM12.1193 134.672C12.1193 135.314 11.9446 135.861 11.5952 136.312C11.2429 136.764 10.733 137.109 10.0653 137.348C9.39489 137.587 8.58523 137.706 7.63636 137.706C6.69318 137.706 5.88778 137.587 5.22017 137.348C4.54972 137.107 4.03835 136.76 3.68608 136.308C3.33097 135.854 3.15341 135.308 3.15341 134.672C3.15341 134.036 3.33097 133.491 3.68608 133.04C4.03835 132.585 4.54972 132.239 5.22017 132C5.88778 131.759 6.69318 131.638 7.63636 131.638C8.58523 131.638 9.39489 131.757 10.0653 131.996C10.733 132.234 11.2429 132.58 11.5952 133.031C11.9446 133.483 12.1193 134.03 12.1193 134.672ZM11.1818 134.672C11.1818 134.036 10.875 133.541 10.2614 133.189C9.64773 132.837 8.77273 132.661 7.63636 132.661C6.88068 132.661 6.23722 132.741 5.70597 132.903C5.17472 133.062 4.76989 133.293 4.49148 133.594C4.21307 133.892 4.07386 134.251 4.07386 134.672C4.07386 135.303 4.38494 135.795 5.0071 136.151C5.62642 136.506 6.50284 136.683 7.63636 136.683C8.39205 136.683 9.03409 136.604 9.5625 136.445C10.0909 136.286 10.4929 136.057 10.7685 135.759C11.044 135.457 11.1818 135.095 11.1818 134.672ZM12.1193 127.172C12.1193 127.814 11.9446 128.361 11.5952 128.812C11.2429 129.264 10.733 129.609 10.0653 129.848C9.39489 130.087 8.58523 130.206 7.63636 130.206C6.69318 130.206 5.88778 130.087 5.22017 129.848C4.54972 129.607 4.03835 129.26 3.68608 128.808C3.33097 128.354 3.15341 127.808 3.15341 127.172C3.15341 126.536 3.33097 125.991 3.68608 125.54C4.03835 125.085 4.54972 124.739 5.22017 124.5C5.88778 124.259 6.69318 124.138 7.63636 124.138C8.58523 124.138 9.39489 124.257 10.0653 124.496C10.733 124.734 11.2429 125.08 11.5952 125.531C11.9446 125.983 12.1193 126.53 12.1193 127.172ZM11.1818 127.172C11.1818 126.536 10.875 126.041 10.2614 125.689C9.64773 125.337 8.77273 125.161 7.63636 125.161C6.88068 125.161 6.23722 125.241 5.70597 125.403C5.17472 125.562 4.76989 125.793 4.49148 126.094C4.21307 126.392 4.07386 126.751 4.07386 127.172C4.07386 127.803 4.38494 128.295 5.0071 128.651C5.62642 129.006 6.50284 129.183 7.63636 129.183C8.39205 129.183 9.03409 129.104 9.5625 128.945C10.0909 128.786 10.4929 128.557 10.7685 128.259C11.044 127.957 11.1818 127.595 11.1818 127.172Z" fill="black"/>
</svg>
