<svg width="350" height="208" viewBox="0 0 350 208" fill="none" xmlns="http://www.w3.org/2000/svg">
<path d="M33.2294 82L33.2294 181.165" stroke="black"/>
<line x1="32.7294" y1="181.688" x2="133.035" y2="181.688" stroke="black"/>
<path d="M132.501 81.9999V181.165" stroke="black"/>
<path d="M124 173.476H42.0361" stroke="black"/>
<path d="M123.964 90L42 90" stroke="black"/>
<path d="M42.5361 90L42.5361 172.976" stroke="black"/>
<path d="M123.5 90.4999L123.5 173.476" stroke="black"/>
<path d="M131.834 82.5285L348.5 1" stroke="black"/>
<path d="M348.5 0.999969L348.5 21.5" stroke="black"/>
<line x1="327.5" y1="0.5" x2="348.994" y2="0.5" stroke="black"/>
<path d="M42.7292 173.559L123.5 128.5" stroke="black"/>
<line x1="132.737" y1="181.787" x2="348.702" y2="21.093" stroke="black"/>
<line x1="32.5891" y1="82.0515" x2="327.664" y2="0.49719" stroke="black"/>
<line x1="33.2294" y1="182.188" x2="33.2294" y2="207.776" stroke="black"/>
<line x1="32.7294" y1="181.665" x2="6.11765" y2="181.665" stroke="black"/>
<path d="M133 82.3824L6.11764 82.3824" stroke="black"/>
<line x1="132.512" y1="182.188" x2="132.512" y2="207.776" stroke="black"/>
<path d="M33.7529 132.547L28.7529 129.66V135.434L33.7529 132.547ZM23.5176 133.047H29.2529V132.047H23.5176V133.047Z" fill="black"/>
<path d="M41.9412 132.547L46.9412 135.434V129.66L41.9412 132.547ZM62.4118 132.047H46.4412V133.047H62.4118V132.047Z" fill="black"/>
<path d="M15.3294 181.165L18.2162 176.165H12.4427L15.3294 181.165ZM15.3294 82.9058L12.4427 87.9058H18.2162L15.3294 82.9058ZM15.8294 176.665L15.8294 87.4058H14.8294L14.8294 176.665H15.8294Z" fill="black"/>
<path d="M33.7529 198.565L38.7529 201.451V195.678L33.7529 198.565ZM132.012 198.565L127.012 195.678V201.451L132.012 198.565ZM38.2529 199.065L127.512 199.065V198.065L38.2529 198.065V199.065Z" fill="black"/>
<path d="M79.2516 196.119C78.6664 196.119 78.1493 196.016 77.7005 195.808C77.2544 195.598 76.9064 195.31 76.6564 194.943C76.4064 194.574 76.2828 194.153 76.2857 193.682C76.2828 193.312 76.3553 192.972 76.503 192.659C76.6507 192.344 76.8525 192.081 77.1081 191.871C77.3667 191.658 77.655 191.523 77.9732 191.466V191.415C77.5556 191.307 77.2232 191.072 76.976 190.712C76.7289 190.348 76.6067 189.935 76.6096 189.472C76.6067 189.028 76.7189 188.632 76.9462 188.283C77.1735 187.933 77.486 187.658 77.8837 187.456C78.2843 187.254 78.7402 187.153 79.2516 187.153C79.7573 187.153 80.209 187.254 80.6067 187.456C81.0044 187.658 81.3169 187.933 81.5442 188.283C81.7743 188.632 81.8908 189.028 81.8936 189.472C81.8908 189.935 81.7644 190.348 81.5144 190.712C81.2672 191.072 80.9391 191.307 80.53 191.415V191.466C80.8453 191.523 81.1294 191.658 81.3823 191.871C81.6351 192.081 81.8368 192.344 81.9874 192.659C82.138 192.972 82.2147 193.312 82.2175 193.682C82.2147 194.153 82.0868 194.574 81.834 194.943C81.584 195.31 81.236 195.598 80.79 195.808C80.3468 196.016 79.834 196.119 79.2516 196.119ZM79.2516 195.182C79.6465 195.182 79.9874 195.118 80.2743 194.99C80.5613 194.862 80.7828 194.682 80.9391 194.449C81.0953 194.216 81.1749 193.943 81.1777 193.631C81.1749 193.301 81.0897 193.01 80.9221 192.757C80.7544 192.504 80.5257 192.305 80.236 192.161C79.949 192.016 79.6209 191.943 79.2516 191.943C78.8794 191.943 78.5471 192.016 78.2544 192.161C77.9647 192.305 77.736 192.504 77.5684 192.757C77.4036 193.01 77.3226 193.301 77.3255 193.631C77.3226 193.943 77.3979 194.216 77.5513 194.449C77.7076 194.682 77.9306 194.862 78.2203 194.99C78.5101 195.118 78.8539 195.182 79.2516 195.182ZM79.2516 191.04C79.5641 191.04 79.8411 190.977 80.0826 190.852C80.3269 190.727 80.5186 190.553 80.6578 190.328C80.7971 190.104 80.8681 189.841 80.8709 189.54C80.8681 189.244 80.7985 188.987 80.6621 188.768C80.5257 188.547 80.3368 188.376 80.0953 188.257C79.8539 188.135 79.5726 188.074 79.2516 188.074C78.9249 188.074 78.6394 188.135 78.3951 188.257C78.1507 188.376 77.9618 188.547 77.8283 188.768C77.6948 188.987 77.6294 189.244 77.6323 189.54C77.6294 189.841 77.6962 190.104 77.8326 190.328C77.9718 190.553 78.1635 190.727 78.4078 190.852C78.6522 190.977 78.9334 191.04 79.2516 191.04ZM86.6973 196.119C86.0552 196.119 85.5083 195.945 85.0566 195.595C84.6049 195.243 84.2598 194.733 84.0211 194.065C83.7825 193.395 83.6632 192.585 83.6632 191.636C83.6632 190.693 83.7825 189.888 84.0211 189.22C84.2626 188.55 84.6092 188.038 85.0609 187.686C85.5154 187.331 86.0609 187.153 86.6973 187.153C87.3336 187.153 87.8777 187.331 88.3294 187.686C88.7839 188.038 89.1305 188.55 89.3691 189.22C89.6106 189.888 89.7314 190.693 89.7314 191.636C89.7314 192.585 89.612 193.395 89.3734 194.065C89.1348 194.733 88.7896 195.243 88.3379 195.595C87.8862 195.945 87.3393 196.119 86.6973 196.119ZM86.6973 195.182C87.3336 195.182 87.8279 194.875 88.1802 194.261C88.5325 193.648 88.7086 192.773 88.7086 191.636C88.7086 190.881 88.6277 190.237 88.4657 189.706C88.3066 189.175 88.0765 188.77 87.7754 188.491C87.4771 188.213 87.1177 188.074 86.6973 188.074C86.0666 188.074 85.5737 188.385 85.2186 189.007C84.8635 189.626 84.6859 190.503 84.6859 191.636C84.6859 192.392 84.7654 193.034 84.9245 193.562C85.0836 194.091 85.3123 194.493 85.6106 194.768C85.9118 195.044 86.274 195.182 86.6973 195.182Z" fill="black"/>
<path d="M51.0328 129.706V128.939L53.9135 125.785C54.2516 125.416 54.53 125.095 54.7487 124.822C54.9675 124.547 55.1294 124.288 55.2345 124.047C55.3425 123.802 55.3965 123.547 55.3965 123.28C55.3965 122.973 55.3226 122.707 55.1749 122.483C55.03 122.258 54.8311 122.085 54.5783 121.963C54.3254 121.841 54.0413 121.78 53.726 121.78C53.3908 121.78 53.0982 121.849 52.8482 121.989C52.601 122.125 52.4092 122.317 52.2729 122.564C52.1394 122.811 52.0726 123.101 52.0726 123.433H51.0669C51.0669 122.922 51.1848 122.473 51.4206 122.087C51.6564 121.7 51.9774 121.399 52.3837 121.183C52.7928 120.967 53.2516 120.859 53.7601 120.859C54.2715 120.859 54.7246 120.967 55.1195 121.183C55.5144 121.399 55.824 121.69 56.0484 122.057C56.2729 122.423 56.3851 122.831 56.3851 123.28C56.3851 123.601 56.3269 123.915 56.2104 124.221C56.0967 124.525 55.8979 124.865 55.6138 125.24C55.3325 125.612 54.9419 126.067 54.4419 126.604L52.4817 128.7V128.768H56.5385V129.706H51.0328Z" fill="black"/>
<path d="M12.1193 135.748C12.1193 136.334 12.0156 136.851 11.8082 137.3C11.598 137.746 11.3097 138.094 10.9432 138.344C10.5739 138.594 10.1534 138.717 9.68182 138.714C9.3125 138.717 8.97159 138.645 8.65909 138.497C8.34375 138.349 8.08097 138.148 7.87074 137.892C7.65767 137.633 7.52273 137.345 7.46591 137.027H7.41477C7.30682 137.444 7.07244 137.777 6.71165 138.024C6.34801 138.271 5.93466 138.393 5.47159 138.39C5.02841 138.393 4.6321 138.281 4.28267 138.054C3.93324 137.827 3.65767 137.514 3.45597 137.116C3.25426 136.716 3.15341 136.26 3.15341 135.748C3.15341 135.243 3.25426 134.791 3.45597 134.393C3.65767 133.996 3.93324 133.683 4.28267 133.456C4.6321 133.226 5.02841 133.109 5.47159 133.106C5.93466 133.109 6.34801 133.236 6.71165 133.486C7.07244 133.733 7.30682 134.061 7.41477 134.47H7.46591C7.52273 134.155 7.65767 133.871 7.87074 133.618C8.08097 133.365 8.34375 133.163 8.65909 133.013C8.97159 132.862 9.3125 132.785 9.68182 132.782C10.1534 132.785 10.5739 132.913 10.9432 133.166C11.3097 133.416 11.598 133.764 11.8082 134.21C12.0156 134.653 12.1193 135.166 12.1193 135.748ZM11.1818 135.748C11.1818 135.354 11.1179 135.013 10.9901 134.726C10.8622 134.439 10.6818 134.217 10.4489 134.061C10.2159 133.905 9.94318 133.825 9.63068 133.822C9.30114 133.825 9.00994 133.91 8.7571 134.078C8.50426 134.246 8.3054 134.474 8.16051 134.764C8.01562 135.051 7.94318 135.379 7.94318 135.748C7.94318 136.121 8.01562 136.453 8.16051 136.746C8.3054 137.035 8.50426 137.264 8.7571 137.432C9.00994 137.596 9.30114 137.677 9.63068 137.675C9.94318 137.677 10.2159 137.602 10.4489 137.449C10.6818 137.292 10.8622 137.069 10.9901 136.78C11.1179 136.49 11.1818 136.146 11.1818 135.748ZM7.03977 135.748C7.03977 135.436 6.97727 135.159 6.85227 134.917C6.72727 134.673 6.55256 134.481 6.32813 134.342C6.10369 134.203 5.84091 134.132 5.53977 134.129C5.24432 134.132 4.98722 134.202 4.76847 134.338C4.54687 134.474 4.37642 134.663 4.2571 134.905C4.13494 135.146 4.07386 135.427 4.07386 135.748C4.07386 136.075 4.13494 136.361 4.2571 136.605C4.37642 136.849 4.54687 137.038 4.76847 137.172C4.98722 137.305 5.24432 137.371 5.53977 137.368C5.84091 137.371 6.10369 137.304 6.32812 137.167C6.55256 137.028 6.72727 136.836 6.85227 136.592C6.97727 136.348 7.03977 136.067 7.03977 135.748ZM12.1193 128.303C12.1193 128.945 11.9446 129.492 11.5952 129.943C11.2429 130.395 10.733 130.74 10.0653 130.979C9.39489 131.218 8.58523 131.337 7.63636 131.337C6.69318 131.337 5.88778 131.218 5.22017 130.979C4.54972 130.737 4.03835 130.391 3.68608 129.939C3.33097 129.485 3.15341 128.939 3.15341 128.303C3.15341 127.666 3.33097 127.122 3.68608 126.671C4.03835 126.216 4.54972 125.869 5.22017 125.631C5.88778 125.389 6.69318 125.269 7.63636 125.269C8.58523 125.269 9.39489 125.388 10.0653 125.627C10.733 125.865 11.2429 126.21 11.5952 126.662C11.9446 127.114 12.1193 127.661 12.1193 128.303ZM11.1818 128.303C11.1818 127.666 10.875 127.172 10.2614 126.82C9.64773 126.468 8.77273 126.291 7.63636 126.291C6.88068 126.291 6.23722 126.372 5.70597 126.534C5.17472 126.693 4.76989 126.923 4.49148 127.225C4.21307 127.523 4.07386 127.882 4.07386 128.303C4.07386 128.933 4.38494 129.426 5.0071 129.781C5.62642 130.137 6.50284 130.314 7.63636 130.314C8.39205 130.314 9.03409 130.235 9.5625 130.075C10.0909 129.916 10.4929 129.688 10.7685 129.389C11.044 129.088 11.1818 128.726 11.1818 128.303Z" fill="black"/>
</svg>
