<svg width="350" height="208" viewBox="0 0 350 208" fill="none" xmlns="http://www.w3.org/2000/svg">
<path d="M33.2294 82L33.2294 181.165" stroke="black"/>
<line x1="32.7294" y1="181.688" x2="133.035" y2="181.688" stroke="black"/>
<path d="M132.501 81.9999V181.165" stroke="black"/>
<path d="M124 173.476H42.0361" stroke="black"/>
<path d="M123.964 90L42 90" stroke="black"/>
<path d="M42.5361 90L42.5361 172.976" stroke="black"/>
<path d="M123.5 90.4999L123.5 173.476" stroke="black"/>
<path d="M131.834 82.5285L348.5 1" stroke="black"/>
<path d="M348.5 0.999969L348.5 21.5" stroke="black"/>
<line x1="327.5" y1="0.5" x2="348.994" y2="0.5" stroke="black"/>
<path d="M42.7292 173.559L123.5 128.5" stroke="black"/>
<line x1="132.737" y1="181.787" x2="348.702" y2="21.093" stroke="black"/>
<line x1="32.5891" y1="82.0515" x2="327.664" y2="0.49719" stroke="black"/>
<line x1="33.2294" y1="182.188" x2="33.2294" y2="207.776" stroke="black"/>
<line x1="32.7294" y1="181.665" x2="6.11765" y2="181.665" stroke="black"/>
<path d="M133 82.3824L6.11764 82.3824" stroke="black"/>
<line x1="132.512" y1="182.188" x2="132.512" y2="207.776" stroke="black"/>
<path d="M33.7529 132.547L28.7529 129.66V135.434L33.7529 132.547ZM23.5176 133.047H29.2529V132.047H23.5176V133.047Z" fill="black"/>
<path d="M41.9412 132.547L46.9412 135.434V129.66L41.9412 132.547ZM62.4118 132.047H46.4412V133.047H62.4118V132.047Z" fill="black"/>
<path d="M15.3294 181.165L18.2162 176.165H12.4427L15.3294 181.165ZM15.3294 82.9058L12.4427 87.9058H18.2162L15.3294 82.9058ZM15.8294 176.665L15.8294 87.4058H14.8294L14.8294 176.665H15.8294Z" fill="black"/>
<path d="M33.7529 198.565L38.7529 201.451V195.678L33.7529 198.565ZM132.012 198.565L127.012 195.678V201.451L132.012 198.565ZM38.2529 199.065L127.512 199.065V198.065L38.2529 198.065V199.065Z" fill="black"/>
<path d="M76.0993 194.21V193.341L79.9345 187.273H80.5652V188.619H80.139L77.2413 193.205V193.273H82.4061V194.21H76.0993ZM80.2072 196V193.946V193.541V187.273H81.2129V196H80.2072ZM86.8496 196.119C86.2076 196.119 85.6607 195.945 85.209 195.595C84.7573 195.243 84.4121 194.733 84.1735 194.065C83.9348 193.395 83.8155 192.585 83.8155 191.636C83.8155 190.693 83.9348 189.888 84.1735 189.22C84.415 188.55 84.7615 188.038 85.2132 187.686C85.6678 187.331 86.2132 187.153 86.8496 187.153C87.486 187.153 88.03 187.331 88.4817 187.686C88.9363 188.038 89.2828 188.55 89.5215 189.22C89.763 189.888 89.8837 190.693 89.8837 191.636C89.8837 192.585 89.7644 193.395 89.5257 194.065C89.2871 194.733 88.9419 195.243 88.4902 195.595C88.0385 195.945 87.4917 196.119 86.8496 196.119ZM86.8496 195.182C87.486 195.182 87.9803 194.875 88.3326 194.261C88.6848 193.648 88.861 192.773 88.861 191.636C88.861 190.881 88.78 190.237 88.6181 189.706C88.459 189.175 88.2289 188.77 87.9277 188.491C87.6294 188.213 87.2701 188.074 86.8496 188.074C86.2189 188.074 85.726 188.385 85.3709 189.007C85.0158 189.626 84.8382 190.503 84.8382 191.636C84.8382 192.392 84.9178 193.034 85.0769 193.562C85.236 194.091 85.4647 194.493 85.763 194.768C86.0641 195.044 86.4263 195.182 86.8496 195.182Z" fill="black"/>
<path d="M51.7706 130V129.233L54.6513 126.08C54.9893 125.71 55.2678 125.389 55.4865 125.116C55.7053 124.841 55.8672 124.582 55.9723 124.341C56.0803 124.097 56.1342 123.841 56.1342 123.574C56.1342 123.267 56.0604 123.001 55.9126 122.777C55.7678 122.553 55.5689 122.379 55.3161 122.257C55.0632 122.135 54.7791 122.074 54.4638 122.074C54.1286 122.074 53.8359 122.143 53.5859 122.283C53.3388 122.419 53.147 122.611 53.0107 122.858C52.8771 123.105 52.8104 123.395 52.8104 123.727H51.8047C51.8047 123.216 51.9226 122.767 52.1584 122.381C52.3942 121.994 52.7152 121.693 53.1214 121.477C53.5305 121.261 53.9893 121.153 54.4979 121.153C55.0092 121.153 55.4624 121.261 55.8572 121.477C56.2521 121.693 56.5618 121.984 56.7862 122.351C57.0107 122.717 57.1229 123.125 57.1229 123.574C57.1229 123.895 57.0646 124.209 56.9482 124.516C56.8345 124.82 56.6357 125.159 56.3516 125.534C56.0703 125.906 55.6797 126.361 55.1797 126.898L53.2195 128.994V129.062H57.2763V130H51.7706Z" fill="black"/>
<path d="M12 138.479H11.233L8.07955 135.599C7.71023 135.261 7.3892 134.982 7.11648 134.763C6.84091 134.545 6.58239 134.383 6.34091 134.278C6.09659 134.17 5.84091 134.116 5.57386 134.116C5.26705 134.116 5.00142 134.19 4.77699 134.337C4.55256 134.482 4.37926 134.681 4.2571 134.934C4.13494 135.187 4.07386 135.471 4.07386 135.786C4.07386 136.121 4.14347 136.414 4.28267 136.664C4.41903 136.911 4.6108 137.103 4.85795 137.239C5.10511 137.373 5.39489 137.44 5.72727 137.44V138.445C5.21591 138.445 4.76705 138.327 4.38068 138.092C3.99432 137.856 3.69318 137.535 3.47727 137.129C3.26136 136.719 3.15341 136.261 3.15341 135.752C3.15341 135.241 3.26136 134.788 3.47727 134.393C3.69318 133.998 3.98437 133.688 4.35085 133.464C4.71733 133.239 5.125 133.127 5.57386 133.127C5.89489 133.127 6.20881 133.185 6.51563 133.302C6.8196 133.415 7.15909 133.614 7.53409 133.898C7.90625 134.18 8.3608 134.57 8.89773 135.07L10.9943 137.031H11.0625V132.974H12V138.479ZM12.1193 128.367C12.1193 129.009 11.9446 129.556 11.5952 130.008C11.2429 130.46 10.733 130.805 10.0653 131.043C9.39489 131.282 8.58523 131.401 7.63636 131.401C6.69318 131.401 5.88778 131.282 5.22017 131.043C4.54972 130.802 4.03835 130.455 3.68608 130.004C3.33097 129.549 3.15341 129.004 3.15341 128.367C3.15341 127.731 3.33097 127.187 3.68608 126.735C4.03835 126.281 4.54972 125.934 5.22017 125.695C5.88778 125.454 6.69318 125.333 7.63636 125.333C8.58523 125.333 9.39489 125.452 10.0653 125.691C10.733 125.93 11.2429 126.275 11.5952 126.727C11.9446 127.178 12.1193 127.725 12.1193 128.367ZM11.1818 128.367C11.1818 127.731 10.875 127.237 10.2614 126.884C9.64773 126.532 8.77273 126.356 7.63636 126.356C6.88068 126.356 6.23722 126.437 5.70597 126.599C5.17472 126.758 4.76989 126.988 4.49148 127.289C4.21307 127.587 4.07386 127.947 4.07386 128.367C4.07386 128.998 4.38494 129.491 5.0071 129.846C5.62642 130.201 6.50284 130.379 7.63636 130.379C8.39205 130.379 9.03409 130.299 9.5625 130.14C10.0909 129.981 10.4929 129.752 10.7685 129.454C11.044 129.153 11.1818 128.79 11.1818 128.367Z" fill="black"/>
</svg>
