<svg width="350" height="208" viewBox="0 0 350 208" fill="none" xmlns="http://www.w3.org/2000/svg">
<path d="M33.2294 82L33.2294 181.165" stroke="black"/>
<line x1="32.7294" y1="181.688" x2="133.035" y2="181.688" stroke="black"/>
<path d="M132.501 81.9999V181.165" stroke="black"/>
<path d="M124 173.476H42.0361" stroke="black"/>
<path d="M123.964 90L42 90" stroke="black"/>
<path d="M42.5361 90L42.5361 172.976" stroke="black"/>
<path d="M123.5 90.4999L123.5 173.476" stroke="black"/>
<path d="M131.834 82.5285L348.5 1" stroke="black"/>
<path d="M348.5 0.999969L348.5 21.5" stroke="black"/>
<line x1="327.5" y1="0.5" x2="348.994" y2="0.5" stroke="black"/>
<path d="M42.7292 173.559L123.5 128.5" stroke="black"/>
<line x1="132.737" y1="181.787" x2="348.702" y2="21.093" stroke="black"/>
<line x1="32.5891" y1="82.0515" x2="327.664" y2="0.49719" stroke="black"/>
<line x1="33.2294" y1="182.188" x2="33.2294" y2="207.776" stroke="black"/>
<line x1="32.7294" y1="181.665" x2="6.11765" y2="181.665" stroke="black"/>
<path d="M133 82.3824L6.11764 82.3824" stroke="black"/>
<line x1="132.512" y1="182.188" x2="132.512" y2="207.776" stroke="black"/>
<path d="M33.7529 132.547L28.7529 129.66V135.434L33.7529 132.547ZM23.5176 133.047H29.2529V132.047H23.5176V133.047Z" fill="black"/>
<path d="M41.9412 132.547L46.9412 135.434V129.66L41.9412 132.547ZM62.4118 132.047H46.4412V133.047H62.4118V132.047Z" fill="black"/>
<path d="M15.3294 181.165L18.2162 176.165H12.4427L15.3294 181.165ZM15.3294 82.9058L12.4427 87.9058H18.2162L15.3294 82.9058ZM15.8294 176.665L15.8294 87.4058H14.8294L14.8294 176.665H15.8294Z" fill="black"/>
<path d="M33.7529 198.565L38.7529 201.451V195.678L33.7529 198.565ZM132.012 198.565L127.012 195.678V201.451L132.012 198.565ZM38.2529 199.065L127.512 199.065V198.065L38.2529 198.065V199.065Z" fill="black"/>
<path d="M79.2516 196.119C78.6664 196.119 78.1493 196.016 77.7005 195.808C77.2544 195.598 76.9064 195.31 76.6564 194.943C76.4064 194.574 76.2828 194.153 76.2857 193.682C76.2828 193.312 76.3553 192.972 76.503 192.659C76.6507 192.344 76.8525 192.081 77.1081 191.871C77.3667 191.658 77.655 191.523 77.9732 191.466V191.415C77.5556 191.307 77.2232 191.072 76.976 190.712C76.7289 190.348 76.6067 189.935 76.6096 189.472C76.6067 189.028 76.7189 188.632 76.9462 188.283C77.1735 187.933 77.486 187.658 77.8837 187.456C78.2843 187.254 78.7402 187.153 79.2516 187.153C79.7573 187.153 80.209 187.254 80.6067 187.456C81.0044 187.658 81.3169 187.933 81.5442 188.283C81.7743 188.632 81.8908 189.028 81.8936 189.472C81.8908 189.935 81.7644 190.348 81.5144 190.712C81.2672 191.072 80.9391 191.307 80.53 191.415V191.466C80.8453 191.523 81.1294 191.658 81.3823 191.871C81.6351 192.081 81.8368 192.344 81.9874 192.659C82.138 192.972 82.2147 193.312 82.2175 193.682C82.2147 194.153 82.0868 194.574 81.834 194.943C81.584 195.31 81.236 195.598 80.79 195.808C80.3468 196.016 79.834 196.119 79.2516 196.119ZM79.2516 195.182C79.6465 195.182 79.9874 195.118 80.2743 194.99C80.5613 194.862 80.7828 194.682 80.9391 194.449C81.0953 194.216 81.1749 193.943 81.1777 193.631C81.1749 193.301 81.0897 193.01 80.9221 192.757C80.7544 192.504 80.5257 192.305 80.236 192.161C79.949 192.016 79.6209 191.943 79.2516 191.943C78.8794 191.943 78.5471 192.016 78.2544 192.161C77.9647 192.305 77.736 192.504 77.5684 192.757C77.4036 193.01 77.3226 193.301 77.3255 193.631C77.3226 193.943 77.3979 194.216 77.5513 194.449C77.7076 194.682 77.9306 194.862 78.2203 194.99C78.5101 195.118 78.8539 195.182 79.2516 195.182ZM79.2516 191.04C79.5641 191.04 79.8411 190.977 80.0826 190.852C80.3269 190.727 80.5186 190.553 80.6578 190.328C80.7971 190.104 80.8681 189.841 80.8709 189.54C80.8681 189.244 80.7985 188.987 80.6621 188.768C80.5257 188.547 80.3368 188.376 80.0953 188.257C79.8539 188.135 79.5726 188.074 79.2516 188.074C78.9249 188.074 78.6394 188.135 78.3951 188.257C78.1507 188.376 77.9618 188.547 77.8283 188.768C77.6948 188.987 77.6294 189.244 77.6323 189.54C77.6294 189.841 77.6962 190.104 77.8326 190.328C77.9718 190.553 78.1635 190.727 78.4078 190.852C78.6522 190.977 78.9334 191.04 79.2516 191.04ZM86.6973 196.119C86.0552 196.119 85.5083 195.945 85.0566 195.595C84.6049 195.243 84.2598 194.733 84.0211 194.065C83.7825 193.395 83.6632 192.585 83.6632 191.636C83.6632 190.693 83.7825 189.888 84.0211 189.22C84.2626 188.55 84.6092 188.038 85.0609 187.686C85.5154 187.331 86.0609 187.153 86.6973 187.153C87.3336 187.153 87.8777 187.331 88.3294 187.686C88.7839 188.038 89.1305 188.55 89.3691 189.22C89.6106 189.888 89.7314 190.693 89.7314 191.636C89.7314 192.585 89.612 193.395 89.3734 194.065C89.1348 194.733 88.7896 195.243 88.3379 195.595C87.8862 195.945 87.3393 196.119 86.6973 196.119ZM86.6973 195.182C87.3336 195.182 87.8279 194.875 88.1802 194.261C88.5325 193.648 88.7086 192.773 88.7086 191.636C88.7086 190.881 88.6277 190.237 88.4657 189.706C88.3066 189.175 88.0765 188.77 87.7754 188.491C87.4771 188.213 87.1177 188.074 86.6973 188.074C86.0666 188.074 85.5737 188.385 85.2186 189.007C84.8635 189.626 84.6859 190.503 84.6859 191.636C84.6859 192.392 84.7654 193.034 84.9245 193.562C85.0836 194.091 85.3123 194.493 85.6106 194.768C85.9118 195.044 86.274 195.182 86.6973 195.182Z" fill="black"/>
<path d="M53.9817 129.825C53.4192 129.825 52.9178 129.729 52.4774 129.535C52.0399 129.342 51.6919 129.074 51.4334 128.73C51.1777 128.383 51.0385 127.981 51.0158 127.524H52.0896C52.1124 127.805 52.209 128.048 52.3794 128.253C52.5499 128.454 52.7729 128.611 53.0484 128.721C53.324 128.832 53.6294 128.888 53.9646 128.888C54.3396 128.888 54.672 128.822 54.9618 128.692C55.2516 128.561 55.4788 128.379 55.6436 128.146C55.8084 127.913 55.8908 127.643 55.8908 127.337C55.8908 127.016 55.8112 126.733 55.6521 126.489C55.4931 126.241 55.2601 126.048 54.9533 125.909C54.6465 125.77 54.2715 125.7 53.8283 125.7H53.1294V124.763H53.8283C54.1749 124.763 54.4788 124.7 54.7402 124.575C55.0044 124.45 55.2104 124.274 55.3581 124.047C55.5087 123.82 55.584 123.552 55.584 123.246C55.584 122.95 55.5186 122.693 55.3879 122.474C55.2573 122.256 55.0726 122.085 54.834 121.963C54.5982 121.841 54.3198 121.78 53.9987 121.78C53.6976 121.78 53.4135 121.835 53.1465 121.946C52.8823 122.054 52.6663 122.212 52.4987 122.419C52.3311 122.623 52.2402 122.871 52.226 123.16H51.2033C51.2203 122.703 51.3581 122.302 51.6166 121.959C51.8752 121.612 52.2132 121.342 52.6308 121.149C53.0513 120.956 53.5129 120.859 54.0158 120.859C54.5556 120.859 55.0186 120.969 55.405 121.187C55.7913 121.403 56.0882 121.689 56.2956 122.044C56.503 122.399 56.6067 122.783 56.6067 123.195C56.6067 123.686 56.4774 124.105 56.2189 124.452C55.9632 124.798 55.6152 125.038 55.1749 125.172V125.24C55.726 125.331 56.1564 125.565 56.4661 125.943C56.7757 126.318 56.9306 126.783 56.9306 127.337C56.9306 127.811 56.8013 128.237 56.5428 128.615C56.2871 128.99 55.9377 129.285 55.4945 129.501C55.0513 129.717 54.547 129.825 53.9817 129.825Z" fill="black"/>
<path d="M10.2102 138.901H9.34091L3.27273 135.066V134.435H4.61932V134.861L9.20455 137.759H9.27273V132.594H10.2102V138.901ZM12 134.793H9.94602H9.54119H3.27273V133.787H12V134.793ZM12.1193 128.15C12.1193 128.792 11.9446 129.339 11.5952 129.791C11.2429 130.243 10.733 130.588 10.0653 130.827C9.39489 131.065 8.58523 131.184 7.63636 131.184C6.69318 131.184 5.88778 131.065 5.22017 130.827C4.54972 130.585 4.03835 130.238 3.68608 129.787C3.33097 129.332 3.15341 128.787 3.15341 128.15C3.15341 127.514 3.33097 126.97 3.68608 126.518C4.03835 126.064 4.54972 125.717 5.22017 125.479C5.88778 125.237 6.69318 125.116 7.63636 125.116C8.58523 125.116 9.39489 125.236 10.0653 125.474C10.733 125.713 11.2429 126.058 11.5952 126.51C11.9446 126.961 12.1193 127.508 12.1193 128.15ZM11.1818 128.15C11.1818 127.514 10.875 127.02 10.2614 126.667C9.64773 126.315 8.77273 126.139 7.63636 126.139C6.88068 126.139 6.23722 126.22 5.70597 126.382C5.17472 126.541 4.76989 126.771 4.49148 127.072C4.21307 127.371 4.07386 127.73 4.07386 128.15C4.07386 128.781 4.38494 129.274 5.0071 129.629C5.62642 129.984 6.50284 130.162 7.63636 130.162C8.39205 130.162 9.03409 130.082 9.5625 129.923C10.0909 129.764 10.4929 129.535 10.7685 129.237C11.044 128.936 11.1818 128.574 11.1818 128.15Z" fill="black"/>
</svg>
