<svg width="350" height="208" viewBox="0 0 350 208" fill="none" xmlns="http://www.w3.org/2000/svg">
<path d="M33.2294 82L33.2294 181.165" stroke="black"/>
<line x1="32.7294" y1="181.688" x2="133.035" y2="181.688" stroke="black"/>
<path d="M132.501 81.9999V181.165" stroke="black"/>
<path d="M124 173.476H42.0361" stroke="black"/>
<path d="M123.964 90L42 90" stroke="black"/>
<path d="M42.5361 90L42.5361 172.976" stroke="black"/>
<path d="M123.5 90.4999L123.5 173.476" stroke="black"/>
<path d="M131.834 82.5285L348.5 1" stroke="black"/>
<path d="M348.5 0.999969L348.5 21.5" stroke="black"/>
<line x1="327.5" y1="0.5" x2="348.994" y2="0.5" stroke="black"/>
<path d="M42.7292 173.559L123.5 128.5" stroke="black"/>
<line x1="132.737" y1="181.787" x2="348.702" y2="21.093" stroke="black"/>
<line x1="32.5891" y1="82.0515" x2="327.664" y2="0.49719" stroke="black"/>
<line x1="33.2294" y1="182.188" x2="33.2294" y2="207.776" stroke="black"/>
<line x1="32.7294" y1="181.665" x2="6.11765" y2="181.665" stroke="black"/>
<path d="M133 82.3824L6.11764 82.3824" stroke="black"/>
<line x1="132.512" y1="182.188" x2="132.512" y2="207.776" stroke="black"/>
<path d="M33.7529 132.547L28.7529 129.66V135.434L33.7529 132.547ZM23.5176 133.047H29.2529V132.047H23.5176V133.047Z" fill="black"/>
<path d="M41.9412 132.547L46.9412 135.434V129.66L41.9412 132.547ZM62.4118 132.047H46.4412V133.047H62.4118V132.047Z" fill="black"/>
<path d="M15.3294 181.165L18.2162 176.165H12.4427L15.3294 181.165ZM15.3294 82.9058L12.4427 87.9058H18.2162L15.3294 82.9058ZM15.8294 176.665L15.8294 87.4058H14.8294L14.8294 176.665H15.8294Z" fill="black"/>
<path d="M33.7529 198.565L38.7529 201.451V195.678L33.7529 198.565ZM132.012 198.565L127.012 195.678V201.451L132.012 198.565ZM38.2529 199.065L127.512 199.065V198.065L38.2529 198.065V199.065Z" fill="black"/>
<path d="M79.307 196.119C78.949 196.114 78.5911 196.045 78.2331 195.915C77.8752 195.784 77.5485 195.564 77.253 195.254C76.9576 194.942 76.7203 194.52 76.5414 193.989C76.3624 193.455 76.2729 192.784 76.2729 191.977C76.2729 191.205 76.3453 190.52 76.4902 189.923C76.6351 189.324 76.8453 188.82 77.1209 188.411C77.3965 187.999 77.7289 187.686 78.1181 187.473C78.5101 187.26 78.9519 187.153 79.4434 187.153C79.932 187.153 80.3667 187.251 80.7473 187.447C81.1309 187.641 81.4434 187.911 81.6848 188.257C81.9263 188.604 82.0826 189.003 82.1536 189.455H81.1138C81.0172 189.062 80.8297 188.737 80.5513 188.479C80.2729 188.22 79.9036 188.091 79.4434 188.091C78.7672 188.091 78.2346 188.385 77.8453 188.973C77.459 189.561 77.2644 190.386 77.2615 191.449H77.3297C77.4888 191.207 77.6777 191.001 77.8965 190.831C78.1181 190.658 78.3624 190.524 78.6294 190.43C78.8965 190.337 79.1792 190.29 79.4775 190.29C79.9775 190.29 80.4348 190.415 80.8496 190.665C81.2644 190.912 81.5968 191.254 81.8468 191.692C82.0968 192.126 82.2218 192.625 82.2218 193.188C82.2218 193.727 82.101 194.222 81.8596 194.67C81.6181 195.116 81.2786 195.472 80.8411 195.736C80.4064 195.997 79.8951 196.125 79.307 196.119ZM79.307 195.182C79.665 195.182 79.986 195.092 80.2701 194.913C80.557 194.734 80.7828 194.494 80.9476 194.193C81.1152 193.892 81.199 193.557 81.199 193.188C81.199 192.827 81.1181 192.499 80.9561 192.203C80.7971 191.905 80.5769 191.668 80.2956 191.491C80.0172 191.315 79.699 191.227 79.3411 191.227C79.0712 191.227 78.8198 191.281 78.5868 191.389C78.3539 191.494 78.1493 191.639 77.9732 191.824C77.7999 192.009 77.6635 192.22 77.5641 192.459C77.4647 192.695 77.415 192.943 77.415 193.205C77.415 193.551 77.4959 193.875 77.6578 194.176C77.8226 194.477 78.0471 194.72 78.3311 194.905C78.6181 195.089 78.9434 195.182 79.307 195.182ZM86.7441 196.119C86.1021 196.119 85.5552 195.945 85.1035 195.595C84.6518 195.243 84.3066 194.733 84.068 194.065C83.8294 193.395 83.71 192.585 83.71 191.636C83.71 190.693 83.8294 189.888 84.068 189.22C84.3095 188.55 84.6561 188.038 85.1078 187.686C85.5623 187.331 86.1078 187.153 86.7441 187.153C87.3805 187.153 87.9245 187.331 88.3762 187.686C88.8308 188.038 89.1774 188.55 89.416 189.22C89.6575 189.888 89.7782 190.693 89.7782 191.636C89.7782 192.585 89.6589 193.395 89.4203 194.065C89.1816 194.733 88.8365 195.243 88.3848 195.595C87.9331 195.945 87.3862 196.119 86.7441 196.119ZM86.7441 195.182C87.3805 195.182 87.8748 194.875 88.2271 194.261C88.5794 193.648 88.7555 192.773 88.7555 191.636C88.7555 190.881 88.6745 190.237 88.5126 189.706C88.3535 189.175 88.1234 188.77 87.8223 188.491C87.524 188.213 87.1646 188.074 86.7441 188.074C86.1135 188.074 85.6206 188.385 85.2654 189.007C84.9103 189.626 84.7328 190.503 84.7328 191.636C84.7328 192.392 84.8123 193.034 84.9714 193.562C85.1305 194.091 85.3592 194.493 85.6575 194.768C85.9586 195.044 86.3208 195.182 86.7441 195.182Z" fill="black"/>
<path d="M51.7706 130V129.233L54.6513 126.08C54.9893 125.71 55.2678 125.389 55.4865 125.116C55.7053 124.841 55.8672 124.582 55.9723 124.341C56.0803 124.097 56.1342 123.841 56.1342 123.574C56.1342 123.267 56.0604 123.001 55.9126 122.777C55.7678 122.553 55.5689 122.379 55.3161 122.257C55.0632 122.135 54.7791 122.074 54.4638 122.074C54.1286 122.074 53.8359 122.143 53.5859 122.283C53.3388 122.419 53.147 122.611 53.0107 122.858C52.8771 123.105 52.8104 123.395 52.8104 123.727H51.8047C51.8047 123.216 51.9226 122.767 52.1584 122.381C52.3942 121.994 52.7152 121.693 53.1214 121.477C53.5305 121.261 53.9893 121.153 54.4979 121.153C55.0092 121.153 55.4624 121.261 55.8572 121.477C56.2521 121.693 56.5618 121.984 56.7862 122.351C57.0107 122.717 57.1229 123.125 57.1229 123.574C57.1229 123.895 57.0646 124.209 56.9482 124.516C56.8345 124.82 56.6357 125.159 56.3516 125.534C56.0703 125.906 55.6797 126.361 55.1797 126.898L53.2195 128.994V129.062H57.2763V130H51.7706Z" fill="black"/>
<path d="M12.1193 135.718C12.1193 136.281 12.0227 136.782 11.8295 137.222C11.6364 137.66 11.3679 138.008 11.0241 138.266C10.6776 138.522 10.2756 138.661 9.81818 138.684V137.61C10.0994 137.587 10.3423 137.491 10.5469 137.32C10.7486 137.15 10.9048 136.927 11.0156 136.651C11.1264 136.376 11.1818 136.07 11.1818 135.735C11.1818 135.36 11.1165 135.028 10.9858 134.738C10.8551 134.448 10.6733 134.221 10.4403 134.056C10.2074 133.891 9.9375 133.809 9.63068 133.809C9.30966 133.809 9.02699 133.888 8.78267 134.048C8.53551 134.207 8.34233 134.44 8.20312 134.746C8.06392 135.053 7.99432 135.428 7.99432 135.871V136.57H7.05682V135.871C7.05682 135.525 6.99432 135.221 6.86932 134.96C6.74432 134.695 6.56818 134.489 6.34091 134.342C6.11364 134.191 5.84659 134.116 5.53977 134.116C5.24432 134.116 4.98722 134.181 4.76847 134.312C4.54972 134.442 4.37926 134.627 4.2571 134.866C4.13494 135.102 4.07386 135.38 4.07386 135.701C4.07386 136.002 4.12926 136.286 4.24006 136.553C4.34801 136.817 4.50568 137.033 4.71307 137.201C4.91761 137.369 5.16477 137.46 5.45455 137.474V138.496C4.99716 138.479 4.59659 138.342 4.25284 138.083C3.90625 137.825 3.63636 137.487 3.44318 137.069C3.25 136.648 3.15341 136.187 3.15341 135.684C3.15341 135.144 3.26278 134.681 3.48153 134.295C3.69744 133.908 3.98295 133.612 4.33807 133.404C4.69318 133.197 5.0767 133.093 5.48864 133.093C5.98011 133.093 6.39915 133.222 6.74574 133.481C7.09233 133.737 7.33239 134.085 7.46591 134.525H7.53409C7.625 133.974 7.85937 133.543 8.23722 133.234C8.61222 132.924 9.0767 132.769 9.63068 132.769C10.1051 132.769 10.5312 132.898 10.9091 133.157C11.2841 133.413 11.5795 133.762 11.7955 134.205C12.0114 134.648 12.1193 135.153 12.1193 135.718ZM12.1193 128.18C12.1193 128.822 11.9446 129.369 11.5952 129.82C11.2429 130.272 10.733 130.617 10.0653 130.856C9.39489 131.094 8.58523 131.214 7.63636 131.214C6.69318 131.214 5.88778 131.094 5.22017 130.856C4.54972 130.614 4.03835 130.268 3.68608 129.816C3.33097 129.362 3.15341 128.816 3.15341 128.18C3.15341 127.543 3.33097 126.999 3.68608 126.548C4.03835 126.093 4.54972 125.746 5.22017 125.508C5.88778 125.266 6.69318 125.146 7.63636 125.146C8.58523 125.146 9.39489 125.265 10.0653 125.504C10.733 125.742 11.2429 126.087 11.5952 126.539C11.9446 126.991 12.1193 127.538 12.1193 128.18ZM11.1818 128.18C11.1818 127.543 10.875 127.049 10.2614 126.697C9.64773 126.344 8.77273 126.168 7.63636 126.168C6.88068 126.168 6.23722 126.249 5.70597 126.411C5.17472 126.57 4.76989 126.8 4.49148 127.102C4.21307 127.4 4.07386 127.759 4.07386 128.18C4.07386 128.81 4.38494 129.303 5.0071 129.658C5.62642 130.013 6.50284 130.191 7.63636 130.191C8.39205 130.191 9.03409 130.112 9.5625 129.952C10.0909 129.793 10.4929 129.565 10.7685 129.266C11.044 128.965 11.1818 128.603 11.1818 128.18Z" fill="black"/>
</svg>
