<svg width="350" height="208" viewBox="0 0 350 208" fill="none" xmlns="http://www.w3.org/2000/svg">
<path d="M33.2294 82L33.2294 181.165" stroke="black"/>
<line x1="32.7294" y1="181.688" x2="133.035" y2="181.688" stroke="black"/>
<path d="M132.501 81.9999V181.165" stroke="black"/>
<path d="M124 173.476H42.0361" stroke="black"/>
<path d="M123.964 90L42 90" stroke="black"/>
<path d="M42.5361 90L42.5361 172.976" stroke="black"/>
<path d="M123.5 90.4999L123.5 173.476" stroke="black"/>
<path d="M131.834 82.5285L348.5 1" stroke="black"/>
<path d="M348.5 0.999969L348.5 21.5" stroke="black"/>
<line x1="327.5" y1="0.5" x2="348.994" y2="0.5" stroke="black"/>
<path d="M42.7292 173.559L123.5 128.5" stroke="black"/>
<line x1="132.737" y1="181.787" x2="348.702" y2="21.093" stroke="black"/>
<line x1="32.5891" y1="82.0515" x2="327.664" y2="0.49719" stroke="black"/>
<line x1="33.2294" y1="182.188" x2="33.2294" y2="207.776" stroke="black"/>
<line x1="32.7294" y1="181.665" x2="6.11765" y2="181.665" stroke="black"/>
<path d="M133 82.3824L6.11764 82.3824" stroke="black"/>
<line x1="132.512" y1="182.188" x2="132.512" y2="207.776" stroke="black"/>
<path d="M33.7529 132.547L28.7529 129.66V135.434L33.7529 132.547ZM23.5176 133.047H29.2529V132.047H23.5176V133.047Z" fill="black"/>
<path d="M41.9412 132.547L46.9412 135.434V129.66L41.9412 132.547ZM62.4118 132.047H46.4412V133.047H62.4118V132.047Z" fill="black"/>
<path d="M15.3294 181.165L18.2162 176.165H12.4427L15.3294 181.165ZM15.3294 82.9058L12.4427 87.9058H18.2162L15.3294 82.9058ZM15.8294 176.665L15.8294 87.4058H14.8294L14.8294 176.665H15.8294Z" fill="black"/>
<path d="M33.7529 198.565L38.7529 201.451V195.678L33.7529 198.565ZM132.012 198.565L127.012 195.678V201.451L132.012 198.565ZM38.2529 199.065L127.512 199.065V198.065L38.2529 198.065V199.065Z" fill="black"/>
<path d="M79.2303 196.119C78.7303 196.119 78.28 196.02 77.8794 195.821C77.4789 195.622 77.1578 195.349 76.9164 195.003C76.6749 194.656 76.5428 194.261 76.5201 193.818H77.5428C77.5826 194.213 77.7615 194.54 78.0797 194.798C78.4007 195.054 78.7843 195.182 79.2303 195.182C79.5882 195.182 79.9064 195.098 80.1848 194.93C80.4661 194.763 80.6863 194.533 80.8453 194.24C81.0073 193.945 81.0882 193.611 81.0882 193.239C81.0882 192.858 81.0044 192.518 80.8368 192.22C80.6721 191.919 80.4448 191.682 80.155 191.509C79.8652 191.335 79.5343 191.247 79.1621 191.244C78.8951 191.241 78.6209 191.283 78.3397 191.368C78.0584 191.45 77.8269 191.557 77.6451 191.688L76.6564 191.568L77.1848 187.273H81.7189V188.21H78.0712L77.7644 190.784H77.8155C77.9945 190.642 78.2189 190.524 78.4888 190.43C78.7587 190.337 79.04 190.29 79.3326 190.29C79.8667 190.29 80.3425 190.418 80.7601 190.673C81.1806 190.926 81.5101 191.273 81.7488 191.713C81.9902 192.153 82.111 192.656 82.111 193.222C82.111 193.778 81.986 194.276 81.736 194.713C81.4888 195.148 81.1479 195.491 80.7132 195.744C80.2786 195.994 79.7843 196.119 79.2303 196.119ZM86.6504 196.119C86.0083 196.119 85.4615 195.945 85.0098 195.595C84.5581 195.243 84.2129 194.733 83.9743 194.065C83.7356 193.395 83.6163 192.585 83.6163 191.636C83.6163 190.693 83.7356 189.888 83.9743 189.22C84.2157 188.55 84.5623 188.038 85.014 187.686C85.4686 187.331 86.014 187.153 86.6504 187.153C87.2868 187.153 87.8308 187.331 88.2825 187.686C88.737 188.038 89.0836 188.55 89.3223 189.22C89.5637 189.888 89.6845 190.693 89.6845 191.636C89.6845 192.585 89.5652 193.395 89.3265 194.065C89.0879 194.733 88.7427 195.243 88.291 195.595C87.8393 195.945 87.2924 196.119 86.6504 196.119ZM86.6504 195.182C87.2868 195.182 87.7811 194.875 88.1333 194.261C88.4856 193.648 88.6618 192.773 88.6618 191.636C88.6618 190.881 88.5808 190.237 88.4189 189.706C88.2598 189.175 88.0297 188.77 87.7285 188.491C87.4302 188.213 87.0708 188.074 86.6504 188.074C86.0197 188.074 85.5268 188.385 85.1717 189.007C84.8166 189.626 84.639 190.503 84.639 191.636C84.639 192.392 84.7186 193.034 84.8777 193.562C85.0368 194.091 85.2654 194.493 85.5637 194.768C85.8649 195.044 86.2271 195.182 86.6504 195.182Z" fill="black"/>
<path d="M51.7706 130V129.233L54.6513 126.08C54.9893 125.71 55.2678 125.389 55.4865 125.116C55.7053 124.841 55.8672 124.582 55.9723 124.341C56.0803 124.097 56.1342 123.841 56.1342 123.574C56.1342 123.267 56.0604 123.001 55.9126 122.777C55.7678 122.553 55.5689 122.379 55.3161 122.257C55.0632 122.135 54.7791 122.074 54.4638 122.074C54.1286 122.074 53.8359 122.143 53.5859 122.283C53.3388 122.419 53.147 122.611 53.0107 122.858C52.8771 123.105 52.8104 123.395 52.8104 123.727H51.8047C51.8047 123.216 51.9226 122.767 52.1584 122.381C52.3942 121.994 52.7152 121.693 53.1214 121.477C53.5305 121.261 53.9893 121.153 54.4979 121.153C55.0092 121.153 55.4624 121.261 55.8572 121.477C56.2521 121.693 56.5618 121.984 56.7862 122.351C57.0107 122.717 57.1229 123.125 57.1229 123.574C57.1229 123.895 57.0646 124.209 56.9482 124.516C56.8345 124.82 56.6357 125.159 56.3516 125.534C56.0703 125.906 55.6797 126.361 55.1797 126.898L53.2195 128.994V129.062H57.2763V130H51.7706Z" fill="black"/>
<path d="M12 138.38H11.233L8.07955 135.499C7.71023 135.161 7.3892 134.883 7.11648 134.664C6.84091 134.445 6.58239 134.283 6.34091 134.178C6.09659 134.07 5.84091 134.016 5.57386 134.016C5.26705 134.016 5.00142 134.09 4.77699 134.238C4.55256 134.383 4.37926 134.581 4.2571 134.834C4.13494 135.087 4.07386 135.371 4.07386 135.687C4.07386 136.022 4.14347 136.314 4.28267 136.564C4.41903 136.812 4.6108 137.003 4.85795 137.14C5.10511 137.273 5.39489 137.34 5.72727 137.34V138.346C5.21591 138.346 4.76705 138.228 4.38068 137.992C3.99432 137.756 3.69318 137.435 3.47727 137.029C3.26136 136.62 3.15341 136.161 3.15341 135.653C3.15341 135.141 3.26136 134.688 3.47727 134.293C3.69318 133.898 3.98437 133.589 4.35085 133.364C4.71733 133.14 5.125 133.028 5.57386 133.028C5.89489 133.028 6.20881 133.086 6.51563 133.202C6.8196 133.316 7.15909 133.515 7.53409 133.799C7.90625 134.08 8.3608 134.471 8.89773 134.971L10.9943 136.931H11.0625V132.874H12V138.38ZM12.1193 128.387C12.1193 128.887 12.0199 129.337 11.821 129.738C11.6222 130.138 11.3494 130.459 11.0028 130.701C10.6562 130.942 10.2614 131.074 9.81818 131.097V130.074C10.2131 130.035 10.5398 129.856 10.7983 129.537C11.054 129.216 11.1818 128.833 11.1818 128.387C11.1818 128.029 11.098 127.711 10.9304 127.432C10.7628 127.151 10.5327 126.931 10.2401 126.772C9.9446 126.61 9.6108 126.529 9.23864 126.529C8.85795 126.529 8.51847 126.613 8.22017 126.78C7.91903 126.945 7.68182 127.172 7.50852 127.462C7.33523 127.752 7.24716 128.083 7.24432 128.455C7.24148 128.722 7.28267 128.996 7.3679 129.278C7.45028 129.559 7.55682 129.79 7.6875 129.972L7.56818 130.961L3.27273 130.432V125.898H4.21023V129.546L6.78409 129.853V129.802C6.64205 129.623 6.52415 129.398 6.4304 129.128C6.33665 128.858 6.28977 128.577 6.28977 128.285C6.28977 127.751 6.41761 127.275 6.6733 126.857C6.92614 126.437 7.27273 126.107 7.71307 125.868C8.15341 125.627 8.65625 125.506 9.22159 125.506C9.77841 125.506 10.2756 125.631 10.7131 125.881C11.1477 126.128 11.4915 126.469 11.7443 126.904C11.9943 127.339 12.1193 127.833 12.1193 128.387Z" fill="black"/>
</svg>
