<svg width="350" height="208" viewBox="0 0 350 208" fill="none" xmlns="http://www.w3.org/2000/svg">
<path d="M33.2294 82L33.2294 181.165" stroke="black"/>
<line x1="32.7294" y1="181.688" x2="133.035" y2="181.688" stroke="black"/>
<path d="M132.501 81.9999V181.165" stroke="black"/>
<path d="M124 173.476H42.0361" stroke="black"/>
<path d="M123.964 90L42 90" stroke="black"/>
<path d="M42.5361 90L42.5361 172.976" stroke="black"/>
<path d="M123.5 90.4999L123.5 173.476" stroke="black"/>
<path d="M131.834 82.5285L348.5 1" stroke="black"/>
<path d="M348.5 0.999969L348.5 21.5" stroke="black"/>
<line x1="327.5" y1="0.5" x2="348.994" y2="0.5" stroke="black"/>
<path d="M42.7292 173.559L123.5 128.5" stroke="black"/>
<line x1="132.737" y1="181.787" x2="348.702" y2="21.093" stroke="black"/>
<line x1="32.5891" y1="82.0515" x2="327.664" y2="0.49719" stroke="black"/>
<line x1="33.2294" y1="182.188" x2="33.2294" y2="207.776" stroke="black"/>
<line x1="32.7294" y1="181.665" x2="6.11765" y2="181.665" stroke="black"/>
<path d="M133 82.3824L6.11764 82.3824" stroke="black"/>
<line x1="132.512" y1="182.188" x2="132.512" y2="207.776" stroke="black"/>
<path d="M33.7529 132.547L28.7529 129.66V135.434L33.7529 132.547ZM23.5176 133.047H29.2529V132.047H23.5176V133.047Z" fill="black"/>
<path d="M41.9412 132.547L46.9412 135.434V129.66L41.9412 132.547ZM62.4118 132.047H46.4412V133.047H62.4118V132.047Z" fill="black"/>
<path d="M15.3294 181.165L18.2162 176.165H12.4427L15.3294 181.165ZM15.3294 82.9058L12.4427 87.9058H18.2162L15.3294 82.9058ZM15.8294 176.665L15.8294 87.4058H14.8294L14.8294 176.665H15.8294Z" fill="black"/>
<path d="M33.7529 198.565L38.7529 201.451V195.678L33.7529 198.565ZM132.012 198.565L127.012 195.678V201.451L132.012 198.565ZM38.2529 199.065L127.512 199.065V198.065L38.2529 198.065V199.065Z" fill="black"/>
<path d="M79.307 196.119C78.949 196.114 78.5911 196.045 78.2331 195.915C77.8752 195.784 77.5485 195.564 77.253 195.254C76.9576 194.942 76.7203 194.52 76.5414 193.989C76.3624 193.455 76.2729 192.784 76.2729 191.977C76.2729 191.205 76.3453 190.52 76.4902 189.923C76.6351 189.324 76.8453 188.82 77.1209 188.411C77.3965 187.999 77.7289 187.686 78.1181 187.473C78.5101 187.26 78.9519 187.153 79.4434 187.153C79.932 187.153 80.3667 187.251 80.7473 187.447C81.1309 187.641 81.4434 187.911 81.6848 188.257C81.9263 188.604 82.0826 189.003 82.1536 189.455H81.1138C81.0172 189.062 80.8297 188.737 80.5513 188.479C80.2729 188.22 79.9036 188.091 79.4434 188.091C78.7672 188.091 78.2346 188.385 77.8453 188.973C77.459 189.561 77.2644 190.386 77.2615 191.449H77.3297C77.4888 191.207 77.6777 191.001 77.8965 190.831C78.1181 190.658 78.3624 190.524 78.6294 190.43C78.8965 190.337 79.1792 190.29 79.4775 190.29C79.9775 190.29 80.4348 190.415 80.8496 190.665C81.2644 190.912 81.5968 191.254 81.8468 191.692C82.0968 192.126 82.2218 192.625 82.2218 193.188C82.2218 193.727 82.101 194.222 81.8596 194.67C81.6181 195.116 81.2786 195.472 80.8411 195.736C80.4064 195.997 79.8951 196.125 79.307 196.119ZM79.307 195.182C79.665 195.182 79.986 195.092 80.2701 194.913C80.557 194.734 80.7828 194.494 80.9476 194.193C81.1152 193.892 81.199 193.557 81.199 193.188C81.199 192.827 81.1181 192.499 80.9561 192.203C80.7971 191.905 80.5769 191.668 80.2956 191.491C80.0172 191.315 79.699 191.227 79.3411 191.227C79.0712 191.227 78.8198 191.281 78.5868 191.389C78.3539 191.494 78.1493 191.639 77.9732 191.824C77.7999 192.009 77.6635 192.22 77.5641 192.459C77.4647 192.695 77.415 192.943 77.415 193.205C77.415 193.551 77.4959 193.875 77.6578 194.176C77.8226 194.477 78.0471 194.72 78.3311 194.905C78.6181 195.089 78.9434 195.182 79.307 195.182ZM86.7441 196.119C86.1021 196.119 85.5552 195.945 85.1035 195.595C84.6518 195.243 84.3066 194.733 84.068 194.065C83.8294 193.395 83.71 192.585 83.71 191.636C83.71 190.693 83.8294 189.888 84.068 189.22C84.3095 188.55 84.6561 188.038 85.1078 187.686C85.5623 187.331 86.1078 187.153 86.7441 187.153C87.3805 187.153 87.9245 187.331 88.3762 187.686C88.8308 188.038 89.1774 188.55 89.416 189.22C89.6575 189.888 89.7782 190.693 89.7782 191.636C89.7782 192.585 89.6589 193.395 89.4203 194.065C89.1816 194.733 88.8365 195.243 88.3848 195.595C87.9331 195.945 87.3862 196.119 86.7441 196.119ZM86.7441 195.182C87.3805 195.182 87.8748 194.875 88.2271 194.261C88.5794 193.648 88.7555 192.773 88.7555 191.636C88.7555 190.881 88.6745 190.237 88.5126 189.706C88.3535 189.175 88.1234 188.77 87.8223 188.491C87.524 188.213 87.1646 188.074 86.7441 188.074C86.1135 188.074 85.6206 188.385 85.2654 189.007C84.9103 189.626 84.7328 190.503 84.7328 191.636C84.7328 192.392 84.8123 193.034 84.9714 193.562C85.1305 194.091 85.3592 194.493 85.6575 194.768C85.9586 195.044 86.3208 195.182 86.7441 195.182Z" fill="black"/>
<path d="M54.532 130.119C53.9695 130.119 53.468 130.023 53.0277 129.83C52.5902 129.636 52.2422 129.368 51.9837 129.024C51.728 128.678 51.5888 128.276 51.5661 127.818H52.6399C52.6626 128.099 52.7592 128.342 52.9297 128.547C53.1001 128.749 53.3232 128.905 53.5987 129.016C53.8743 129.126 54.1797 129.182 54.5149 129.182C54.8899 129.182 55.2223 129.116 55.5121 128.986C55.8018 128.855 56.0291 128.673 56.1939 128.44C56.3587 128.207 56.4411 127.938 56.4411 127.631C56.4411 127.31 56.3615 127.027 56.2024 126.783C56.0433 126.536 55.8104 126.342 55.5036 126.203C55.1967 126.064 54.8217 125.994 54.3786 125.994H53.6797V125.057H54.3786C54.7251 125.057 55.0291 124.994 55.2905 124.869C55.5547 124.744 55.7607 124.568 55.9084 124.341C56.0589 124.114 56.1342 123.847 56.1342 123.54C56.1342 123.244 56.0689 122.987 55.9382 122.768C55.8075 122.55 55.6229 122.379 55.3842 122.257C55.1484 122.135 54.87 122.074 54.549 122.074C54.2479 122.074 53.9638 122.129 53.6967 122.24C53.4325 122.348 53.2166 122.506 53.049 122.713C52.8814 122.918 52.7905 123.165 52.7763 123.455H51.7536C51.7706 122.997 51.9084 122.597 52.1669 122.253C52.4254 121.906 52.7635 121.636 53.1811 121.443C53.6016 121.25 54.0632 121.153 54.5661 121.153C55.1058 121.153 55.5689 121.263 55.9553 121.482C56.3416 121.697 56.6385 121.983 56.8459 122.338C57.0533 122.693 57.157 123.077 57.157 123.489C57.157 123.98 57.0277 124.399 56.7692 124.746C56.5135 125.092 56.1655 125.332 55.7251 125.466V125.534C56.2763 125.625 56.7067 125.859 57.0163 126.237C57.326 126.612 57.4808 127.077 57.4808 127.631C57.4808 128.105 57.3516 128.531 57.093 128.909C56.8374 129.284 56.4879 129.58 56.0447 129.795C55.6016 130.011 55.0973 130.119 54.532 130.119Z" fill="black"/>
<path d="M12.1193 135.693C12.1136 136.051 12.0455 136.409 11.9148 136.767C11.7841 137.125 11.5639 137.452 11.2543 137.747C10.9418 138.042 10.5199 138.28 9.98864 138.459C9.45455 138.638 8.78409 138.727 7.97727 138.727C7.20455 138.727 6.51989 138.655 5.9233 138.51C5.32386 138.365 4.8196 138.155 4.41051 137.879C3.99858 137.604 3.68608 137.271 3.47301 136.882C3.25994 136.49 3.15341 136.048 3.15341 135.557C3.15341 135.068 3.25142 134.633 3.44744 134.253C3.64062 133.869 3.91051 133.557 4.2571 133.315C4.60369 133.074 5.00284 132.917 5.45455 132.846V133.886C5.0625 133.983 4.73722 134.17 4.47869 134.449C4.22017 134.727 4.09091 135.096 4.09091 135.557C4.09091 136.233 4.38494 136.765 4.97301 137.155C5.56108 137.541 6.38636 137.736 7.44886 137.738V137.67C7.20739 137.511 7.00142 137.322 6.83097 137.104C6.65767 136.882 6.52415 136.638 6.4304 136.371C6.33665 136.104 6.28977 135.821 6.28977 135.523C6.28977 135.023 6.41477 134.565 6.66477 134.15C6.91193 133.736 7.25426 133.403 7.69176 133.153C8.12642 132.903 8.625 132.778 9.1875 132.778C9.72727 132.778 10.2216 132.899 10.6705 133.14C11.1165 133.382 11.4716 133.721 11.7358 134.159C11.9972 134.594 12.125 135.105 12.1193 135.693ZM11.1818 135.693C11.1818 135.335 11.0923 135.014 10.9134 134.73C10.7344 134.443 10.4943 134.217 10.1932 134.052C9.89205 133.885 9.55682 133.801 9.1875 133.801C8.8267 133.801 8.49858 133.882 8.20312 134.044C7.90483 134.203 7.66761 134.423 7.49148 134.704C7.31534 134.983 7.22727 135.301 7.22727 135.659C7.22727 135.929 7.28125 136.18 7.3892 136.413C7.49432 136.646 7.6392 136.851 7.82386 137.027C8.00852 137.2 8.22017 137.336 8.45881 137.436C8.6946 137.535 8.94318 137.585 9.20455 137.585C9.55114 137.585 9.875 137.504 10.1761 137.342C10.4773 137.177 10.7202 136.953 10.9048 136.669C11.0895 136.382 11.1818 136.057 11.1818 135.693ZM12.1193 128.256C12.1193 128.898 11.9446 129.445 11.5952 129.896C11.2429 130.348 10.733 130.693 10.0653 130.932C9.39489 131.171 8.58523 131.29 7.63636 131.29C6.69318 131.29 5.88778 131.171 5.22017 130.932C4.54972 130.691 4.03835 130.344 3.68608 129.892C3.33097 129.438 3.15341 128.892 3.15341 128.256C3.15341 127.619 3.33097 127.075 3.68608 126.624C4.03835 126.169 4.54972 125.823 5.22017 125.584C5.88778 125.343 6.69318 125.222 7.63636 125.222C8.58523 125.222 9.39489 125.341 10.0653 125.58C10.733 125.818 11.2429 126.164 11.5952 126.615C11.9446 127.067 12.1193 127.614 12.1193 128.256ZM11.1818 128.256C11.1818 127.619 10.875 127.125 10.2614 126.773C9.64773 126.421 8.77273 126.244 7.63636 126.244C6.88068 126.244 6.23722 126.325 5.70597 126.487C5.17472 126.646 4.76989 126.877 4.49148 127.178C4.21307 127.476 4.07386 127.835 4.07386 128.256C4.07386 128.887 4.38494 129.379 5.0071 129.735C5.62642 130.09 6.50284 130.267 7.63636 130.267C8.39205 130.267 9.03409 130.188 9.5625 130.029C10.0909 129.869 10.4929 129.641 10.7685 129.343C11.044 129.041 11.1818 128.679 11.1818 128.256Z" fill="black"/>
</svg>
