<svg width="350" height="208" viewBox="0 0 350 208" fill="none" xmlns="http://www.w3.org/2000/svg">
<path d="M33.2294 82L33.2294 181.165" stroke="black"/>
<line x1="32.7294" y1="181.688" x2="133.035" y2="181.688" stroke="black"/>
<path d="M132.501 81.9999V181.165" stroke="black"/>
<path d="M124 173.476H42.0361" stroke="black"/>
<path d="M123.964 90L42 90" stroke="black"/>
<path d="M42.5361 90L42.5361 172.976" stroke="black"/>
<path d="M123.5 90.4999L123.5 173.476" stroke="black"/>
<path d="M131.834 82.5285L348.5 1" stroke="black"/>
<path d="M348.5 0.999969L348.5 21.5" stroke="black"/>
<line x1="327.5" y1="0.5" x2="348.994" y2="0.5" stroke="black"/>
<path d="M42.7292 173.559L123.5 128.5" stroke="black"/>
<line x1="132.737" y1="181.787" x2="348.702" y2="21.093" stroke="black"/>
<line x1="32.5891" y1="82.0515" x2="327.664" y2="0.49719" stroke="black"/>
<line x1="33.2294" y1="182.188" x2="33.2294" y2="207.776" stroke="black"/>
<line x1="32.7294" y1="181.665" x2="6.11765" y2="181.665" stroke="black"/>
<path d="M133 82.3824L6.11764 82.3824" stroke="black"/>
<line x1="132.512" y1="182.188" x2="132.512" y2="207.776" stroke="black"/>
<path d="M33.7529 132.547L28.7529 129.66V135.434L33.7529 132.547ZM23.5176 133.047H29.2529V132.047H23.5176V133.047Z" fill="black"/>
<path d="M41.9412 132.547L46.9412 135.434V129.66L41.9412 132.547ZM62.4118 132.047H46.4412V133.047H62.4118V132.047Z" fill="black"/>
<path d="M15.3294 181.165L18.2162 176.165H12.4427L15.3294 181.165ZM15.3294 82.9058L12.4427 87.9058H18.2162L15.3294 82.9058ZM15.8294 176.665L15.8294 87.4058H14.8294L14.8294 176.665H15.8294Z" fill="black"/>
<path d="M33.7529 198.565L38.7529 201.451V195.678L33.7529 198.565ZM132.012 198.565L127.012 195.678V201.451L132.012 198.565ZM38.2529 199.065L127.512 199.065V198.065L38.2529 198.065V199.065Z" fill="black"/>
<path d="M79.307 196.119C78.949 196.114 78.5911 196.045 78.2331 195.915C77.8752 195.784 77.5485 195.564 77.253 195.254C76.9576 194.942 76.7203 194.52 76.5414 193.989C76.3624 193.455 76.2729 192.784 76.2729 191.977C76.2729 191.205 76.3453 190.52 76.4902 189.923C76.6351 189.324 76.8453 188.82 77.1209 188.411C77.3965 187.999 77.7289 187.686 78.1181 187.473C78.5101 187.26 78.9519 187.153 79.4434 187.153C79.932 187.153 80.3667 187.251 80.7473 187.447C81.1309 187.641 81.4434 187.911 81.6848 188.257C81.9263 188.604 82.0826 189.003 82.1536 189.455H81.1138C81.0172 189.062 80.8297 188.737 80.5513 188.479C80.2729 188.22 79.9036 188.091 79.4434 188.091C78.7672 188.091 78.2346 188.385 77.8453 188.973C77.459 189.561 77.2644 190.386 77.2615 191.449H77.3297C77.4888 191.207 77.6777 191.001 77.8965 190.831C78.1181 190.658 78.3624 190.524 78.6294 190.43C78.8965 190.337 79.1792 190.29 79.4775 190.29C79.9775 190.29 80.4348 190.415 80.8496 190.665C81.2644 190.912 81.5968 191.254 81.8468 191.692C82.0968 192.126 82.2218 192.625 82.2218 193.188C82.2218 193.727 82.101 194.222 81.8596 194.67C81.6181 195.116 81.2786 195.472 80.8411 195.736C80.4064 195.997 79.8951 196.125 79.307 196.119ZM79.307 195.182C79.665 195.182 79.986 195.092 80.2701 194.913C80.557 194.734 80.7828 194.494 80.9476 194.193C81.1152 193.892 81.199 193.557 81.199 193.188C81.199 192.827 81.1181 192.499 80.9561 192.203C80.7971 191.905 80.5769 191.668 80.2956 191.491C80.0172 191.315 79.699 191.227 79.3411 191.227C79.0712 191.227 78.8198 191.281 78.5868 191.389C78.3539 191.494 78.1493 191.639 77.9732 191.824C77.7999 192.009 77.6635 192.22 77.5641 192.459C77.4647 192.695 77.415 192.943 77.415 193.205C77.415 193.551 77.4959 193.875 77.6578 194.176C77.8226 194.477 78.0471 194.72 78.3311 194.905C78.6181 195.089 78.9434 195.182 79.307 195.182ZM86.7441 196.119C86.1021 196.119 85.5552 195.945 85.1035 195.595C84.6518 195.243 84.3066 194.733 84.068 194.065C83.8294 193.395 83.71 192.585 83.71 191.636C83.71 190.693 83.8294 189.888 84.068 189.22C84.3095 188.55 84.6561 188.038 85.1078 187.686C85.5623 187.331 86.1078 187.153 86.7441 187.153C87.3805 187.153 87.9245 187.331 88.3762 187.686C88.8308 188.038 89.1774 188.55 89.416 189.22C89.6575 189.888 89.7782 190.693 89.7782 191.636C89.7782 192.585 89.6589 193.395 89.4203 194.065C89.1816 194.733 88.8365 195.243 88.3848 195.595C87.9331 195.945 87.3862 196.119 86.7441 196.119ZM86.7441 195.182C87.3805 195.182 87.8748 194.875 88.2271 194.261C88.5794 193.648 88.7555 192.773 88.7555 191.636C88.7555 190.881 88.6745 190.237 88.5126 189.706C88.3535 189.175 88.1234 188.77 87.8223 188.491C87.524 188.213 87.1646 188.074 86.7441 188.074C86.1135 188.074 85.6206 188.385 85.2654 189.007C84.9103 189.626 84.7328 190.503 84.7328 191.636C84.7328 192.392 84.8123 193.034 84.9714 193.562C85.1305 194.091 85.3592 194.493 85.6575 194.768C85.9586 195.044 86.3208 195.182 86.7441 195.182Z" fill="black"/>
<path d="M53.9817 129.825C53.4192 129.825 52.9178 129.729 52.4774 129.535C52.0399 129.342 51.6919 129.074 51.4334 128.73C51.1777 128.383 51.0385 127.981 51.0158 127.524H52.0896C52.1124 127.805 52.209 128.048 52.3794 128.253C52.5499 128.454 52.7729 128.611 53.0484 128.721C53.324 128.832 53.6294 128.888 53.9646 128.888C54.3396 128.888 54.672 128.822 54.9618 128.692C55.2516 128.561 55.4788 128.379 55.6436 128.146C55.8084 127.913 55.8908 127.643 55.8908 127.337C55.8908 127.016 55.8112 126.733 55.6521 126.489C55.4931 126.241 55.2601 126.048 54.9533 125.909C54.6465 125.77 54.2715 125.7 53.8283 125.7H53.1294V124.763H53.8283C54.1749 124.763 54.4788 124.7 54.7402 124.575C55.0044 124.45 55.2104 124.274 55.3581 124.047C55.5087 123.82 55.584 123.552 55.584 123.246C55.584 122.95 55.5186 122.693 55.3879 122.474C55.2573 122.256 55.0726 122.085 54.834 121.963C54.5982 121.841 54.3198 121.78 53.9987 121.78C53.6976 121.78 53.4135 121.835 53.1465 121.946C52.8823 122.054 52.6663 122.212 52.4987 122.419C52.3311 122.623 52.2402 122.871 52.226 123.16H51.2033C51.2203 122.703 51.3581 122.302 51.6166 121.959C51.8752 121.612 52.2132 121.342 52.6308 121.149C53.0513 120.956 53.5129 120.859 54.0158 120.859C54.5556 120.859 55.0186 120.969 55.405 121.187C55.7913 121.403 56.0882 121.689 56.2956 122.044C56.503 122.399 56.6067 122.783 56.6067 123.195C56.6067 123.686 56.4774 124.105 56.2189 124.452C55.9632 124.798 55.6152 125.038 55.1749 125.172V125.24C55.726 125.331 56.1564 125.565 56.4661 125.943C56.7757 126.318 56.9306 126.783 56.9306 127.337C56.9306 127.811 56.8013 128.237 56.5428 128.615C56.2871 128.99 55.9377 129.285 55.4945 129.501C55.0513 129.717 54.547 129.825 53.9817 129.825Z" fill="black"/>
<path d="M10.2102 138.901H9.34091L3.27273 135.066V134.435H4.61932V134.861L9.20455 137.759H9.27273V132.594H10.2102V138.901ZM12 134.793H9.94602H9.54119H3.27273V133.787H12V134.793ZM12.1193 128.15C12.1193 128.792 11.9446 129.339 11.5952 129.791C11.2429 130.243 10.733 130.588 10.0653 130.827C9.39489 131.065 8.58523 131.184 7.63636 131.184C6.69318 131.184 5.88778 131.065 5.22017 130.827C4.54972 130.585 4.03835 130.238 3.68608 129.787C3.33097 129.332 3.15341 128.787 3.15341 128.15C3.15341 127.514 3.33097 126.97 3.68608 126.518C4.03835 126.064 4.54972 125.717 5.22017 125.479C5.88778 125.237 6.69318 125.116 7.63636 125.116C8.58523 125.116 9.39489 125.236 10.0653 125.474C10.733 125.713 11.2429 126.058 11.5952 126.51C11.9446 126.961 12.1193 127.508 12.1193 128.15ZM11.1818 128.15C11.1818 127.514 10.875 127.02 10.2614 126.667C9.64773 126.315 8.77273 126.139 7.63636 126.139C6.88068 126.139 6.23722 126.22 5.70597 126.382C5.17472 126.541 4.76989 126.771 4.49148 127.072C4.21307 127.371 4.07386 127.73 4.07386 128.15C4.07386 128.781 4.38494 129.274 5.0071 129.629C5.62642 129.984 6.50284 130.162 7.63636 130.162C8.39205 130.162 9.03409 130.082 9.5625 129.923C10.0909 129.764 10.4929 129.535 10.7685 129.237C11.044 128.936 11.1818 128.574 11.1818 128.15Z" fill="black"/>
</svg>
