<svg width="350" height="208" viewBox="0 0 350 208" fill="none" xmlns="http://www.w3.org/2000/svg">
<path d="M33.2294 82L33.2294 181.165" stroke="black"/>
<line x1="32.7294" y1="181.688" x2="133.035" y2="181.688" stroke="black"/>
<path d="M132.501 81.9999V181.165" stroke="black"/>
<path d="M124 173.476H42.0361" stroke="black"/>
<path d="M123.964 90L42 90" stroke="black"/>
<path d="M42.5361 90L42.5361 172.976" stroke="black"/>
<path d="M123.5 90.4999L123.5 173.476" stroke="black"/>
<path d="M131.834 82.5285L348.5 1" stroke="black"/>
<path d="M348.5 0.999969L348.5 21.5" stroke="black"/>
<line x1="327.5" y1="0.5" x2="348.994" y2="0.5" stroke="black"/>
<path d="M42.7292 173.559L123.5 128.5" stroke="black"/>
<line x1="132.737" y1="181.787" x2="348.702" y2="21.093" stroke="black"/>
<line x1="32.5891" y1="82.0515" x2="327.664" y2="0.49719" stroke="black"/>
<line x1="33.2294" y1="182.188" x2="33.2294" y2="207.776" stroke="black"/>
<line x1="32.7294" y1="181.665" x2="6.11765" y2="181.665" stroke="black"/>
<path d="M133 82.3824L6.11764 82.3824" stroke="black"/>
<line x1="132.512" y1="182.188" x2="132.512" y2="207.776" stroke="black"/>
<path d="M33.7529 132.547L28.7529 129.66V135.434L33.7529 132.547ZM23.5176 133.047H29.2529V132.047H23.5176V133.047Z" fill="black"/>
<path d="M41.9412 132.547L46.9412 135.434V129.66L41.9412 132.547ZM62.4118 132.047H46.4412V133.047H62.4118V132.047Z" fill="black"/>
<path d="M15.3294 181.165L18.2162 176.165H12.4427L15.3294 181.165ZM15.3294 82.9058L12.4427 87.9058H18.2162L15.3294 82.9058ZM15.8294 176.665L15.8294 87.4058H14.8294L14.8294 176.665H15.8294Z" fill="black"/>
<path d="M33.7529 198.565L38.7529 201.451V195.678L33.7529 198.565ZM132.012 198.565L127.012 195.678V201.451L132.012 198.565ZM38.2529 199.065L127.512 199.065V198.065L38.2529 198.065V199.065Z" fill="black"/>
<path d="M76.6202 196V195.233L79.5009 192.08C79.839 191.71 80.1174 191.389 80.3361 191.116C80.5549 190.841 80.7168 190.582 80.8219 190.341C80.9299 190.097 80.9838 189.841 80.9838 189.574C80.9838 189.267 80.91 189.001 80.7623 188.777C80.6174 188.553 80.4185 188.379 80.1657 188.257C79.9128 188.135 79.6287 188.074 79.3134 188.074C78.9782 188.074 78.6855 188.143 78.4355 188.283C78.1884 188.419 77.9966 188.611 77.8603 188.858C77.7267 189.105 77.66 189.395 77.66 189.727H76.6543C76.6543 189.216 76.7722 188.767 77.008 188.381C77.2438 187.994 77.5648 187.693 77.9711 187.477C78.3801 187.261 78.839 187.153 79.3475 187.153C79.8588 187.153 80.312 187.261 80.7069 187.477C81.1017 187.693 81.4114 187.984 81.6358 188.351C81.8603 188.717 81.9725 189.125 81.9725 189.574C81.9725 189.895 81.9142 190.209 81.7978 190.516C81.6841 190.82 81.4853 191.159 81.2012 191.534C80.9199 191.906 80.5293 192.361 80.0293 192.898L78.0691 194.994V195.062H82.1259V196H76.6202ZM86.6131 196.119C86.1131 196.119 85.6628 196.02 85.2623 195.821C84.8617 195.622 84.5407 195.349 84.2992 195.003C84.0577 194.656 83.9256 194.261 83.9029 193.818H84.9256C84.9654 194.213 85.1444 194.54 85.4625 194.798C85.7836 195.054 86.1671 195.182 86.6131 195.182C86.9711 195.182 87.2892 195.098 87.5676 194.93C87.8489 194.763 88.0691 194.533 88.2282 194.24C88.3901 193.945 88.4711 193.611 88.4711 193.239C88.4711 192.858 88.3873 192.518 88.2196 192.22C88.0549 191.919 87.8276 191.682 87.5378 191.509C87.248 191.335 86.9171 191.247 86.5449 191.244C86.2779 191.241 86.0037 191.283 85.7225 191.368C85.4412 191.45 85.2097 191.557 85.0279 191.688L84.0392 191.568L84.5676 187.273H89.1017V188.21H85.454L85.1472 190.784H85.1983C85.3773 190.642 85.6017 190.524 85.8716 190.43C86.1415 190.337 86.4228 190.29 86.7154 190.29C87.2495 190.29 87.7253 190.418 88.1429 190.673C88.5634 190.926 88.8929 191.273 89.1316 191.713C89.373 192.153 89.4938 192.656 89.4938 193.222C89.4938 193.778 89.3688 194.276 89.1188 194.713C88.8716 195.148 88.5307 195.491 88.0961 195.744C87.6614 195.994 87.1671 196.119 86.6131 196.119Z" fill="black"/>
<path d="M51.7706 130V129.233L54.6513 126.08C54.9893 125.71 55.2678 125.389 55.4865 125.116C55.7053 124.841 55.8672 124.582 55.9723 124.341C56.0803 124.097 56.1342 123.841 56.1342 123.574C56.1342 123.267 56.0604 123.001 55.9126 122.777C55.7678 122.553 55.5689 122.379 55.3161 122.257C55.0632 122.135 54.7791 122.074 54.4638 122.074C54.1286 122.074 53.8359 122.143 53.5859 122.283C53.3388 122.419 53.147 122.611 53.0107 122.858C52.8771 123.105 52.8104 123.395 52.8104 123.727H51.8047C51.8047 123.216 51.9226 122.767 52.1584 122.381C52.3942 121.994 52.7152 121.693 53.1214 121.477C53.5305 121.261 53.9893 121.153 54.4979 121.153C55.0092 121.153 55.4624 121.261 55.8572 121.477C56.2521 121.693 56.5618 121.984 56.7862 122.351C57.0107 122.717 57.1229 123.125 57.1229 123.574C57.1229 123.895 57.0646 124.209 56.9482 124.516C56.8345 124.82 56.6357 125.159 56.3516 125.534C56.0703 125.906 55.6797 126.361 55.1797 126.898L53.2195 128.994V129.062H57.2763V130H51.7706Z" fill="black"/>
<path d="M12 138.38H11.233L8.07955 135.499C7.71023 135.161 7.3892 134.883 7.11648 134.664C6.84091 134.445 6.58239 134.283 6.34091 134.178C6.09659 134.07 5.84091 134.016 5.57386 134.016C5.26705 134.016 5.00142 134.09 4.77699 134.238C4.55256 134.383 4.37926 134.581 4.2571 134.834C4.13494 135.087 4.07386 135.371 4.07386 135.687C4.07386 136.022 4.14347 136.314 4.28267 136.564C4.41903 136.812 4.6108 137.003 4.85795 137.14C5.10511 137.273 5.39489 137.34 5.72727 137.34V138.346C5.21591 138.346 4.76705 138.228 4.38068 137.992C3.99432 137.756 3.69318 137.435 3.47727 137.029C3.26136 136.62 3.15341 136.161 3.15341 135.653C3.15341 135.141 3.26136 134.688 3.47727 134.293C3.69318 133.898 3.98437 133.589 4.35085 133.364C4.71733 133.14 5.125 133.028 5.57386 133.028C5.89489 133.028 6.20881 133.086 6.51563 133.202C6.8196 133.316 7.15909 133.515 7.53409 133.799C7.90625 134.08 8.3608 134.471 8.89773 134.971L10.9943 136.931H11.0625V132.874H12V138.38ZM12.1193 128.387C12.1193 128.887 12.0199 129.337 11.821 129.738C11.6222 130.138 11.3494 130.459 11.0028 130.701C10.6562 130.942 10.2614 131.074 9.81818 131.097V130.074C10.2131 130.035 10.5398 129.856 10.7983 129.537C11.054 129.216 11.1818 128.833 11.1818 128.387C11.1818 128.029 11.098 127.711 10.9304 127.432C10.7628 127.151 10.5327 126.931 10.2401 126.772C9.9446 126.61 9.6108 126.529 9.23864 126.529C8.85795 126.529 8.51847 126.613 8.22017 126.78C7.91903 126.945 7.68182 127.172 7.50852 127.462C7.33523 127.752 7.24716 128.083 7.24432 128.455C7.24148 128.722 7.28267 128.996 7.3679 129.278C7.45028 129.559 7.55682 129.79 7.6875 129.972L7.56818 130.961L3.27273 130.432V125.898H4.21023V129.546L6.78409 129.853V129.802C6.64205 129.623 6.52415 129.398 6.4304 129.128C6.33665 128.858 6.28977 128.577 6.28977 128.285C6.28977 127.751 6.41761 127.275 6.6733 126.857C6.92614 126.437 7.27273 126.107 7.71307 125.868C8.15341 125.627 8.65625 125.506 9.22159 125.506C9.77841 125.506 10.2756 125.631 10.7131 125.881C11.1477 126.128 11.4915 126.469 11.7443 126.904C11.9943 127.339 12.1193 127.833 12.1193 128.387Z" fill="black"/>
</svg>
