<svg width="350" height="208" viewBox="0 0 350 208" fill="none" xmlns="http://www.w3.org/2000/svg">
<path d="M33.2294 82L33.2294 181.165" stroke="black"/>
<line x1="32.7294" y1="181.688" x2="133.035" y2="181.688" stroke="black"/>
<path d="M132.501 81.9999V181.165" stroke="black"/>
<path d="M124 173.476H42.0361" stroke="black"/>
<path d="M123.964 90L42 90" stroke="black"/>
<path d="M42.5361 90L42.5361 172.976" stroke="black"/>
<path d="M123.5 90.4999L123.5 173.476" stroke="black"/>
<path d="M131.834 82.5285L348.5 1" stroke="black"/>
<path d="M348.5 0.999969L348.5 21.5" stroke="black"/>
<line x1="327.5" y1="0.5" x2="348.994" y2="0.5" stroke="black"/>
<path d="M42.7292 173.559L123.5 128.5" stroke="black"/>
<line x1="132.737" y1="181.787" x2="348.702" y2="21.093" stroke="black"/>
<line x1="32.5891" y1="82.0515" x2="327.664" y2="0.49719" stroke="black"/>
<line x1="33.2294" y1="182.188" x2="33.2294" y2="207.776" stroke="black"/>
<line x1="32.7294" y1="181.665" x2="6.11765" y2="181.665" stroke="black"/>
<path d="M133 82.3824L6.11764 82.3824" stroke="black"/>
<line x1="132.512" y1="182.188" x2="132.512" y2="207.776" stroke="black"/>
<path d="M33.7529 132.547L28.7529 129.66V135.434L33.7529 132.547ZM23.5176 133.047H29.2529V132.047H23.5176V133.047Z" fill="black"/>
<path d="M41.9412 132.547L46.9412 135.434V129.66L41.9412 132.547ZM62.4118 132.047H46.4412V133.047H62.4118V132.047Z" fill="black"/>
<path d="M15.3294 181.165L18.2162 176.165H12.4427L15.3294 181.165ZM15.3294 82.9058L12.4427 87.9058H18.2162L15.3294 82.9058ZM15.8294 176.665L15.8294 87.4058H14.8294L14.8294 176.665H15.8294Z" fill="black"/>
<path d="M33.7529 198.565L38.7529 201.451V195.678L33.7529 198.565ZM132.012 198.565L127.012 195.678V201.451L132.012 198.565ZM38.2529 199.065L127.512 199.065V198.065L38.2529 198.065V199.065Z" fill="black"/>
<path d="M76.0993 194.21V193.341L79.9345 187.273H80.5652V188.619H80.139L77.2413 193.205V193.273H82.4061V194.21H76.0993ZM80.2072 196V193.946V193.541V187.273H81.2129V196H80.2072ZM86.8496 196.119C86.2076 196.119 85.6607 195.945 85.209 195.595C84.7573 195.243 84.4121 194.733 84.1735 194.065C83.9348 193.395 83.8155 192.585 83.8155 191.636C83.8155 190.693 83.9348 189.888 84.1735 189.22C84.415 188.55 84.7615 188.038 85.2132 187.686C85.6678 187.331 86.2132 187.153 86.8496 187.153C87.486 187.153 88.03 187.331 88.4817 187.686C88.9363 188.038 89.2828 188.55 89.5215 189.22C89.763 189.888 89.8837 190.693 89.8837 191.636C89.8837 192.585 89.7644 193.395 89.5257 194.065C89.2871 194.733 88.9419 195.243 88.4902 195.595C88.0385 195.945 87.4917 196.119 86.8496 196.119ZM86.8496 195.182C87.486 195.182 87.9803 194.875 88.3326 194.261C88.6848 193.648 88.861 192.773 88.861 191.636C88.861 190.881 88.78 190.237 88.6181 189.706C88.459 189.175 88.2289 188.77 87.9277 188.491C87.6294 188.213 87.2701 188.074 86.8496 188.074C86.2189 188.074 85.726 188.385 85.3709 189.007C85.0158 189.626 84.8382 190.503 84.8382 191.636C84.8382 192.392 84.9178 193.034 85.0769 193.562C85.236 194.091 85.4647 194.493 85.763 194.768C86.0641 195.044 86.4263 195.182 86.8496 195.182Z" fill="black"/>
<path d="M51.7706 130V129.233L54.6513 126.08C54.9893 125.71 55.2678 125.389 55.4865 125.116C55.7053 124.841 55.8672 124.582 55.9723 124.341C56.0803 124.097 56.1342 123.841 56.1342 123.574C56.1342 123.267 56.0604 123.001 55.9126 122.777C55.7678 122.553 55.5689 122.379 55.3161 122.257C55.0632 122.135 54.7791 122.074 54.4638 122.074C54.1286 122.074 53.8359 122.143 53.5859 122.283C53.3388 122.419 53.147 122.611 53.0107 122.858C52.8771 123.105 52.8104 123.395 52.8104 123.727H51.8047C51.8047 123.216 51.9226 122.767 52.1584 122.381C52.3942 121.994 52.7152 121.693 53.1214 121.477C53.5305 121.261 53.9893 121.153 54.4979 121.153C55.0092 121.153 55.4624 121.261 55.8572 121.477C56.2521 121.693 56.5618 121.984 56.7862 122.351C57.0107 122.717 57.1229 123.125 57.1229 123.574C57.1229 123.895 57.0646 124.209 56.9482 124.516C56.8345 124.82 56.6357 125.159 56.3516 125.534C56.0703 125.906 55.6797 126.361 55.1797 126.898L53.2195 128.994V129.062H57.2763V130H51.7706Z" fill="black"/>
<path d="M10.2102 138.901H9.34091L3.27273 135.066V134.435H4.61932V134.861L9.20455 137.759H9.27273V132.594H10.2102V138.901ZM12 134.793H9.94602H9.54119H3.27273V133.787H12V134.793ZM12.1193 128.15C12.1193 128.792 11.9446 129.339 11.5952 129.791C11.2429 130.243 10.733 130.588 10.0653 130.827C9.39489 131.065 8.58523 131.184 7.63636 131.184C6.69318 131.184 5.88778 131.065 5.22017 130.827C4.54972 130.585 4.03835 130.238 3.68608 129.787C3.33097 129.332 3.15341 128.787 3.15341 128.15C3.15341 127.514 3.33097 126.97 3.68608 126.518C4.03835 126.064 4.54972 125.717 5.22017 125.479C5.88778 125.237 6.69318 125.116 7.63636 125.116C8.58523 125.116 9.39489 125.236 10.0653 125.474C10.733 125.713 11.2429 126.058 11.5952 126.51C11.9446 126.961 12.1193 127.508 12.1193 128.15ZM11.1818 128.15C11.1818 127.514 10.875 127.02 10.2614 126.667C9.64773 126.315 8.77273 126.139 7.63636 126.139C6.88068 126.139 6.23722 126.22 5.70597 126.382C5.17472 126.541 4.76989 126.771 4.49148 127.072C4.21307 127.371 4.07386 127.73 4.07386 128.15C4.07386 128.781 4.38494 129.274 5.0071 129.629C5.62642 129.984 6.50284 130.162 7.63636 130.162C8.39205 130.162 9.03409 130.082 9.5625 129.923C10.0909 129.764 10.4929 129.535 10.7685 129.237C11.044 128.936 11.1818 128.574 11.1818 128.15Z" fill="black"/>
</svg>
