<svg width="350" height="208" viewBox="0 0 350 208" fill="none" xmlns="http://www.w3.org/2000/svg">
<path d="M33.2294 82L33.2294 181.165" stroke="black"/>
<line x1="32.7294" y1="181.688" x2="133.035" y2="181.688" stroke="black"/>
<path d="M132.501 81.9999V181.165" stroke="black"/>
<path d="M124 173.476H42.0361" stroke="black"/>
<path d="M123.964 90L42 90" stroke="black"/>
<path d="M42.5361 90L42.5361 172.976" stroke="black"/>
<path d="M123.5 90.4999L123.5 173.476" stroke="black"/>
<path d="M131.834 82.5285L348.5 1" stroke="black"/>
<path d="M348.5 0.999969L348.5 21.5" stroke="black"/>
<line x1="327.5" y1="0.5" x2="348.994" y2="0.5" stroke="black"/>
<path d="M42.7292 173.559L123.5 128.5" stroke="black"/>
<line x1="132.737" y1="181.787" x2="348.702" y2="21.093" stroke="black"/>
<line x1="32.5891" y1="82.0515" x2="327.664" y2="0.49719" stroke="black"/>
<line x1="33.2294" y1="182.188" x2="33.2294" y2="207.776" stroke="black"/>
<line x1="32.7294" y1="181.665" x2="6.11765" y2="181.665" stroke="black"/>
<path d="M133 82.3824L6.11764 82.3824" stroke="black"/>
<line x1="132.512" y1="182.188" x2="132.512" y2="207.776" stroke="black"/>
<path d="M33.7529 132.547L28.7529 129.66V135.434L33.7529 132.547ZM23.5176 133.047H29.2529V132.047H23.5176V133.047Z" fill="black"/>
<path d="M41.9412 132.547L46.9412 135.434V129.66L41.9412 132.547ZM62.4118 132.047H46.4412V133.047H62.4118V132.047Z" fill="black"/>
<path d="M15.3294 181.165L18.2162 176.165H12.4427L15.3294 181.165ZM15.3294 82.9058L12.4427 87.9058H18.2162L15.3294 82.9058ZM15.8294 176.665L15.8294 87.4058H14.8294L14.8294 176.665H15.8294Z" fill="black"/>
<path d="M33.7529 198.565L38.7529 201.451V195.678L33.7529 198.565ZM132.012 198.565L127.012 195.678V201.451L132.012 198.565ZM38.2529 199.065L127.512 199.065V198.065L38.2529 198.065V199.065Z" fill="black"/>
<path d="M79.2516 196.119C78.6664 196.119 78.1493 196.016 77.7005 195.808C77.2544 195.598 76.9064 195.31 76.6564 194.943C76.4064 194.574 76.2828 194.153 76.2857 193.682C76.2828 193.312 76.3553 192.972 76.503 192.659C76.6507 192.344 76.8525 192.081 77.1081 191.871C77.3667 191.658 77.655 191.523 77.9732 191.466V191.415C77.5556 191.307 77.2232 191.072 76.976 190.712C76.7289 190.348 76.6067 189.935 76.6096 189.472C76.6067 189.028 76.7189 188.632 76.9462 188.283C77.1735 187.933 77.486 187.658 77.8837 187.456C78.2843 187.254 78.7402 187.153 79.2516 187.153C79.7573 187.153 80.209 187.254 80.6067 187.456C81.0044 187.658 81.3169 187.933 81.5442 188.283C81.7743 188.632 81.8908 189.028 81.8936 189.472C81.8908 189.935 81.7644 190.348 81.5144 190.712C81.2672 191.072 80.9391 191.307 80.53 191.415V191.466C80.8453 191.523 81.1294 191.658 81.3823 191.871C81.6351 192.081 81.8368 192.344 81.9874 192.659C82.138 192.972 82.2147 193.312 82.2175 193.682C82.2147 194.153 82.0868 194.574 81.834 194.943C81.584 195.31 81.236 195.598 80.79 195.808C80.3468 196.016 79.834 196.119 79.2516 196.119ZM79.2516 195.182C79.6465 195.182 79.9874 195.118 80.2743 194.99C80.5613 194.862 80.7828 194.682 80.9391 194.449C81.0953 194.216 81.1749 193.943 81.1777 193.631C81.1749 193.301 81.0897 193.01 80.9221 192.757C80.7544 192.504 80.5257 192.305 80.236 192.161C79.949 192.016 79.6209 191.943 79.2516 191.943C78.8794 191.943 78.5471 192.016 78.2544 192.161C77.9647 192.305 77.736 192.504 77.5684 192.757C77.4036 193.01 77.3226 193.301 77.3255 193.631C77.3226 193.943 77.3979 194.216 77.5513 194.449C77.7076 194.682 77.9306 194.862 78.2203 194.99C78.5101 195.118 78.8539 195.182 79.2516 195.182ZM79.2516 191.04C79.5641 191.04 79.8411 190.977 80.0826 190.852C80.3269 190.727 80.5186 190.553 80.6578 190.328C80.7971 190.104 80.8681 189.841 80.8709 189.54C80.8681 189.244 80.7985 188.987 80.6621 188.768C80.5257 188.547 80.3368 188.376 80.0953 188.257C79.8539 188.135 79.5726 188.074 79.2516 188.074C78.9249 188.074 78.6394 188.135 78.3951 188.257C78.1507 188.376 77.9618 188.547 77.8283 188.768C77.6948 188.987 77.6294 189.244 77.6323 189.54C77.6294 189.841 77.6962 190.104 77.8326 190.328C77.9718 190.553 78.1635 190.727 78.4078 190.852C78.6522 190.977 78.9334 191.04 79.2516 191.04ZM86.6973 196.119C86.0552 196.119 85.5083 195.945 85.0566 195.595C84.6049 195.243 84.2598 194.733 84.0211 194.065C83.7825 193.395 83.6632 192.585 83.6632 191.636C83.6632 190.693 83.7825 189.888 84.0211 189.22C84.2626 188.55 84.6092 188.038 85.0609 187.686C85.5154 187.331 86.0609 187.153 86.6973 187.153C87.3336 187.153 87.8777 187.331 88.3294 187.686C88.7839 188.038 89.1305 188.55 89.3691 189.22C89.6106 189.888 89.7314 190.693 89.7314 191.636C89.7314 192.585 89.612 193.395 89.3734 194.065C89.1348 194.733 88.7896 195.243 88.3379 195.595C87.8862 195.945 87.3393 196.119 86.6973 196.119ZM86.6973 195.182C87.3336 195.182 87.8279 194.875 88.1802 194.261C88.5325 193.648 88.7086 192.773 88.7086 191.636C88.7086 190.881 88.6277 190.237 88.4657 189.706C88.3066 189.175 88.0765 188.77 87.7754 188.491C87.4771 188.213 87.1177 188.074 86.6973 188.074C86.0666 188.074 85.5737 188.385 85.2186 189.007C84.8635 189.626 84.6859 190.503 84.6859 191.636C84.6859 192.392 84.7654 193.034 84.9245 193.562C85.0836 194.091 85.3123 194.493 85.6106 194.768C85.9118 195.044 86.274 195.182 86.6973 195.182Z" fill="black"/>
<path d="M51.0328 129.706V128.939L53.9135 125.785C54.2516 125.416 54.53 125.095 54.7487 124.822C54.9675 124.547 55.1294 124.288 55.2345 124.047C55.3425 123.802 55.3965 123.547 55.3965 123.28C55.3965 122.973 55.3226 122.707 55.1749 122.483C55.03 122.258 54.8311 122.085 54.5783 121.963C54.3254 121.841 54.0413 121.78 53.726 121.78C53.3908 121.78 53.0982 121.849 52.8482 121.989C52.601 122.125 52.4092 122.317 52.2729 122.564C52.1394 122.811 52.0726 123.101 52.0726 123.433H51.0669C51.0669 122.922 51.1848 122.473 51.4206 122.087C51.6564 121.7 51.9774 121.399 52.3837 121.183C52.7928 120.967 53.2516 120.859 53.7601 120.859C54.2715 120.859 54.7246 120.967 55.1195 121.183C55.5144 121.399 55.824 121.69 56.0484 122.057C56.2729 122.423 56.3851 122.831 56.3851 123.28C56.3851 123.601 56.3269 123.915 56.2104 124.221C56.0967 124.525 55.8979 124.865 55.6138 125.24C55.3325 125.612 54.9419 126.067 54.4419 126.604L52.4817 128.7V128.768H56.5385V129.706H51.0328Z" fill="black"/>
<path d="M12.1193 135.693C12.1136 136.051 12.0455 136.409 11.9148 136.767C11.7841 137.125 11.5639 137.452 11.2543 137.747C10.9418 138.042 10.5199 138.28 9.98864 138.459C9.45455 138.638 8.78409 138.727 7.97727 138.727C7.20455 138.727 6.51989 138.655 5.9233 138.51C5.32386 138.365 4.8196 138.155 4.41051 137.879C3.99858 137.604 3.68608 137.271 3.47301 136.882C3.25994 136.49 3.15341 136.048 3.15341 135.557C3.15341 135.068 3.25142 134.633 3.44744 134.253C3.64062 133.869 3.91051 133.557 4.2571 133.315C4.60369 133.074 5.00284 132.917 5.45455 132.846V133.886C5.0625 133.983 4.73722 134.17 4.47869 134.449C4.22017 134.727 4.09091 135.096 4.09091 135.557C4.09091 136.233 4.38494 136.765 4.97301 137.155C5.56108 137.541 6.38636 137.736 7.44886 137.738V137.67C7.20739 137.511 7.00142 137.322 6.83097 137.104C6.65767 136.882 6.52415 136.638 6.4304 136.371C6.33665 136.104 6.28977 135.821 6.28977 135.523C6.28977 135.023 6.41477 134.565 6.66477 134.15C6.91193 133.736 7.25426 133.403 7.69176 133.153C8.12642 132.903 8.625 132.778 9.1875 132.778C9.72727 132.778 10.2216 132.899 10.6705 133.14C11.1165 133.382 11.4716 133.721 11.7358 134.159C11.9972 134.594 12.125 135.105 12.1193 135.693ZM11.1818 135.693C11.1818 135.335 11.0923 135.014 10.9134 134.73C10.7344 134.443 10.4943 134.217 10.1932 134.052C9.89205 133.885 9.55682 133.801 9.1875 133.801C8.8267 133.801 8.49858 133.882 8.20312 134.044C7.90483 134.203 7.66761 134.423 7.49148 134.704C7.31534 134.983 7.22727 135.301 7.22727 135.659C7.22727 135.929 7.28125 136.18 7.3892 136.413C7.49432 136.646 7.6392 136.851 7.82386 137.027C8.00852 137.2 8.22017 137.336 8.45881 137.436C8.6946 137.535 8.94318 137.585 9.20455 137.585C9.55114 137.585 9.875 137.504 10.1761 137.342C10.4773 137.177 10.7202 136.953 10.9048 136.669C11.0895 136.382 11.1818 136.057 11.1818 135.693ZM12.1193 128.256C12.1193 128.898 11.9446 129.445 11.5952 129.896C11.2429 130.348 10.733 130.693 10.0653 130.932C9.39489 131.171 8.58523 131.29 7.63636 131.29C6.69318 131.29 5.88778 131.171 5.22017 130.932C4.54972 130.691 4.03835 130.344 3.68608 129.892C3.33097 129.438 3.15341 128.892 3.15341 128.256C3.15341 127.619 3.33097 127.075 3.68608 126.624C4.03835 126.169 4.54972 125.823 5.22017 125.584C5.88778 125.343 6.69318 125.222 7.63636 125.222C8.58523 125.222 9.39489 125.341 10.0653 125.58C10.733 125.818 11.2429 126.164 11.5952 126.615C11.9446 127.067 12.1193 127.614 12.1193 128.256ZM11.1818 128.256C11.1818 127.619 10.875 127.125 10.2614 126.773C9.64773 126.421 8.77273 126.244 7.63636 126.244C6.88068 126.244 6.23722 126.325 5.70597 126.487C5.17472 126.646 4.76989 126.877 4.49148 127.178C4.21307 127.476 4.07386 127.835 4.07386 128.256C4.07386 128.887 4.38494 129.379 5.0071 129.735C5.62642 130.09 6.50284 130.267 7.63636 130.267C8.39205 130.267 9.03409 130.188 9.5625 130.029C10.0909 129.869 10.4929 129.641 10.7685 129.343C11.044 129.041 11.1818 128.679 11.1818 128.256Z" fill="black"/>
</svg>
