<svg width="326" height="207" viewBox="0 0 326 207" fill="none" xmlns="http://www.w3.org/2000/svg">
<path d="M0.5 106.555L0.5 179.878" stroke="black"/>
<path d="M-1.90735e-06 180.243L100.035 180.243" stroke="black"/>
<path d="M99.5012 106.555V179.72" stroke="black"/>
<path d="M91 172.031H9.0361" stroke="black"/>
<path d="M9.53614 106.555L9.53614 171.532" stroke="black"/>
<path d="M90.5012 171.519L90.5012 106.554" stroke="black"/>
<path d="M99 107.055H91" stroke="black"/>
<path d="M295.03 19.0453L295.03 8.55505" stroke="black"/>
<path d="M315.412 19.0453L315.412 8.55505" stroke="black"/>
<path d="M99.7368 180.341L315.5 18.5543" stroke="black"/>
<path d="M0.5 107.055L295 9.05524" stroke="black"/>
<path d="M9 107.055L295 9.05542" stroke="black"/>
<line x1="0.5" y1="180.554" x2="0.5" y2="206.143" stroke="black"/>
<line x1="99.5117" y1="180.742" x2="99.5117" y2="206.331" stroke="black"/>
<path d="M9.74948 172.122L90.5 127.054" stroke="black"/>
<path d="M89.9999 107.055L315.5 9.0553" stroke="black"/>
<path d="M99.4999 107.055L315.5 9.5553" stroke="black"/>
<path d="M1 107.055H9.5" stroke="black"/>
<path d="M0.752941 197.12L5.75294 200.007L5.75294 194.233L0.752941 197.12ZM99.0118 197.12L94.0118 194.233V200.007L99.0118 197.12ZM5.25294 197.12V197.62L94.5118 197.62V197.12V196.62L5.25294 196.62V197.12Z" fill="black"/>
<path d="M43.1378 194.555V193.788L46.0185 190.635C46.3565 190.265 46.6349 189.944 46.8537 189.672C47.0724 189.396 47.2344 189.138 47.3395 188.896C47.4474 188.652 47.5014 188.396 47.5014 188.129C47.5014 187.822 47.4276 187.557 47.2798 187.332C47.1349 187.108 46.9361 186.934 46.6832 186.812C46.4304 186.69 46.1463 186.629 45.831 186.629C45.4957 186.629 45.2031 186.699 44.9531 186.838C44.706 186.974 44.5142 187.166 44.3778 187.413C44.2443 187.66 44.1776 187.95 44.1776 188.282H43.1719C43.1719 187.771 43.2898 187.322 43.5256 186.936C43.7614 186.549 44.0824 186.248 44.4886 186.032C44.8977 185.817 45.3565 185.709 45.8651 185.709C46.3764 185.709 46.8295 185.817 47.2244 186.032C47.6193 186.248 47.929 186.54 48.1534 186.906C48.3778 187.273 48.4901 187.68 48.4901 188.129C48.4901 188.45 48.4318 188.764 48.3153 189.071C48.2017 189.375 48.0028 189.714 47.7188 190.089C47.4375 190.461 47.0469 190.916 46.5469 191.453L44.5866 193.549V193.618H48.6435V194.555H43.1378ZM50.4034 194.555V193.788L53.2841 190.635C53.6222 190.265 53.9006 189.944 54.1193 189.672C54.3381 189.396 54.5 189.138 54.6051 188.896C54.7131 188.652 54.767 188.396 54.767 188.129C54.767 187.822 54.6932 187.557 54.5455 187.332C54.4006 187.108 54.2017 186.934 53.9489 186.812C53.696 186.69 53.4119 186.629 53.0966 186.629C52.7614 186.629 52.4688 186.699 52.2188 186.838C51.9716 186.974 51.7798 187.166 51.6435 187.413C51.5099 187.66 51.4432 187.95 51.4432 188.282H50.4375C50.4375 187.771 50.5554 187.322 50.7912 186.936C51.027 186.549 51.348 186.248 51.7543 186.032C52.1634 185.817 52.6222 185.709 53.1307 185.709C53.642 185.709 54.0952 185.817 54.4901 186.032C54.8849 186.248 55.1946 186.54 55.419 186.906C55.6435 187.273 55.7557 187.68 55.7557 188.129C55.7557 188.45 55.6974 188.764 55.581 189.071C55.4673 189.375 55.2685 189.714 54.9844 190.089C54.7031 190.461 54.3125 190.916 53.8125 191.453L51.8523 193.549V193.618H55.9091V194.555H50.4034Z" fill="black"/>
</svg>
