<svg width="326" height="207" viewBox="0 0 326 207" fill="none" xmlns="http://www.w3.org/2000/svg">
<path d="M0.5 106.555L0.5 179.878" stroke="black"/>
<path d="M-1.90735e-06 180.243L100.035 180.243" stroke="black"/>
<path d="M99.5012 106.555V179.72" stroke="black"/>
<path d="M91 172.031H9.0361" stroke="black"/>
<path d="M9.53614 106.555L9.53614 171.532" stroke="black"/>
<path d="M90.5012 171.519L90.5012 106.554" stroke="black"/>
<path d="M99 107.055H91" stroke="black"/>
<path d="M295.03 19.0453L295.03 8.55505" stroke="black"/>
<path d="M315.412 19.0453L315.412 8.55505" stroke="black"/>
<path d="M99.7368 180.341L315.5 18.5543" stroke="black"/>
<path d="M0.5 107.055L295 9.05524" stroke="black"/>
<path d="M9 107.055L295 9.05542" stroke="black"/>
<line x1="0.5" y1="180.554" x2="0.5" y2="206.143" stroke="black"/>
<line x1="99.5117" y1="180.742" x2="99.5117" y2="206.331" stroke="black"/>
<path d="M9.74948 172.122L90.5 127.054" stroke="black"/>
<path d="M89.9999 107.055L315.5 9.0553" stroke="black"/>
<path d="M99.4999 107.055L315.5 9.5553" stroke="black"/>
<path d="M1 107.055H9.5" stroke="black"/>
<path d="M0.752941 197.12L5.75294 200.007L5.75294 194.233L0.752941 197.12ZM99.0118 197.12L94.0118 194.233V200.007L99.0118 197.12ZM5.25294 197.12V197.62L94.5118 197.62V197.12V196.62L5.25294 196.62V197.12Z" fill="black"/>
<path d="M44.5472 194.674C44.1893 194.669 43.8313 194.601 43.4734 194.47C43.1154 194.339 42.7887 194.119 42.4933 193.809C42.1978 193.497 41.9606 193.075 41.7816 192.544C41.6026 192.01 41.5131 191.339 41.5131 190.532C41.5131 189.76 41.5856 189.075 41.7305 188.478C41.8754 187.879 42.0856 187.375 42.3612 186.966C42.6367 186.554 42.9691 186.241 43.3583 186.028C43.7504 185.815 44.1921 185.709 44.6836 185.709C45.1722 185.709 45.6069 185.807 45.9876 186.003C46.3711 186.196 46.6836 186.466 46.9251 186.812C47.1665 187.159 47.3228 187.558 47.3938 188.01H46.354C46.2575 187.618 46.07 187.292 45.7915 187.034C45.5131 186.775 45.1438 186.646 44.6836 186.646C44.0075 186.646 43.4748 186.94 43.0856 187.528C42.6992 188.116 42.5046 188.942 42.5018 190.004H42.57C42.729 189.763 42.918 189.557 43.1367 189.386C43.3583 189.213 43.6026 189.079 43.8697 188.986C44.1367 188.892 44.4194 188.845 44.7177 188.845C45.2177 188.845 45.6751 188.97 46.0898 189.22C46.5046 189.467 46.837 189.809 47.087 190.247C47.337 190.682 47.462 191.18 47.462 191.743C47.462 192.282 47.3413 192.777 47.0998 193.226C46.8583 193.672 46.5188 194.027 46.0813 194.291C45.6467 194.552 45.1353 194.68 44.5472 194.674ZM44.5472 193.737C44.9052 193.737 45.2262 193.648 45.5103 193.469C45.7972 193.29 46.0231 193.049 46.1879 192.748C46.3555 192.447 46.4393 192.112 46.4393 191.743C46.4393 191.382 46.3583 191.054 46.1964 190.758C46.0373 190.46 45.8171 190.223 45.5359 190.047C45.2575 189.871 44.9393 189.782 44.5813 189.782C44.3114 189.782 44.06 189.836 43.8271 189.944C43.5941 190.049 43.3896 190.194 43.2134 190.379C43.0401 190.564 42.9038 190.775 42.8043 191.014C42.7049 191.25 42.6552 191.498 42.6552 191.76C42.6552 192.106 42.7362 192.43 42.8981 192.731C43.0629 193.032 43.2873 193.275 43.5714 193.46C43.8583 193.645 44.1836 193.737 44.5472 193.737ZM49.4776 194.623C49.2674 194.623 49.087 194.548 48.9364 194.398C48.7859 194.247 48.7106 194.067 48.7106 193.856C48.7106 193.646 48.7859 193.466 48.9364 193.315C49.087 193.165 49.2674 193.089 49.4776 193.089C49.6879 193.089 49.8683 193.165 50.0188 193.315C50.1694 193.466 50.2447 193.646 50.2447 193.856C50.2447 193.996 50.2092 194.123 50.1381 194.24C50.07 194.356 49.9776 194.45 49.8612 194.521C49.7475 194.589 49.6197 194.623 49.4776 194.623ZM54.5838 194.674C54.0838 194.674 53.6335 194.575 53.233 194.376C52.8324 194.177 52.5114 193.905 52.2699 193.558C52.0284 193.211 51.8963 192.817 51.8736 192.373H52.8963C52.9361 192.768 53.1151 193.095 53.4332 193.353C53.7543 193.609 54.1378 193.737 54.5838 193.737C54.9418 193.737 55.2599 193.653 55.5384 193.486C55.8196 193.318 56.0398 193.088 56.1989 192.795C56.3608 192.5 56.4418 192.166 56.4418 191.794C56.4418 191.413 56.358 191.074 56.1903 190.775C56.0256 190.474 55.7983 190.237 55.5085 190.064C55.2188 189.89 54.8878 189.802 54.5156 189.799C54.2486 189.797 53.9744 189.838 53.6932 189.923C53.4119 190.005 53.1804 190.112 52.9986 190.243L52.0099 190.123L52.5384 185.828H57.0724V186.765H53.4247L53.1179 189.339H53.169C53.348 189.197 53.5724 189.079 53.8423 188.986C54.1122 188.892 54.3935 188.845 54.6861 188.845C55.2202 188.845 55.696 188.973 56.1136 189.228C56.5341 189.481 56.8636 189.828 57.1023 190.268C57.3438 190.709 57.4645 191.211 57.4645 191.777C57.4645 192.334 57.3395 192.831 57.0895 193.268C56.8423 193.703 56.5014 194.047 56.0668 194.299C55.6321 194.549 55.1378 194.674 54.5838 194.674Z" fill="black"/>
</svg>
