<svg width="326" height="207" viewBox="0 0 326 207" fill="none" xmlns="http://www.w3.org/2000/svg">
<path d="M0.5 106.555L0.5 179.878" stroke="black"/>
<path d="M-1.90735e-06 180.243L100.035 180.243" stroke="black"/>
<path d="M99.5012 106.555V179.72" stroke="black"/>
<path d="M91 172.031H9.0361" stroke="black"/>
<path d="M9.53614 106.555L9.53614 171.532" stroke="black"/>
<path d="M90.5012 171.519L90.5012 106.554" stroke="black"/>
<path d="M99 107.055H91" stroke="black"/>
<path d="M295.03 19.0453L295.03 8.55505" stroke="black"/>
<path d="M315.412 19.0453L315.412 8.55505" stroke="black"/>
<path d="M99.7368 180.341L315.5 18.5543" stroke="black"/>
<path d="M0.5 107.055L295 9.05524" stroke="black"/>
<path d="M9 107.055L295 9.05542" stroke="black"/>
<line x1="0.5" y1="180.554" x2="0.5" y2="206.143" stroke="black"/>
<line x1="99.5117" y1="180.742" x2="99.5117" y2="206.331" stroke="black"/>
<path d="M9.74948 172.122L90.5 127.054" stroke="black"/>
<path d="M89.9999 107.055L315.5 9.0553" stroke="black"/>
<path d="M99.4999 107.055L315.5 9.5553" stroke="black"/>
<path d="M1 107.055H9.5" stroke="black"/>
<path d="M0.752941 197.12L5.75294 200.007L5.75294 194.233L0.752941 197.12ZM99.0118 197.12L94.0118 194.233V200.007L99.0118 197.12ZM5.25294 197.12V197.62L94.5118 197.62V197.12V196.62L5.25294 196.62V197.12Z" fill="black"/>
<path d="M46.9325 185.828V194.555H45.8757V186.936H45.8246L43.6939 188.351V187.277L45.8757 185.828H46.9325ZM52.2891 194.674C51.647 194.674 51.1001 194.5 50.6484 194.15C50.1967 193.798 49.8516 193.288 49.6129 192.621C49.3743 191.95 49.255 191.14 49.255 190.192C49.255 189.248 49.3743 188.443 49.6129 187.775C49.8544 187.105 50.201 186.594 50.6527 186.241C51.1072 185.886 51.6527 185.709 52.2891 185.709C52.9254 185.709 53.4695 185.886 53.9212 186.241C54.3757 186.594 54.7223 187.105 54.9609 187.775C55.2024 188.443 55.3232 189.248 55.3232 190.192C55.3232 191.14 55.2038 191.95 54.9652 192.621C54.7266 193.288 54.3814 193.798 53.9297 194.15C53.478 194.5 52.9311 194.674 52.2891 194.674ZM52.2891 193.737C52.9254 193.737 53.4197 193.43 53.772 192.817C54.1243 192.203 54.3004 191.328 54.3004 190.192C54.3004 189.436 54.2195 188.792 54.0575 188.261C53.8984 187.73 53.6683 187.325 53.3672 187.047C53.0689 186.768 52.7095 186.629 52.2891 186.629C51.6584 186.629 51.1655 186.94 50.8104 187.562C50.4553 188.182 50.2777 189.058 50.2777 190.192C50.2777 190.947 50.3572 191.589 50.5163 192.118C50.6754 192.646 50.9041 193.048 51.2024 193.324C51.5036 193.599 51.8658 193.737 52.2891 193.737Z" fill="black"/>
</svg>
