<svg width="326" height="207" viewBox="0 0 326 207" fill="none" xmlns="http://www.w3.org/2000/svg">
<path d="M0.5 106.555L0.5 179.878" stroke="black"/>
<path d="M-1.90735e-06 180.243L100.035 180.243" stroke="black"/>
<path d="M99.5012 106.555V179.72" stroke="black"/>
<path d="M91 172.031H9.0361" stroke="black"/>
<path d="M9.53614 106.555L9.53614 171.532" stroke="black"/>
<path d="M90.5012 171.519L90.5012 106.554" stroke="black"/>
<path d="M99 107.055H91" stroke="black"/>
<path d="M295.03 19.0453L295.03 8.55505" stroke="black"/>
<path d="M315.412 19.0453L315.412 8.55505" stroke="black"/>
<path d="M99.7368 180.341L315.5 18.5543" stroke="black"/>
<path d="M0.5 107.055L295 9.05524" stroke="black"/>
<path d="M9 107.055L295 9.05542" stroke="black"/>
<line x1="0.5" y1="180.554" x2="0.5" y2="206.143" stroke="black"/>
<line x1="99.5117" y1="180.742" x2="99.5117" y2="206.331" stroke="black"/>
<path d="M9.74948 172.122L90.5 127.054" stroke="black"/>
<path d="M89.9999 107.055L315.5 9.0553" stroke="black"/>
<path d="M99.4999 107.055L315.5 9.5553" stroke="black"/>
<path d="M1 107.055H9.5" stroke="black"/>
<path d="M0.752941 197.12L5.75294 200.007L5.75294 194.233L0.752941 197.12ZM99.0118 197.12L94.0118 194.233V200.007L99.0118 197.12ZM5.25294 197.12V197.62L94.5118 197.62V197.12V196.62L5.25294 196.62V197.12Z" fill="black"/>
<path d="M46.9853 185.828V194.555H45.9284V186.936H45.8773L43.7466 188.351V187.277L45.9284 185.828H46.9853ZM52.2907 194.674C51.7054 194.674 51.1884 194.571 50.7395 194.363C50.2935 194.153 49.9455 193.865 49.6955 193.498C49.4455 193.129 49.3219 192.709 49.3248 192.237C49.3219 191.868 49.3944 191.527 49.5421 191.214C49.6898 190.899 49.8915 190.636 50.1472 190.426C50.4057 190.213 50.6941 190.078 51.0123 190.021V189.97C50.5946 189.862 50.2623 189.628 50.0151 189.267C49.7679 188.903 49.6458 188.49 49.6486 188.027C49.6458 187.584 49.758 187.187 49.9853 186.838C50.2125 186.488 50.525 186.213 50.9228 186.011C51.3233 185.809 51.7793 185.709 52.2907 185.709C52.7963 185.709 53.248 185.809 53.6458 186.011C54.0435 186.213 54.356 186.488 54.5833 186.838C54.8134 187.187 54.9299 187.584 54.9327 188.027C54.9299 188.49 54.8034 188.903 54.5534 189.267C54.3063 189.628 53.9782 189.862 53.5691 189.97V190.021C53.8844 190.078 54.1685 190.213 54.4213 190.426C54.6742 190.636 54.8759 190.899 55.0265 191.214C55.177 191.527 55.2537 191.868 55.2566 192.237C55.2537 192.709 55.1259 193.129 54.873 193.498C54.623 193.865 54.275 194.153 53.829 194.363C53.3858 194.571 52.873 194.674 52.2907 194.674ZM52.2907 193.737C52.6855 193.737 53.0265 193.673 53.3134 193.545C53.6003 193.417 53.8219 193.237 53.9782 193.004C54.1344 192.771 54.214 192.498 54.2168 192.186C54.214 191.856 54.1287 191.565 53.9611 191.312C53.7935 191.059 53.5648 190.861 53.275 190.716C52.9881 190.571 52.66 190.498 52.2907 190.498C51.9185 190.498 51.5861 190.571 51.2935 190.716C51.0037 190.861 50.775 191.059 50.6074 191.312C50.4426 191.565 50.3617 191.856 50.3645 192.186C50.3617 192.498 50.437 192.771 50.5904 193.004C50.7466 193.237 50.9696 193.417 51.2594 193.545C51.5492 193.673 51.8929 193.737 52.2907 193.737ZM52.2907 189.595C52.6032 189.595 52.8801 189.532 53.1216 189.407C53.3659 189.282 53.5577 189.108 53.6969 188.883C53.8361 188.659 53.9071 188.396 53.91 188.095C53.9071 187.799 53.8375 187.542 53.7012 187.324C53.5648 187.102 53.3759 186.932 53.1344 186.812C52.8929 186.69 52.6117 186.629 52.2907 186.629C51.964 186.629 51.6784 186.69 51.4341 186.812C51.1898 186.932 51.0009 187.102 50.8674 187.324C50.7338 187.542 50.6685 187.799 50.6713 188.095C50.6685 188.396 50.7353 188.659 50.8716 188.883C51.0108 189.108 51.2026 189.282 51.4469 189.407C51.6912 189.532 51.9725 189.595 52.2907 189.595Z" fill="black"/>
</svg>
