<svg width="326" height="207" viewBox="0 0 326 207" fill="none" xmlns="http://www.w3.org/2000/svg">
<path d="M0.5 106.555L0.5 179.878" stroke="black"/>
<path d="M-1.90735e-06 180.243L100.035 180.243" stroke="black"/>
<path d="M99.5012 106.555V179.72" stroke="black"/>
<path d="M91 172.031H9.0361" stroke="black"/>
<path d="M9.53614 106.555L9.53614 171.532" stroke="black"/>
<path d="M90.5012 171.519L90.5012 106.554" stroke="black"/>
<path d="M99 107.055H91" stroke="black"/>
<path d="M295.03 19.0453L295.03 8.55505" stroke="black"/>
<path d="M315.412 19.0453L315.412 8.55505" stroke="black"/>
<path d="M99.7368 180.341L315.5 18.5543" stroke="black"/>
<path d="M0.5 107.055L295 9.05524" stroke="black"/>
<path d="M9 107.055L295 9.05542" stroke="black"/>
<line x1="0.5" y1="180.554" x2="0.5" y2="206.143" stroke="black"/>
<line x1="99.5117" y1="180.742" x2="99.5117" y2="206.331" stroke="black"/>
<path d="M9.74948 172.122L90.5 127.054" stroke="black"/>
<path d="M89.9999 107.055L315.5 9.0553" stroke="black"/>
<path d="M99.4999 107.055L315.5 9.5553" stroke="black"/>
<path d="M1 107.055H9.5" stroke="black"/>
<path d="M0.752941 197.12L5.75294 200.007L5.75294 194.233L0.752941 197.12ZM99.0118 197.12L94.0118 194.233V200.007L99.0118 197.12ZM5.25294 197.12V197.62L94.5118 197.62V197.12V196.62L5.25294 196.62V197.12Z" fill="black"/>
<path d="M49.5016 194.674C48.9164 194.674 48.3993 194.571 47.9505 194.363C47.5044 194.153 47.1564 193.865 46.9064 193.498C46.6564 193.129 46.5328 192.709 46.5357 192.237C46.5328 191.868 46.6053 191.527 46.753 191.214C46.9007 190.899 47.1025 190.636 47.3581 190.426C47.6167 190.213 47.905 190.078 48.2232 190.021V189.97C47.8056 189.862 47.4732 189.628 47.226 189.267C46.9789 188.903 46.8567 188.49 46.8596 188.027C46.8567 187.584 46.9689 187.187 47.1962 186.838C47.4235 186.488 47.736 186.213 48.1337 186.011C48.5343 185.809 48.9902 185.709 49.5016 185.709C50.0073 185.709 50.459 185.809 50.8567 186.011C51.2544 186.213 51.5669 186.488 51.7942 186.838C52.0243 187.187 52.1408 187.584 52.1436 188.027C52.1408 188.49 52.0144 188.903 51.7644 189.267C51.5172 189.628 51.1891 189.862 50.78 189.97V190.021C51.0953 190.078 51.3794 190.213 51.6323 190.426C51.8851 190.636 52.0868 190.899 52.2374 191.214C52.388 191.527 52.4647 191.868 52.4675 192.237C52.4647 192.709 52.3368 193.129 52.084 193.498C51.834 193.865 51.486 194.153 51.04 194.363C50.5968 194.571 50.084 194.674 49.5016 194.674ZM49.5016 193.737C49.8965 193.737 50.2374 193.673 50.5243 193.545C50.8113 193.417 51.0328 193.237 51.1891 193.004C51.3453 192.771 51.4249 192.498 51.4277 192.186C51.4249 191.856 51.3397 191.565 51.1721 191.312C51.0044 191.059 50.7757 190.861 50.486 190.716C50.199 190.571 49.8709 190.498 49.5016 190.498C49.1294 190.498 48.7971 190.571 48.5044 190.716C48.2147 190.861 47.986 191.059 47.8184 191.312C47.6536 191.565 47.5726 191.856 47.5755 192.186C47.5726 192.498 47.6479 192.771 47.8013 193.004C47.9576 193.237 48.1806 193.417 48.4703 193.545C48.7601 193.673 49.1039 193.737 49.5016 193.737ZM49.5016 189.595C49.8141 189.595 50.0911 189.532 50.3326 189.407C50.5769 189.282 50.7686 189.108 50.9078 188.883C51.0471 188.659 51.1181 188.396 51.1209 188.095C51.1181 187.799 51.0485 187.542 50.9121 187.324C50.7757 187.102 50.5868 186.932 50.3453 186.812C50.1039 186.69 49.8226 186.629 49.5016 186.629C49.1749 186.629 48.8894 186.69 48.6451 186.812C48.4007 186.932 48.2118 187.102 48.0783 187.324C47.9448 187.542 47.8794 187.799 47.8823 188.095C47.8794 188.396 47.9462 188.659 48.0826 188.883C48.2218 189.108 48.4135 189.282 48.6578 189.407C48.9022 189.532 49.1834 189.595 49.5016 189.595Z" fill="black"/>
</svg>
