<svg width="326" height="207" viewBox="0 0 326 207" fill="none" xmlns="http://www.w3.org/2000/svg">
<path d="M0.5 106.555L0.5 179.878" stroke="black"/>
<path d="M-1.90735e-06 180.243L100.035 180.243" stroke="black"/>
<path d="M99.5012 106.555V179.72" stroke="black"/>
<path d="M91 172.031H9.0361" stroke="black"/>
<path d="M9.53614 106.555L9.53614 171.532" stroke="black"/>
<path d="M90.5012 171.519L90.5012 106.554" stroke="black"/>
<path d="M99 107.055H91" stroke="black"/>
<path d="M295.03 19.0453L295.03 8.55505" stroke="black"/>
<path d="M315.412 19.0453L315.412 8.55505" stroke="black"/>
<path d="M99.7368 180.341L315.5 18.5543" stroke="black"/>
<path d="M0.5 107.055L295 9.05524" stroke="black"/>
<path d="M9 107.055L295 9.05542" stroke="black"/>
<line x1="0.5" y1="180.554" x2="0.5" y2="206.143" stroke="black"/>
<line x1="99.5117" y1="180.742" x2="99.5117" y2="206.331" stroke="black"/>
<path d="M9.74948 172.122L90.5 127.054" stroke="black"/>
<path d="M89.9999 107.055L315.5 9.0553" stroke="black"/>
<path d="M99.4999 107.055L315.5 9.5553" stroke="black"/>
<path d="M1 107.055H9.5" stroke="black"/>
<path d="M0.752941 197.12L5.75294 200.007L5.75294 194.233L0.752941 197.12ZM99.0118 197.12L94.0118 194.233V200.007L99.0118 197.12ZM5.25294 197.12V197.62L94.5118 197.62V197.12V196.62L5.25294 196.62V197.12Z" fill="black"/>
<path d="M46.9384 185.828V194.555H45.8816V186.936H45.8304L43.6998 188.351V187.277L45.8816 185.828H46.9384ZM52.3461 194.674C51.9881 194.669 51.6301 194.601 51.2722 194.47C50.9142 194.339 50.5875 194.119 50.2921 193.809C49.9966 193.497 49.7594 193.075 49.5804 192.544C49.4015 192.01 49.312 191.339 49.312 190.532C49.312 189.76 49.3844 189.075 49.5293 188.478C49.6742 187.879 49.8844 187.375 50.16 186.966C50.4355 186.554 50.7679 186.241 51.1571 186.028C51.5492 185.815 51.9909 185.709 52.4824 185.709C52.9711 185.709 53.4057 185.807 53.7864 186.003C54.1699 186.196 54.4824 186.466 54.7239 186.812C54.9654 187.159 55.1216 187.558 55.1926 188.01H54.1529C54.0563 187.618 53.8688 187.292 53.5904 187.034C53.312 186.775 52.9426 186.646 52.4824 186.646C51.8063 186.646 51.2736 186.94 50.8844 187.528C50.498 188.116 50.3034 188.942 50.3006 190.004H50.3688C50.5279 189.763 50.7168 189.557 50.9355 189.386C51.1571 189.213 51.4015 189.079 51.6685 188.986C51.9355 188.892 52.2182 188.845 52.5165 188.845C53.0165 188.845 53.4739 188.97 53.8887 189.22C54.3034 189.467 54.6358 189.809 54.8858 190.247C55.1358 190.682 55.2608 191.18 55.2608 191.743C55.2608 192.282 55.1401 192.777 54.8986 193.226C54.6571 193.672 54.3176 194.027 53.8801 194.291C53.4455 194.552 52.9341 194.68 52.3461 194.674ZM52.3461 193.737C52.704 193.737 53.025 193.648 53.3091 193.469C53.5961 193.29 53.8219 193.049 53.9867 192.748C54.1543 192.447 54.2381 192.112 54.2381 191.743C54.2381 191.382 54.1571 191.054 53.9952 190.758C53.8361 190.46 53.6159 190.223 53.3347 190.047C53.0563 189.871 52.7381 189.782 52.3801 189.782C52.1103 189.782 51.8588 189.836 51.6259 189.944C51.3929 190.049 51.1884 190.194 51.0123 190.379C50.839 190.564 50.7026 190.775 50.6032 191.014C50.5037 191.25 50.454 191.498 50.454 191.76C50.454 192.106 50.535 192.43 50.6969 192.731C50.8617 193.032 51.0861 193.275 51.3702 193.46C51.6571 193.645 51.9824 193.737 52.3461 193.737Z" fill="black"/>
</svg>
