<svg width="326" height="207" viewBox="0 0 326 207" fill="none" xmlns="http://www.w3.org/2000/svg">
<path d="M0.5 106.555L0.5 179.878" stroke="black"/>
<path d="M-1.90735e-06 180.243L100.035 180.243" stroke="black"/>
<path d="M99.5012 106.555V179.72" stroke="black"/>
<path d="M91 172.031H9.0361" stroke="black"/>
<path d="M9.53614 106.555L9.53614 171.532" stroke="black"/>
<path d="M90.5012 171.519L90.5012 106.554" stroke="black"/>
<path d="M99 107.055H91" stroke="black"/>
<path d="M295.03 19.0453L295.03 8.55505" stroke="black"/>
<path d="M315.412 19.0453L315.412 8.55505" stroke="black"/>
<path d="M99.7368 180.341L315.5 18.5543" stroke="black"/>
<path d="M0.5 107.055L295 9.05524" stroke="black"/>
<path d="M9 107.055L295 9.05542" stroke="black"/>
<line x1="0.5" y1="180.554" x2="0.5" y2="206.143" stroke="black"/>
<line x1="99.5117" y1="180.742" x2="99.5117" y2="206.331" stroke="black"/>
<path d="M9.74948 172.122L90.5 127.054" stroke="black"/>
<path d="M89.9999 107.055L315.5 9.0553" stroke="black"/>
<path d="M99.4999 107.055L315.5 9.5553" stroke="black"/>
<path d="M1 107.055H9.5" stroke="black"/>
<path d="M0.752941 197.12L5.75294 200.007L5.75294 194.233L0.752941 197.12ZM99.0118 197.12L94.0118 194.233V200.007L99.0118 197.12ZM5.25294 197.12V197.62L94.5118 197.62V197.12V196.62L5.25294 196.62V197.12Z" fill="black"/>
<path d="M47.0497 185.828V194.555H45.9929V186.936H45.9418L43.8111 188.351V187.277L45.9929 185.828H47.0497ZM49.5597 194.555V193.788L52.4403 190.635C52.7784 190.265 53.0568 189.944 53.2756 189.672C53.4943 189.396 53.6563 189.138 53.7614 188.896C53.8693 188.652 53.9233 188.396 53.9233 188.129C53.9233 187.822 53.8494 187.557 53.7017 187.332C53.5568 187.108 53.358 186.934 53.1051 186.812C52.8523 186.69 52.5682 186.629 52.2528 186.629C51.9176 186.629 51.625 186.699 51.375 186.838C51.1278 186.974 50.9361 187.166 50.7997 187.413C50.6662 187.66 50.5994 187.95 50.5994 188.282H49.5938C49.5938 187.771 49.7116 187.322 49.9474 186.936C50.1832 186.549 50.5043 186.248 50.9105 186.032C51.3196 185.817 51.7784 185.709 52.2869 185.709C52.7983 185.709 53.2514 185.817 53.6463 186.032C54.0412 186.248 54.3509 186.54 54.5753 186.906C54.7997 187.273 54.9119 187.68 54.9119 188.129C54.9119 188.45 54.8537 188.764 54.7372 189.071C54.6236 189.375 54.4247 189.714 54.1406 190.089C53.8594 190.461 53.4688 190.916 52.9688 191.453L51.0085 193.549V193.618H55.0653V194.555H49.5597Z" fill="black"/>
</svg>
