<svg width="326" height="207" viewBox="0 0 326 207" fill="none" xmlns="http://www.w3.org/2000/svg">
<path d="M0.5 106.555L0.5 179.878" stroke="black"/>
<path d="M-1.90735e-06 180.243L100.035 180.243" stroke="black"/>
<path d="M99.5012 106.555V179.72" stroke="black"/>
<path d="M91 172.031H9.0361" stroke="black"/>
<path d="M9.53614 106.555L9.53614 171.532" stroke="black"/>
<path d="M90.5012 171.519L90.5012 106.554" stroke="black"/>
<path d="M99 107.055H91" stroke="black"/>
<path d="M295.03 19.0453L295.03 8.55505" stroke="black"/>
<path d="M315.412 19.0453L315.412 8.55505" stroke="black"/>
<path d="M99.7368 180.341L315.5 18.5543" stroke="black"/>
<path d="M0.5 107.055L295 9.05524" stroke="black"/>
<path d="M9 107.055L295 9.05542" stroke="black"/>
<line x1="0.5" y1="180.554" x2="0.5" y2="206.143" stroke="black"/>
<line x1="99.5117" y1="180.742" x2="99.5117" y2="206.331" stroke="black"/>
<path d="M9.74948 172.122L90.5 127.054" stroke="black"/>
<path d="M89.9999 107.055L315.5 9.0553" stroke="black"/>
<path d="M99.4999 107.055L315.5 9.5553" stroke="black"/>
<path d="M1 107.055H9.5" stroke="black"/>
<path d="M0.752941 197.12L5.75294 200.007L5.75294 194.233L0.752941 197.12ZM99.0118 197.12L94.0118 194.233V200.007L99.0118 197.12ZM5.25294 197.12V197.62L94.5118 197.62V197.12V196.62L5.25294 196.62V197.12Z" fill="black"/>
<path d="M46.8329 185.828V194.555H45.7761V186.936H45.725L43.5943 188.351V187.277L45.7761 185.828H46.8329ZM49.1383 192.765V191.896L52.9735 185.828H53.6042V187.174H53.1781L50.2804 191.76V191.828H55.4451V192.765H49.1383ZM53.2463 194.555V192.501V192.096V185.828H54.252V194.555H53.2463Z" fill="black"/>
</svg>
